<svg width="80" height="19" viewBox="0 0 80 19" fill="none" xmlns="http://www.w3.org/2000/svg">
<g clip-path="url(#clip0_598_178)">
<path fill-rule="evenodd" clip-rule="evenodd" d="M32.9116 15.6371C29.8433 17.8317 25.3955 18.9999 21.5653 18.9999C16.1974 18.9999 11.364 17.0766 7.70545 13.8733C7.41783 13.6225 7.67409 13.2776 8.02032 13.4726C11.9664 15.6998 16.8476 17.0398 21.8883 17.0398C25.2892 17.0398 29.0268 16.3555 32.4658 14.942C32.9852 14.728 33.42 15.2732 32.9116 15.6371Z" fill="#222E3E"/>
<path fill-rule="evenodd" clip-rule="evenodd" d="M33.5114 14.1433C33.1515 13.6758 31.1314 13.9211 30.2236 14.0316C29.9483 14.0643 29.906 13.8216 30.1541 13.6444C31.7653 12.4954 34.4056 12.828 34.7123 13.211C35.0217 13.5995 34.6318 16.2861 33.1215 17.5701C32.8898 17.7678 32.6676 17.6614 32.7712 17.4011C33.1106 16.5396 33.8712 14.6109 33.5114 14.142" fill="#222E3E"/>
<path fill-rule="evenodd" clip-rule="evenodd" d="M30.2958 4.23783V2.99334C30.2958 2.80387 30.4335 2.67847 30.5984 2.67847H35.9485C36.1203 2.67847 36.2566 2.80796 36.2566 2.99198V4.05927C36.2552 4.23783 36.1107 4.47092 35.8531 4.84168L33.082 8.96364C34.1111 8.9391 35.1988 9.09858 36.1325 9.64654C36.3438 9.76922 36.3997 9.95324 36.4161 10.1318V11.4594C36.4161 11.6421 36.2239 11.8534 36.0221 11.7443C34.3755 10.8461 32.1905 10.7479 30.3694 11.7552C30.1827 11.8588 29.9891 11.6503 29.9891 11.4676V10.2054C29.9891 10.0037 29.9932 9.65881 30.1881 9.35075L33.3982 4.55134H30.6025C30.4321 4.55134 30.2945 4.42321 30.2931 4.23783" fill="#222E3E"/>
<path fill-rule="evenodd" clip-rule="evenodd" d="M10.9796 12.3182H9.38889C9.23759 12.3073 9.11627 12.1846 9.104 12.0278V3.18281C9.104 3.00561 9.24304 2.86385 9.41206 2.86385H10.8924C11.0478 2.87202 11.1718 2.99879 11.1813 3.161V4.31553H11.2113C11.5971 3.19916 12.325 2.67847 13.3037 2.67847C14.2824 2.67847 14.9216 3.19916 15.3674 4.31553C15.7531 3.19916 16.6296 2.67847 17.5647 2.67847C18.2326 2.67847 18.9604 2.97562 19.4048 3.64626C19.9092 4.3905 19.8056 5.47006 19.8056 6.41876V11.9992C19.8056 12.1751 19.6665 12.3182 19.4975 12.3182H17.9095C17.75 12.3073 17.6246 12.1696 17.6246 12.0006V7.31295C17.6246 6.94082 17.6546 6.00984 17.5796 5.6568C17.4611 5.06113 17.1053 4.89348 16.6446 4.89348C16.2588 4.89348 15.8581 5.17291 15.6945 5.61863C15.5309 6.06573 15.5459 6.80997 15.5459 7.31295V12.0006C15.5459 12.1764 15.4083 12.3195 15.2392 12.3195H13.6512C13.4918 12.3086 13.3664 12.171 13.3664 12.0019V7.31431C13.365 6.32744 13.5136 4.87576 12.3849 4.87576C11.2563 4.87576 11.2863 6.29063 11.2863 7.31431V12.0019C11.2863 12.1778 11.1486 12.3209 10.9796 12.3209" fill="#222E3E"/>
<path fill-rule="evenodd" clip-rule="evenodd" d="M41.2224 4.44911C40.0038 4.44911 39.9261 6.14615 39.9261 7.20526C39.9261 8.26438 39.9111 10.5285 41.206 10.5285C42.5009 10.5285 42.5487 8.70193 42.5487 7.58965C42.5487 6.85904 42.5173 5.98258 42.3019 5.28877C42.1166 4.68629 41.7458 4.44911 41.2224 4.44911ZM41.2074 2.67847C43.6609 2.67847 44.9872 4.8335 44.9872 7.57193C44.9872 10.3104 43.5219 12.3195 41.2074 12.3195C38.8929 12.3195 37.4889 10.1659 37.4889 7.48061C37.4889 4.79533 38.8152 2.67847 41.2074 2.67847Z" fill="#222E3E"/>
<path fill-rule="evenodd" clip-rule="evenodd" d="M48.4358 12.3182H46.8778C46.721 12.3073 46.597 12.1696 46.597 12.0006L46.5942 3.15418C46.6079 2.99334 46.7374 2.86521 46.8955 2.86521H48.3472C48.4835 2.87202 48.5966 2.97562 48.6252 3.11329V4.46547H48.6552C49.0928 3.25641 49.7062 2.67847 50.7871 2.67847C51.4891 2.67847 52.1747 2.9579 52.6136 3.72122C53.0225 4.42866 53.0225 5.61863 53.0225 6.47465V12.0401C53.0048 12.1969 52.8767 12.3182 52.7227 12.3182H51.1537C51.0093 12.3073 50.892 12.1901 50.8757 12.0401V7.23798C50.8757 6.27019 50.9779 4.85531 49.897 4.85531C49.5167 4.85531 49.1677 5.13474 48.9919 5.56275C48.7724 6.10253 48.7438 6.64231 48.7438 7.23798V12.0006C48.7411 12.1764 48.6061 12.3195 48.4385 12.3195" fill="#222E3E"/>
<path fill-rule="evenodd" clip-rule="evenodd" d="M28.0685 12.1765C27.9567 12.276 27.7973 12.2842 27.6718 12.216C27.1143 11.7499 27.0135 11.5345 26.7082 11.0915C25.7853 12.0347 25.1324 12.3169 23.937 12.3169C22.5221 12.3169 21.4221 11.4404 21.4221 9.68752C21.4221 8.31762 22.1609 7.38663 23.2146 6.93C24.1265 6.52789 25.3996 6.45565 26.3742 6.34524V6.12578C26.3742 5.72367 26.4055 5.24932 26.1697 4.90173C25.9653 4.59095 25.5727 4.46282 25.2265 4.46282C24.5858 4.46282 24.0161 4.79269 23.8757 5.47559C23.847 5.62689 23.7366 5.7782 23.584 5.78637L21.9551 5.60917C21.8174 5.57782 21.6647 5.46741 21.7043 5.25614C22.0791 3.27285 23.8634 2.6731 25.4623 2.6731C26.2801 2.6731 27.3488 2.89255 27.9935 3.51275C28.8114 4.27881 28.7323 5.30248 28.7323 6.41612V9.04414C28.7323 9.83473 29.0595 10.181 29.3662 10.6076C29.4738 10.7616 29.497 10.9443 29.3607 11.056C29.0172 11.345 28.4079 11.8766 28.0712 12.1765L28.0671 12.1724L28.0685 12.1765ZM26.3742 8.06408C26.3742 8.72109 26.3892 9.26905 26.0593 9.85381C25.7922 10.3295 25.3682 10.6199 24.8966 10.6199C24.2519 10.6199 23.8743 10.1264 23.8743 9.39718C23.8743 7.96049 25.1583 7.69878 26.3742 7.69878V8.06408Z" fill="#222E3E"/>
<path fill-rule="evenodd" clip-rule="evenodd" d="M6.64639 12.1765C6.53461 12.276 6.37513 12.2842 6.24973 12.216C5.69087 11.7499 5.59136 11.5345 5.28603 11.0915C4.36322 12.0347 3.71031 12.3169 2.51489 12.3169C1.10001 12.3169 0 11.4404 0 9.68752C0 8.31762 0.73879 7.38663 1.79245 6.93C2.70435 6.52789 3.97747 6.45565 4.95208 6.34524V6.12578C4.95208 5.72367 4.98343 5.24932 4.74761 4.90173C4.54315 4.59095 4.15058 4.46282 3.80436 4.46282C3.16371 4.46282 2.59395 4.79269 2.45355 5.47559C2.42492 5.62689 2.31451 5.7782 2.16185 5.78637L0.532965 5.60917C0.395294 5.57782 0.242629 5.46741 0.282158 5.25614C0.657005 3.27285 2.44128 2.6731 4.04017 2.6731C4.85802 2.6731 5.92668 2.89255 6.57142 3.51275C7.38927 4.27881 7.31021 5.30248 7.31021 6.41612V9.04414C7.31021 9.83473 7.63735 10.181 7.94404 10.6076C8.05172 10.7616 8.0749 10.9443 7.93859 11.056C7.59509 11.345 6.98579 11.8766 6.64911 12.1765L6.64502 12.1724L6.64639 12.1765ZM4.95208 8.06408C4.95208 8.72109 4.96843 9.26905 4.6372 9.85381C4.37004 10.3295 3.94612 10.6199 3.47313 10.6199C2.82839 10.6199 2.45082 10.1264 2.45082 9.39718C2.45082 7.96049 3.73484 7.69878 4.95071 7.69878V8.06408H4.95208Z" fill="#222E3E"/>
<path fill-rule="evenodd" clip-rule="evenodd" d="M66.3998 5.12928C65.9377 5.68541 65.7237 6.44738 65.7237 7.43152C65.7237 8.41567 65.9377 9.19399 66.382 9.76512C66.8796 10.4003 67.6265 10.7343 68.6216 10.7343C69.5458 10.7343 70.2573 10.4167 70.7725 9.78148C71.2169 9.21035 71.4486 8.46338 71.4486 7.54193V7.38381C71.4486 6.43102 71.1815 5.6527 70.6839 5.06521C70.1687 4.46137 69.4926 4.17648 68.6747 4.17648C67.662 4.17648 66.8973 4.49408 66.3998 5.12928ZM72.8362 0.329866V11.27C72.8362 11.4308 72.6904 11.5603 72.5118 11.5603H71.8466C71.6572 11.5603 71.5045 11.4226 71.5045 11.2536V10.2095C70.8652 11.2577 69.8334 11.7811 68.4471 11.7811C67.0609 11.7811 66.0467 11.3368 65.3011 10.4794C64.6073 9.68606 64.2706 8.6692 64.2706 7.43016C64.2706 6.19112 64.6087 5.23832 65.3011 4.44501C66.0481 3.55628 67.0609 3.12691 68.3762 3.12691C69.6916 3.12691 70.7044 3.6994 71.4159 4.85802V0.302604C71.4159 0.134945 71.5672 0 71.7553 0H72.4696C72.674 0 72.839 0.147213 72.839 0.329866" fill="#222E3E"/>
<path fill-rule="evenodd" clip-rule="evenodd" d="M61.8771 8.14048C61.8771 8.80839 61.5636 9.40951 60.9543 9.92748C60.3286 10.4618 59.6198 10.729 58.8129 10.729C58.2854 10.729 57.8573 10.5954 57.5275 10.3446C57.1976 10.0774 57.049 9.75982 57.049 9.35908C57.049 8.1064 58.0046 7.47121 59.917 7.43849L61.8771 7.40441V8.13912V8.14048ZM62.4373 3.6464C61.8444 2.99484 60.9543 2.67725 59.7357 2.67725C59.3731 2.67725 59.0364 2.70314 58.727 2.75358V2.75767C57.8505 2.86535 57.0531 3.26746 56.4506 3.63686C56.3443 3.70228 56.3048 3.83859 56.358 3.95309L56.5979 4.46425C56.6578 4.59101 56.8105 4.64145 56.9318 4.57466C57.4975 4.26115 58.2758 3.99535 58.9683 3.83859C59.1795 3.80043 59.4072 3.77998 59.6539 3.77998C61.1369 3.77998 61.8784 4.49832 61.8784 5.95137V6.40255L59.8352 6.43526C58.5498 6.45162 57.5616 6.63018 56.8691 7.09772C56.0772 7.59934 55.6996 8.40764 55.6996 9.39315C55.6996 10.0951 55.9627 10.6799 56.4902 11.1311C57.0013 11.5659 57.6761 11.7826 58.5334 11.7826C59.324 11.7826 60.0328 11.5986 60.6598 11.2483C61.1874 10.9471 61.6317 10.564 61.9616 10.0951V11.2197C61.9616 11.401 62.1074 11.5482 62.286 11.5482H62.8735C63.0521 11.5482 63.1979 11.401 63.1979 11.2197V6.0018C63.1979 4.99994 62.9335 4.2148 62.44 3.6464H62.4373Z" fill="#222E3E"/>
<path fill-rule="evenodd" clip-rule="evenodd" d="M73.9076 10.1713C73.9076 9.97913 74.1189 9.86327 74.2865 9.96141C74.9558 10.354 75.6687 10.5503 76.4238 10.5503C77.6274 10.5503 78.4385 10.1604 78.4385 9.38074C78.4385 9.04815 78.3076 8.77417 78.0445 8.55744C77.7815 8.34207 77.0399 8.08581 76.2357 7.78866C75.2679 7.40427 74.6396 7.02261 74.3506 6.6464C74.0616 6.26882 73.9171 5.81356 73.9171 5.27786C73.9171 4.51318 74.2443 3.82891 74.8985 3.36819C75.5528 2.90746 76.3584 2.67847 77.3153 2.67847C77.9955 2.67847 78.6307 2.85839 79.2222 3.0724C79.319 3.10784 79.3817 3.20053 79.3817 3.3014V4.18195C79.3817 4.36733 79.1841 4.48319 79.0178 4.40004C78.4589 4.12197 77.8414 3.90933 77.1654 3.90933C76.6706 3.90933 76.1308 4.01565 75.82 4.22965C75.5092 4.44229 75.2857 4.7967 75.2857 5.14428C75.2857 5.49187 75.3974 5.75494 75.621 5.94714C75.8445 6.13933 76.5479 6.38605 77.3153 6.68865C78.2885 7.04714 78.9455 7.41927 79.2863 7.80365C79.6284 8.18804 79.7988 8.66376 79.7988 9.2308C79.7988 10.0214 79.4717 10.6443 78.8174 11.0982C78.1631 11.5535 77.3153 11.7811 76.2739 11.7811C75.4342 11.7811 74.6954 11.6353 74.0548 11.3449C73.9662 11.304 73.9076 11.2168 73.9076 11.12V10.17V10.1713Z" fill="#222E3E"/>
</g>
<defs>
<clipPath id="clip0_598_178">
<rect width="79.7989" height="19" fill="white"/>
</clipPath>
</defs>
</svg>
