<svg width="138" height="32" viewBox="0 0 138 32" fill="none" xmlns="http://www.w3.org/2000/svg">
<path d="M32.8406 17.3434C32.575 16.8524 32.2369 16.4042 31.8377 16.014C31.3258 15.5537 30.7669 15.1486 30.1703 14.8054C29.4372 14.3783 28.8573 14.0641 28.4303 13.8627C28.0195 13.6572 27.3912 13.3792 26.5575 13.0166C24.1409 11.9047 22.8238 10.7324 22.7997 9.51169C22.7845 9.24711 22.8311 8.98262 22.936 8.73925C23.0409 8.49587 23.2011 8.28032 23.4038 8.10971C23.8917 7.70199 24.4881 7.44574 25.1196 7.37247V7.25161C23.4964 7.23814 21.9061 7.70946 20.5522 8.60524C20.0214 8.97146 19.5892 9.46316 19.2941 10.0367C18.999 10.6102 18.8501 11.2477 18.8606 11.8926C18.8623 12.3387 18.9442 12.7808 19.1023 13.1979C19.3081 13.6615 19.6133 14.0742 19.9964 14.4065C20.4314 14.8054 20.806 15.1438 21.1081 15.3976C21.5827 15.7724 22.0925 16.1003 22.6305 16.3765C23.3434 16.7754 23.8388 17.0413 24.0926 17.1621L25.6633 17.9356C28.1403 19.1442 29.3849 20.2562 29.3849 21.3076C29.3849 22.5162 28.4303 23.3502 26.5212 23.7248V23.9182C28.2851 23.9427 30.0183 23.4557 31.5115 22.5162C32.0807 22.1309 32.5424 21.607 32.8532 20.9938C33.1639 20.3805 33.3135 19.6983 33.2877 19.0113C33.2876 18.4257 33.1334 17.8505 32.8406 17.3434Z" fill="#171F29" fill-opacity="0.3"/>
<path d="M30.1099 12.8233C30.5878 12.8233 31.0551 12.6815 31.4525 12.4159C31.8499 12.1503 32.1596 11.7728 32.3425 11.3311C32.5254 10.8894 32.5733 10.4034 32.48 9.93449C32.3868 9.4656 32.1566 9.03489 31.8187 8.69684C31.4807 8.35879 31.0501 8.12857 30.5813 8.03531C30.1126 7.94204 29.6267 7.98991 29.1851 8.17286C28.7435 8.35581 28.3661 8.66563 28.1005 9.06314C27.835 9.46064 27.6933 9.92798 27.6933 10.4061C27.6933 11.0471 27.9479 11.662 28.4011 12.1153C28.8543 12.5686 29.469 12.8233 30.1099 12.8233Z" fill="#171F29" fill-opacity="0.3"/>
<path d="M22.1955 18.5399C21.7126 18.528 21.2372 18.6611 20.8307 18.9221C20.4242 19.183 20.1051 19.5598 19.9148 20.0039C19.7245 20.4479 19.6715 20.9389 19.7628 21.4133C19.8541 21.8878 20.0855 22.324 20.4271 22.6656C20.7686 23.0073 21.2047 23.2387 21.679 23.33C22.1534 23.4214 22.6442 23.3684 23.0881 23.178C23.5321 22.9876 23.9088 22.6685 24.1697 22.2619C24.4306 21.8552 24.5636 21.3797 24.5517 20.8967C24.5517 20.2717 24.3035 19.6722 23.8616 19.2302C23.4197 18.7882 22.8204 18.5399 22.1955 18.5399Z" fill="#171F29" fill-opacity="0.3"/>
<path d="M48.6331 17.3434C48.3634 16.8518 48.0212 16.4036 47.6181 16.014C47.1062 15.5537 46.5473 15.1486 45.9506 14.8054C45.2136 14.3823 44.6336 14.0681 44.2228 13.8627C43.812 13.6572 43.1716 13.3792 42.3378 13.0166C39.885 11.941 38.6767 10.7686 38.5921 9.54795C38.5715 9.28393 38.6146 9.01883 38.7176 8.77488C38.8206 8.53094 38.9806 8.31527 39.1842 8.14597C39.6732 7.74004 40.269 7.48403 40.9 7.40872V7.2516C39.2926 7.24336 37.7192 7.71464 36.3809 8.60524C35.8404 8.96515 35.3982 9.45429 35.0944 10.0283C34.7905 10.6024 34.6347 11.2431 34.641 11.8926C34.6427 12.3387 34.7246 12.7808 34.8826 13.1979C35.0933 13.6619 35.4026 14.0743 35.7889 14.4065C36.2239 14.8054 36.5863 15.1438 36.8884 15.3976C37.367 15.7668 37.8764 16.0943 38.4109 16.3765C39.1359 16.7754 39.6192 17.0413 39.8729 17.1621L41.4437 17.9356C43.9207 19.1442 45.1653 20.2561 45.1653 21.3076C45.1653 22.5162 44.2107 23.3502 42.3137 23.7248V23.9182C44.0774 23.9413 45.8102 23.4544 47.3039 22.5162C47.8731 22.1309 48.3349 21.6069 48.6456 20.9937C48.9564 20.3805 49.1059 19.6983 49.0801 19.0113C49.0801 18.4257 48.9259 17.8505 48.6331 17.3434Z" fill="#171F29" fill-opacity="0.3"/>
<path d="M45.9265 12.8232C46.4068 12.8353 46.8799 12.7038 47.2851 12.4456C47.6904 12.1874 48.0095 11.8142 48.2017 11.3737C48.3939 10.9332 48.4505 10.4454 48.3642 9.97261C48.2779 9.49981 48.0526 9.06347 47.7172 8.71935C47.3817 8.37523 46.9514 8.13894 46.481 8.04067C46.0107 7.9424 45.5217 7.9866 45.0766 8.16765C44.6315 8.34869 44.2505 8.65834 43.9821 9.05705C43.7138 9.45576 43.5704 9.92543 43.5703 10.406C43.5701 11.0368 43.8164 11.6426 44.2566 12.0943C44.6968 12.5459 45.2961 12.8075 45.9265 12.8232Z" fill="#171F29" fill-opacity="0.3"/>
<path d="M37.9759 18.5399C37.4954 18.5401 37.0258 18.6835 36.6272 18.9519C36.2286 19.2203 35.919 19.6014 35.738 20.0466C35.557 20.4918 35.5129 20.9809 35.6111 21.4514C35.7093 21.9219 35.9456 22.3523 36.2896 22.6879C36.6337 23.0234 37.0699 23.2487 37.5426 23.335C38.0152 23.4214 38.5029 23.3648 38.9433 23.1725C39.3837 22.9803 39.7568 22.6611 40.0149 22.2557C40.273 21.8503 40.4045 21.3772 40.3925 20.8967C40.3767 20.2662 40.1152 19.6668 39.6637 19.2264C39.2122 18.7861 38.6065 18.5398 37.9759 18.5399Z" fill="#171F29" fill-opacity="0.3"/>
<path d="M112.081 22.5163C111.354 22.5178 110.638 22.3466 109.991 22.0167C109.344 21.6867 108.785 21.2076 108.359 20.6188C107.294 19.0806 106.775 17.2294 106.885 15.3613C106.793 13.3048 107.017 11.2463 107.55 9.25791C107.666 8.76774 107.932 8.32603 108.311 7.9945C108.69 7.66297 109.163 7.45818 109.664 7.40875V7.25163C108.283 7.23239 106.92 7.56647 105.704 8.22218C104.488 8.87789 103.459 9.83348 102.716 10.9983C101.846 12.3288 101.399 13.8924 101.436 15.4822C101.39 16.6321 101.599 17.7778 102.048 18.8373C102.497 19.8967 103.175 20.8436 104.033 21.6098C105.665 23.0724 107.776 23.8853 109.966 23.8941C111.238 23.8799 112.498 23.6427 113.688 23.1931C114.899 22.7666 115.967 22.0087 116.769 21.0055V20.8121C115.446 21.8983 113.792 22.4996 112.081 22.5163Z" fill="#171F29" fill-opacity="0.3"/>
<path d="M113.748 12.8232C114.229 12.8353 114.702 12.7038 115.107 12.4456C115.512 12.1874 115.831 11.8142 116.023 11.3737C116.216 10.9332 116.272 10.4454 116.186 9.97261C116.1 9.49981 115.874 9.06347 115.539 8.71935C115.203 8.37523 114.773 8.13894 114.303 8.04067C113.832 7.9424 113.343 7.9866 112.898 8.16765C112.453 8.34869 112.072 8.65834 111.804 9.05705C111.536 9.45576 111.392 9.92543 111.392 10.406C111.392 11.0368 111.638 11.6426 112.078 12.0943C112.519 12.5459 113.118 12.8075 113.748 12.8232Z" fill="#171F29" fill-opacity="0.3"/>
<path d="M94.2584 20.8967C94.2584 20.4186 94.4001 19.9513 94.6656 19.5538C94.9312 19.1563 95.3086 18.8465 95.7502 18.6635C96.1918 18.4806 96.6777 18.4327 97.1464 18.526C97.6152 18.6192 98.0458 18.8494 98.3838 19.1875C98.7217 19.5255 98.9519 19.9562 99.0451 20.4251C99.1384 20.894 99.0905 21.38 98.9076 21.8217C98.7247 22.2634 98.415 22.6409 98.0175 22.9065C97.6201 23.1721 97.1529 23.3139 96.675 23.3139C96.3554 23.3222 96.0374 23.2654 95.7404 23.1468C95.4435 23.0283 95.1738 22.8506 94.9477 22.6244C94.7216 22.3983 94.5439 22.1285 94.4254 21.8315C94.3069 21.5344 94.2501 21.2164 94.2584 20.8967Z" fill="#171F29" fill-opacity="0.3"/>
<path d="M88.9298 7.52957V7.72294C89.3756 7.69737 89.8217 7.76715 90.2384 7.92762C90.6551 8.08809 91.0328 8.33557 91.3464 8.65357C91.921 9.32495 92.2228 10.1875 92.1922 11.0708C92.1218 12.5683 91.7735 14.0396 91.1651 15.4096L90.8872 15.9535C90.5852 16.5095 90.0656 17.4764 89.7756 17.9961L85.8003 9.66879C85.668 9.46902 85.5885 9.23888 85.5695 8.99998C85.5505 8.76109 85.5925 8.52128 85.6916 8.30307C85.8141 8.11896 85.9848 7.97202 86.1851 7.87825C86.3854 7.78448 86.6075 7.74749 86.8273 7.77129V7.52957H77.8014V7.72294C78.1748 7.70851 78.5438 7.80838 78.859 8.00922C79.1742 8.21006 79.4207 8.50231 79.5655 8.84694L86.2715 22.1416C86.5707 22.641 86.7069 23.2212 86.6615 23.8016C86.616 24.382 86.391 24.9339 86.0178 25.3806L85.7278 25.8036C85.6689 25.9117 85.6043 26.0165 85.5345 26.1179L85.752 26.2991L86.0782 25.7432L87.2019 23.6161L89.9448 18.4432L91.7089 15.18L94.8263 9.30621C95.0347 8.84416 95.3396 8.43207 95.7204 8.09761C96.0799 7.86881 96.5039 7.76279 96.9287 7.79546V7.52957H88.9298Z" fill="#171F29" fill-opacity="0.3"/>
<path d="M81.4262 27.0002C80.9457 27.0003 80.4762 27.1437 80.0776 27.4121C79.679 27.6805 79.3694 28.0616 79.1884 28.5068C79.0074 28.9521 78.9632 29.4411 79.0615 29.9116C79.1597 30.3821 79.3959 30.8126 79.74 31.1481C80.084 31.4836 80.5202 31.7089 80.9929 31.7952C81.4656 31.8816 81.9533 31.825 82.3936 31.6327C82.834 31.4405 83.2071 31.1213 83.4652 30.7159C83.7234 30.3105 83.8548 29.8374 83.8428 29.3569C83.827 28.7264 83.5655 28.127 83.114 27.6866C82.6625 27.2463 82.0568 27 81.4262 27.0002Z" fill="#171F29" fill-opacity="0.3"/>
<path d="M137.757 21.6702C137.262 22.6129 136.73 23.0722 136.271 23.0722C135.812 23.0722 135.34 22.6975 135.34 21.7548V11.8322C135.34 8.48438 133.19 6.9978 130.507 6.9978C129.356 6.98393 128.225 7.30566 127.253 7.92375C126.281 8.54185 125.51 9.42956 125.034 10.4786V1.2086C125.032 1.03053 125.078 0.855175 125.167 0.700989C125.289 0.516879 125.46 0.369937 125.66 0.276169C125.86 0.182401 126.083 0.145402 126.302 0.169204V0H117.941V0.193376C118.751 0.193376 119.705 0.749333 119.705 1.31738V21.7548C119.705 22.8426 118.908 23.3864 117.289 23.3864V23.5798H127.39V23.3864C125.795 23.3864 124.973 22.8426 124.973 21.7548V12.8233C124.973 10.5753 126.472 8.94365 128.006 8.94365C129.214 8.94365 130.072 10.0193 130.241 11.8201V20.6792C130.241 23.326 131.365 24.1962 133.866 24.1962C134.726 24.2844 135.59 24.084 136.323 23.6266C137.056 23.1693 137.616 22.481 137.914 21.6702H137.757Z" fill="#171F29" fill-opacity="0.3"/>
<path d="M54.8316 12.8232C55.312 12.8353 55.785 12.7038 56.1903 12.4456C56.5956 12.1874 56.9147 11.8142 57.1069 11.3737C57.2991 10.9332 57.3556 10.4454 57.2693 9.97261C57.183 9.49981 56.9578 9.06347 56.6223 8.71935C56.2869 8.37523 55.8565 8.13894 55.3862 8.04067C54.9158 7.9424 54.4269 7.9866 53.9818 8.16765C53.5367 8.34869 53.1556 8.65834 52.8873 9.05705C52.619 9.45576 52.4756 9.92543 52.4755 10.406C52.4753 11.0368 52.7215 11.6426 53.1618 12.0943C53.602 12.5459 54.2012 12.8075 54.8316 12.8232Z" fill="#171F29" fill-opacity="0.3"/>
<path d="M68.6908 21.5494C68.1712 22.5283 67.6154 23.0239 67.1321 23.0239C66.6488 23.0239 66.2138 22.625 66.2138 21.6823V13.766C66.2138 9.49961 64.0509 7.45707 58.6619 7.25161V7.45707C60.2569 7.67462 60.8731 8.95574 60.8731 10.5511V15.3855H57.5503C55.9753 15.3207 54.4185 15.7427 53.0917 16.5941C52.5647 16.9421 52.1328 17.4162 51.8353 17.9733C51.5378 18.5305 51.3841 19.1532 51.388 19.7848C51.3538 20.3428 51.4446 20.9015 51.6536 21.42C51.8627 21.9385 52.1847 22.4039 52.5963 22.7821C53.5217 23.5629 54.7103 23.9606 55.9191 23.894C56.8857 23.8715 57.8353 23.6355 58.7001 23.203C59.5649 22.7705 60.3234 22.1522 60.9215 21.3922C61.1631 23.4952 62.3352 24.2204 64.6551 24.2204C65.5573 24.3134 66.4645 24.1007 67.2314 23.6164C67.9983 23.132 68.5803 22.4041 68.8841 21.5494H68.6908ZM58.674 22.202C57.3207 22.202 56.6562 21.1626 56.6562 19.0959C56.6081 18.1599 56.9242 17.2416 57.5382 16.5337C57.8663 16.2072 58.2601 15.9543 58.6934 15.7918C59.1268 15.6293 59.5897 15.5608 60.0515 15.591H60.8731V20.5462C60.8601 20.7676 60.8601 20.9896 60.8731 21.2109C60.281 21.7921 59.5015 22.1434 58.674 22.202Z" fill="#171F29" fill-opacity="0.3"/>
<path d="M3.45484 12.8232C3.93519 12.8353 4.40821 12.7038 4.81349 12.4456C5.21876 12.1874 5.53788 11.8142 5.73009 11.3737C5.92229 10.9332 5.97885 10.4454 5.89254 9.97261C5.80623 9.49981 5.58097 9.06347 5.24553 8.71935C4.9101 8.37523 4.47972 8.13894 4.00937 8.04067C3.53902 7.9424 3.05007 7.9866 2.60496 8.16765C2.15985 8.34869 1.77881 8.65834 1.5105 9.05705C1.2422 9.45576 1.09881 9.92543 1.09866 10.406C1.09846 11.0368 1.34476 11.6426 1.78497 12.0943C2.22518 12.5459 2.82445 12.8075 3.45484 12.8232Z" fill="#171F29" fill-opacity="0.3"/>
<path d="M17.314 21.5494C16.7945 22.5283 16.2386 23.0239 15.7432 23.0239C15.2478 23.0239 14.837 22.625 14.837 21.6823V13.766C14.837 9.49961 12.6862 7.45707 7.26099 7.25161V7.45707C8.85594 7.67462 9.47217 8.95574 9.47217 10.5511V15.3855H6.17352C4.59848 15.3207 3.0417 15.7427 1.7149 16.5941C1.19131 16.9399 0.761619 17.4101 0.464293 17.9627C0.166967 18.5153 0.0112909 19.1331 0.0112032 19.7606C-0.0328392 20.3197 0.0533577 20.8813 0.263017 21.4014C0.472677 21.9215 0.800085 22.3858 1.2195 22.758C2.13997 23.5391 3.32501 23.9371 4.53023 23.8699C5.49888 23.8491 6.4509 23.6139 7.3179 23.1814C8.18491 22.7488 8.94537 22.1295 9.54467 21.3681C9.77424 23.471 10.9584 24.172 13.3025 24.172C14.2013 24.2645 15.1054 24.0544 15.8714 23.575C16.6374 23.0955 17.2216 22.3742 17.5315 21.5252L17.314 21.5494ZM7.26099 22.202C5.90769 22.202 5.23105 21.1626 5.23105 19.0959C5.18294 18.1599 5.49906 17.2416 6.1131 16.5337C6.4444 16.2082 6.84044 15.956 7.27552 15.7936C7.71059 15.6312 8.17495 15.5622 8.63844 15.591H9.46009V21.211C8.86923 21.7939 8.08896 22.1455 7.26099 22.202Z" fill="#171F29" fill-opacity="0.3"/>
<path d="M76.1339 1.2086V21.7548C76.1339 22.6734 76.4239 23.0722 77.0039 23.0722C77.5839 23.0722 78.0189 22.6008 78.5384 21.634H78.7318C78.4253 22.4669 77.8506 23.1743 77.0981 23.6448C76.3456 24.1152 75.4581 24.3219 74.5752 24.2325C72.0136 24.2325 70.8537 23.326 70.8537 20.6067V1.26903C70.8537 0.700989 69.9112 0.145032 69.0895 0.145032V0H77.4147V0.193376C77.1949 0.169574 76.9727 0.206573 76.7724 0.300341C76.5722 0.394109 76.4015 0.541051 76.2789 0.725161C76.1897 0.87109 76.1397 1.03764 76.1339 1.2086Z" fill="#171F29" fill-opacity="0.3"/>
</svg>
