<svg width="72" height="28" viewBox="0 0 72 28" fill="none" xmlns="http://www.w3.org/2000/svg">
<mask id="mask0_155_156" style="mask-type:luminance" maskUnits="userSpaceOnUse" x="0" y="0" width="72" height="28">
<path d="M72 0.192139H0V27.3974H72V0.192139Z" fill="white"/>
</mask>
<g mask="url(#mask0_155_156)">
<path d="M64.8635 13.4897H68.3533V13.3821C68.3533 12.1511 67.7318 11.4938 66.6681 11.4938C65.5566 11.4938 64.8874 12.2587 64.8635 13.4897ZM66.6801 10.8245C68.2816 10.8245 69.2019 11.7806 69.2019 13.5973V14.1709H64.8635C64.8755 15.5214 65.6164 16.3461 66.7757 16.3461C67.6123 16.3461 68.2099 15.88 68.4608 15.0673L69.166 15.3541C68.7955 16.4656 67.9231 17.0871 66.7159 17.0871C65.0188 17.0871 64.0268 15.9995 64.0268 13.9917C64.0268 12.0316 65.0308 10.8245 66.6801 10.8245ZM61.2935 17.3261C60.7557 18.7961 60.0984 19.334 59.1064 19.334C58.9271 19.334 58.7598 19.322 58.5805 19.2861V18.5452C58.7239 18.5691 58.8673 18.5811 58.9988 18.5811C59.7756 18.5811 60.1462 18.1508 60.433 17.3381L60.5884 16.8958L58.1981 10.9679H59.1303L60.7318 15.2346C60.8513 15.5453 60.935 15.8202 60.9947 16.0473H61.0186C61.0784 15.8202 61.162 15.5453 61.2696 15.2226L62.7277 10.9679H63.624L61.2935 17.3261ZM53.39 13.4897H56.8799V13.3821C56.8799 12.1511 56.2584 11.4938 55.1947 11.4938C54.0832 11.4938 53.4139 12.2587 53.39 13.4897ZM55.2067 10.8245C56.8082 10.8245 57.7284 11.7806 57.7284 13.5973V14.1709H53.39C53.402 15.5214 54.143 16.3461 55.3023 16.3461C56.1389 16.3461 56.7365 15.88 56.9874 15.0673L57.6926 15.3541C57.3221 16.4656 56.4496 17.0871 55.2425 17.0871C53.5453 17.0871 52.5534 15.9995 52.5534 13.9917C52.5534 12.0316 53.5574 10.8245 55.2067 10.8245ZM47.0474 13.9558C47.0474 15.5095 47.7527 16.3581 48.9119 16.3581C50.0592 16.3581 50.7644 15.5095 50.7644 13.9558C50.7644 12.4021 50.0592 11.5535 48.9119 11.5535C47.7527 11.5535 47.0474 12.4021 47.0474 13.9558ZM51.6488 13.9558C51.6488 15.9039 50.5612 17.0871 48.9119 17.0871C47.2507 17.0871 46.163 15.9039 46.163 13.9558C46.163 12.0077 47.2507 10.8245 48.9119 10.8245C50.5612 10.8245 51.6488 12.0077 51.6488 13.9558ZM44.6955 16.9437H43.8709V10.9679H44.6955V16.9437ZM44.7553 9.89228H43.8111V8.5776H44.7553V9.89228ZM37.4064 13.9558C37.4064 15.4378 38.0757 16.3461 39.1872 16.3461C40.2867 16.3461 40.9679 15.4139 40.9679 14.0873V13.8363C40.9679 12.4738 40.3106 11.5655 39.1991 11.5655C38.0757 11.5655 37.4064 12.4618 37.4064 13.9558ZM41.0038 15.6768C40.6572 16.5612 39.9401 17.0871 38.984 17.0871C37.502 17.0871 36.522 15.8202 36.522 13.9558C36.522 12.1152 37.5617 10.8245 39.0796 10.8245C39.9401 10.8245 40.5975 11.2188 40.956 12.0555V8.27881H41.7926V16.9437H41.0038V15.6768ZM34.2605 15.7126C33.9857 16.5014 33.2327 17.0871 32.3244 17.0871C30.8305 17.0871 30.2807 16.1788 30.2807 14.7565V10.9679H31.1053V14.6729C31.1053 15.8441 31.6551 16.37 32.4678 16.37C33.5554 16.37 34.2128 15.4378 34.2128 14.2307V10.9679H35.0493V16.9437H34.2605V15.7126ZM24.6027 15.3422C24.6027 15.9876 25.1046 16.3939 25.9054 16.3939C27.0169 16.3939 27.7579 15.5573 27.7579 14.3382V13.9558L26.0608 14.1948C25.0449 14.3383 24.6027 14.6849 24.6027 15.3422ZM27.7937 15.7485C27.5069 16.5852 26.742 17.0871 25.7142 17.0871C24.519 17.0871 23.7302 16.3939 23.7302 15.3661C23.7302 14.7924 23.9812 14.3263 24.4593 14.0275C24.8896 13.7765 25.4751 13.6092 26.4193 13.4897L27.746 13.3343V13.2387C27.746 12.0076 27.3157 11.5176 26.2998 11.5176C25.4034 11.5176 24.8537 11.9838 24.8058 12.8323H23.9095C23.9812 11.6013 24.9134 10.8245 26.2878 10.8245C27.8893 10.8245 28.5825 11.5655 28.5825 13.2985V14.8522C28.5825 15.7844 28.6423 16.4537 28.7737 16.9437H27.9013C27.8416 16.621 27.8057 16.1908 27.7937 15.7485Z" fill="#141316"/>
<path d="M6.34021 13.7286C6.34021 11.9074 5.70472 10.2346 4.64333 8.91981C3.54965 10.2443 2.89258 11.9427 2.89258 13.7946C2.89258 15.6159 3.52807 17.2888 4.58946 18.6035C5.68314 17.279 6.34021 15.5806 6.34021 13.7286ZM18.2151 13.7948C18.2151 11.9289 17.548 10.2188 16.4394 8.88995C15.3069 10.2254 14.6238 11.9541 14.6238 13.8422C14.6238 15.7081 15.2909 17.4182 16.3995 18.7471C17.532 17.4116 18.2151 15.683 18.2151 13.7948ZM10.5537 21.456C12.4237 21.456 14.1372 20.7861 15.4673 19.6731C14.13 18.5339 12.3963 17.8462 10.5018 17.8462C8.63186 17.8462 6.91832 18.5162 5.58824 19.6292C6.92552 20.7684 8.6593 21.456 10.5537 21.456ZM10.5461 9.59517C12.3884 9.59517 14.0789 8.94483 15.4005 7.86123C14.0801 6.78139 12.3926 6.13354 10.5538 6.13354C8.71144 6.13354 7.02089 6.78389 5.69933 7.86749C7.01972 8.94733 8.7073 9.59517 10.5461 9.59517Z" fill="#7018E0"/>
</g>
</svg>
