<svg width="104" height="25" viewBox="0 0 104 25" fill="none" xmlns="http://www.w3.org/2000/svg">
<path d="M96.6063 12.173H102.029V12.0058C102.029 10.093 101.063 9.07159 99.4104 9.07159C97.6833 9.07159 96.6435 10.2601 96.6063 12.173ZM99.429 8.03152C101.918 8.03152 103.348 9.51728 103.348 12.3401V13.2315H96.6063C96.6249 15.33 97.7762 16.6114 99.5776 16.6114C100.878 16.6114 101.806 15.8872 102.196 14.6243L103.292 15.07C102.716 16.7972 101.36 17.7629 99.4848 17.7629C96.8477 17.7629 95.3063 16.0729 95.3063 12.953C95.3063 9.90734 96.8663 8.03152 99.429 8.03152ZM91.059 18.1342C90.2233 20.4185 89.2019 21.2542 87.6605 21.2542C87.382 21.2542 87.1219 21.2356 86.8434 21.1799V20.0285C87.0663 20.0657 87.2891 20.0843 87.4934 20.0843C88.7005 20.0843 89.2763 19.4157 89.722 18.1528L89.9633 17.4656L86.2491 8.25443H87.6977L90.1862 14.8843C90.372 15.3672 90.5019 15.7943 90.5948 16.1472H90.6319C90.7247 15.7943 90.8547 15.3672 91.0219 14.8657L93.2876 8.25443H94.6803L91.059 18.1342ZM78.778 12.173H84.2008V12.0058C84.2008 10.093 83.2351 9.07159 81.5823 9.07159C79.8551 9.07159 78.8152 10.2601 78.778 12.173ZM81.6009 8.03152C84.0894 8.03152 85.5193 9.51728 85.5193 12.3401V13.2315H78.778C78.7966 15.33 79.9481 16.6114 81.7494 16.6114C83.0495 16.6114 83.978 15.8872 84.3679 14.6243L85.4636 15.07C84.888 16.7972 83.5322 17.7629 81.6565 17.7629C79.0194 17.7629 77.478 16.0729 77.478 12.953C77.478 9.90734 79.0381 8.03152 81.6009 8.03152ZM68.9225 12.8972C68.9225 15.3114 70.0183 16.63 71.8197 16.63C73.6025 16.63 74.6982 15.3114 74.6982 12.8972C74.6982 10.483 73.6025 9.1644 71.8197 9.1644C70.0183 9.1644 68.9225 10.483 68.9225 12.8972ZM76.0724 12.8972C76.0724 15.9242 74.3824 17.7629 71.8197 17.7629C69.2383 17.7629 67.5483 15.9242 67.5483 12.8972C67.5483 9.87017 69.2383 8.03152 71.8197 8.03152C74.3824 8.03152 76.0724 9.87017 76.0724 12.8972ZM65.2679 17.54H63.9866V8.25443H65.2679V17.54ZM65.3609 6.58305H63.8937V4.54021H65.3609V6.58305ZM53.9416 12.8972C53.9416 15.2 54.9815 16.6114 56.7087 16.6114C58.4172 16.6114 59.4758 15.163 59.4758 13.1015V12.7115C59.4758 10.5944 58.4544 9.18298 56.7273 9.18298C54.9815 9.18298 53.9416 10.5758 53.9416 12.8972ZM59.5315 15.5715C58.9929 16.9457 57.8786 17.7629 56.393 17.7629C54.0902 17.7629 52.5673 15.7943 52.5673 12.8972C52.5673 10.0372 54.183 8.03152 56.5415 8.03152C57.8786 8.03152 58.9002 8.64436 59.4573 9.94439V4.07593H60.7572V17.54H59.5315V15.5715ZM49.0533 15.6271C48.6262 16.8528 47.4563 17.7629 46.0449 17.7629C43.7235 17.7629 42.8691 16.3515 42.8691 14.1415V8.25443H44.1506V14.0115C44.1506 15.8314 45.0048 16.6486 46.2676 16.6486C47.9576 16.6486 48.9791 15.2 48.9791 13.3243V8.25443H50.279V17.54H49.0533V15.6271ZM34.0463 15.0514C34.0463 16.0543 34.8263 16.6858 36.0705 16.6858C37.7977 16.6858 38.9491 15.3857 38.9491 13.4915V12.8972L36.312 13.2687C34.7335 13.4916 34.0463 14.0301 34.0463 15.0514ZM39.0048 15.6829C38.5591 16.9829 37.3706 17.7629 35.7734 17.7629C33.9163 17.7629 32.6906 16.6858 32.6906 15.0886C32.6906 14.1972 33.0807 13.4729 33.8235 13.0086C34.4921 12.6187 35.4019 12.3587 36.8691 12.173L38.9305 11.9315V11.7829C38.9305 9.87005 38.2619 9.10864 36.6834 9.10864C35.2905 9.10864 34.4363 9.833 34.362 11.1515H32.9692C33.0806 9.23862 34.5291 8.03152 36.6648 8.03152C39.1533 8.03152 40.2305 9.18298 40.2305 11.8758V14.29C40.2305 15.7386 40.3233 16.7786 40.5276 17.54H39.1719C39.0791 17.0385 39.0234 16.3701 39.0048 15.6829Z" fill="#141316"/>
<path d="M5.66873 12.5442C5.66873 9.71422 4.68126 7.11489 3.03199 5.07193C1.33255 7.13008 0.311554 9.76912 0.311554 12.6467C0.311554 15.4768 1.29902 18.0762 2.94829 20.1192C4.64773 18.061 5.66873 15.4218 5.66873 12.5442ZM24.1207 12.647C24.1207 9.74762 23.0841 7.09036 21.3615 5.02552C19.6018 7.10068 18.5403 9.78674 18.5403 12.7207C18.5403 15.6201 19.5769 18.2774 21.2995 20.3422C23.0592 18.267 24.1207 15.581 24.1207 12.647ZM12.216 24.5515C15.1217 24.5515 17.7843 23.5105 19.8511 21.7811C17.7731 20.0109 15.079 18.9424 12.1353 18.9424C9.22965 18.9424 6.56703 19.9835 4.50026 21.7129C6.57821 23.4831 9.27229 24.5515 12.216 24.5515ZM12.2041 6.12135C15.0669 6.12135 17.6937 5.1108 19.7472 3.42703C17.6955 1.7491 15.0733 0.742432 12.2161 0.742432C9.35331 0.742432 6.72641 1.75298 4.67287 3.43675C6.72459 5.11468 9.34687 6.12135 12.2041 6.12135Z" fill="#7018E0"/>
</svg>
