<svg width="22" height="18" viewBox="0 0 22 18" fill="none" xmlns="http://www.w3.org/2000/svg">
<path fill-rule="evenodd" clip-rule="evenodd" d="M16.2505 8.5709C16.3027 8.59198 16.3579 8.61427 16.4131 8.64186C17.9707 8.89821 19.1219 10.2319 19.1481 11.8101C19.1481 14.5441 15.2612 17.9998 9.21422 17.9998C4.60763 17.9998 0 15.696 0 12.0965C0 10.226 1.29563 7.92219 3.31094 5.90688C6.04699 3.02709 9.35584 1.87309 10.5098 3.02709C11.0344 3.8112 11.0344 4.83426 10.5098 5.61837C10.3661 6.19328 11.0858 5.90582 11.0858 5.90582C13.2459 4.89763 15.2612 4.89763 15.9809 5.90582C16.4131 6.48177 16.2683 7.20251 15.9809 8.06591C15.8648 8.41517 16.0308 8.48221 16.2505 8.5709ZM2.15922 12.8163C2.44772 15.2638 5.61494 16.9917 9.21439 16.5594C12.8138 16.1283 15.5499 13.9692 15.4041 11.6644C15.1156 9.21682 11.9483 7.48896 8.34888 7.92119C4.60676 8.20864 1.87177 10.5083 2.15922 12.8163Z" fill="#FEEF50"/>
<path d="M20.4448 1.87539C19.0153 0.339179 16.8758 -0.319242 14.83 0.147495C14.4026 0.299575 14.1153 0.702028 14.1103 1.15569C14.3201 1.5869 14.7936 1.82321 15.2643 1.73163C16.6995 1.41828 18.1911 1.91547 19.1512 3.02726C20.123 4.12833 20.4503 5.65647 20.0146 7.05894C19.9116 7.49029 20.1695 7.92556 20.5973 8.0423C21.0252 8.15904 21.4685 7.9151 21.5988 7.49119C22.2828 5.55025 21.8389 3.39022 20.4448 1.87641" fill="#FEEF50"/>
<path d="M18.2858 3.89075C17.5628 3.18525 16.5478 2.86483 15.5508 3.02733C15.2857 3.0705 15.0653 3.25497 14.9761 3.50836C14.8869 3.76174 14.9432 4.04359 15.1228 4.24329C15.3025 4.44299 15.5768 4.52867 15.8382 4.46669C16.3181 4.31474 16.8413 4.48928 17.1339 4.89894C17.4308 5.26025 17.538 5.74138 17.4224 6.19455C17.3081 6.55075 17.5017 6.93255 17.8566 7.05093C18.2114 7.16931 18.5954 6.98022 18.718 6.6268C19.151 5.71278 18.9795 4.62676 18.2858 3.89075Z" fill="#FEEF50"/>
<path fill-rule="evenodd" clip-rule="evenodd" d="M9.5017 9.6492C7.73067 9.2462 5.90759 10.0695 5.03884 11.6645C4.67849 12.4019 4.66292 13.261 4.9963 14.0109C5.32969 14.7609 5.97786 15.3249 6.7667 15.5514C8.63139 16.1571 10.6574 15.2977 11.5181 13.5361C11.8701 12.7581 11.846 11.8616 11.4528 11.1035C11.0595 10.3455 10.3405 9.8095 9.5017 9.6492ZM8.20587 13.6808C7.85495 14.2778 7.11695 14.5238 6.47799 14.2567C6.21575 14.1377 6.01776 13.9111 5.93492 13.6352C5.85209 13.3594 5.8925 13.0612 6.04577 12.8174C6.37777 12.283 7.03222 12.045 7.62991 12.2414C7.92595 12.3185 8.16777 12.5316 8.28142 12.8156C8.39507 13.0996 8.36703 13.4207 8.20587 13.6808ZM8.78414 12.5289C9.0168 12.5596 9.24478 12.4459 9.36011 12.2415L9.35801 12.2404C9.50105 11.9543 9.35938 11.8106 9.2184 11.6676L9.21637 11.6655C8.99985 11.7012 8.79913 11.8014 8.64042 11.953C8.4967 12.2415 8.4967 12.3852 8.78414 12.5289Z" fill="#FEEF50"/>
</svg>
