<svg width="72" height="72" viewBox="0 0 72 72" fill="none" xmlns="http://www.w3.org/2000/svg">
<path d="M35.83 71.66C55.62 71.66 71.66 55.62 71.66 35.83C71.66 16.04 55.62 0 35.83 0C16.04 0 0 16.04 0 35.83C0 55.62 16.04 71.66 35.83 71.66Z" fill="#CE1432"/>
<path d="M59.64 31.28C59.64 25.21 58.13 22.66 56.7 22.29C56.06 22.2 55.59 22.33 55.29 22.68C54.68 23.41 54.98 24.92 55.35 26.06C55.94 28.02 55.93 29.39 55.33 29.72C54.46 30.2 53.2 29.92 49.88 24.71C49.01 23.17 47.99 22.33 47.01 22.35C46.25 22.37 45.56 22.91 45.06 23.87C43.52 26.86 43.47 30.76 43.47 30.79C43.47 39.48 46.34 39.72 46.46 39.73C47.12 39.76 47.62 39.58 47.91 39.19C48.29 38.69 48.3 37.89 47.94 36.82C47.41 35.25 47.48 33.19 48.36 32.78C49.28 32.36 51.03 33.86 52.83 36.6L52.98 36.81C53.52 37.55 54.95 39.53 56.41 39.58C58.52 39.58 59.62 35.41 59.62 31.28M40.94 31.77C41.65 25.4 38.87 22.91 37.84 22.91C35.73 22.91 37.41 26.13 37.34 28.74C37.25 32.03 35.68 33.01 33.83 32.88C31.98 32.75 30.79 31.31 30.8 28.88C30.8 27.53 31.61 25.34 31.75 24.85C32.1 23.68 31.84 22.51 30.65 22.46C28.82 22.25 26.34 26.96 26.37 31.42C26.4 35.99 28.97 39.93 33.37 39.97C36.68 40 40.22 38.15 40.93 31.77M24.75 24C24.83 21.79 20.54 21.67 18.26 21.87C15.91 22.08 13.29 23.38 12.57 24.08C11.58 25.04 12.06 26.11 12.06 26.11C13.97 30.63 12.93 34.12 12.59 35.9C12.22 37.79 12.76 38.03 14.66 38.92C15.61 39.36 17.01 39.79 17.01 39.79C19.31 40.41 18.79 38.37 18.69 37.85C17.74 32.72 21.86 33.71 22.42 33.76C23.44 33.84 24.02 33 24.19 31.81C24.6 28.89 22.18 29.57 21.59 29.61C19.04 29.8 18.72 28.33 18.77 27.71C18.96 25.6 21.95 25.47 22.89 25.35C23.83 25.23 24.71 24.71 24.74 24" fill="white"/>
<path d="M42.09 42.99C39.99 42.99 38.77 44.63 38.77 46.47C38.77 48.31 40.01 49.93 42.11 49.93C44.21 49.93 45.42 48.28 45.42 46.45C45.42 44.62 44.18 42.99 42.09 42.99ZM44.45 46.47C44.45 47.93 43.63 49.18 42.09 49.18C40.55 49.18 39.72 47.91 39.72 46.45C39.72 44.99 40.56 43.74 42.11 43.74C43.66 43.74 44.45 45.01 44.45 46.47ZM25.11 46.44C25.11 48.25 26.29 49.93 28.41 49.93C29.36 49.93 30.11 49.57 30.45 49.25L30.05 48.61C29.67 48.93 29.15 49.17 28.43 49.17C26.83 49.17 26.06 47.85 26.06 46.42C26.06 44.99 26.85 43.74 28.41 43.74C29.03 43.74 29.51 43.91 29.89 44.17L30.33 43.5C29.84 43.18 29.28 42.99 28.43 42.99C26.33 42.99 25.11 44.63 25.11 46.44ZM12.47 43.11V49.81H13.39V46.67H15.71V45.93H13.39V43.88H16.06V43.11H12.47ZM19.98 43.11L17.41 49.81H18.32L18.89 48.23H21.87L22.45 49.81H23.44L20.85 43.11H19.97H19.98ZM19.97 45.31C20.18 44.76 20.37 44.15 20.37 44.15H20.39C20.39 44.15 20.58 44.74 20.79 45.31L21.58 47.47H19.16L19.96 45.31H19.97ZM36.98 43.11H32.28V43.88H34.17V49.82H35.09V43.88H36.98V43.11ZM50 43.11H48.1V49.81H49.02V46.78H49.12C49.55 46.78 49.66 46.86 50.4 47.91L51.73 49.81H52.78L51.19 47.56C50.81 47.02 50.62 46.81 50.48 46.7V46.68C51.5 46.6 52.29 46.04 52.29 44.92C52.29 43.8 51.46 43.11 50.02 43.11M49.91 43.85C50.9 43.85 51.36 44.23 51.36 44.95C51.36 45.67 50.93 46.07 49.97 46.07H49.01V43.86H49.91V43.85ZM55.27 43.11H54.26L56.49 47.28V49.82H57.4V47.28L59.58 43.11H58.7L56.98 46.42H56.97L55.25 43.11H55.27Z" fill="white"/>
</svg>
