<svg width="67" height="48" viewBox="0 0 67 48" fill="none" xmlns="http://www.w3.org/2000/svg">
<g clip-path="url(#clip0_598_169)">
<path d="M35.1662 37.6894C36.0497 37.6608 36.9347 37.6608 37.8183 37.6894C38.5088 37.6951 39.1322 38.1212 39.5139 38.6788C39.8284 39.1591 39.8441 39.7696 39.7626 40.3215C39.6912 40.8848 39.2651 41.3208 38.8233 41.6354C38.0241 42.13 37.0605 41.9027 36.1755 41.9585C36.0926 42.8892 36.1698 43.8271 36.1412 44.7607C35.8138 44.7893 35.4864 44.7893 35.1605 44.7607C35.1605 42.4031 35.1476 40.0455 35.1662 37.688M36.1813 38.6745C36.1055 39.4365 36.1255 40.2071 36.1655 40.972C36.7803 40.9763 37.4008 41.0206 38.0113 40.9448C38.8448 40.6603 39.0549 39.4622 38.3844 38.9061C37.7325 38.4872 36.909 38.7288 36.1813 38.673M49.9521 39.5938C49.9664 39.1548 49.9106 38.7074 50.0107 38.277C50.3281 38.2699 50.6469 38.2713 50.9657 38.2927C50.9943 38.7231 50.9657 39.1534 50.9943 39.5838C51.3246 39.761 51.7592 39.6252 52.1323 39.681C52.1495 39.9826 52.1495 40.2857 52.1381 40.5903C51.7535 40.6074 51.3675 40.616 50.9857 40.6675C50.98 41.5839 50.9757 42.5018 50.9886 43.4196C50.9772 43.657 51.0887 43.9415 51.3446 43.9986C51.6277 44.0258 51.9136 43.9715 52.1981 43.9615C52.2324 44.2717 52.1981 44.5848 52.1195 44.8865C51.6605 44.9136 51.183 44.9766 50.7355 44.8465C50.3781 44.6277 50.0078 44.3117 49.9907 43.86C49.8906 42.802 50.0207 41.7369 49.9249 40.6789C49.6318 40.6317 49.3402 40.5903 49.0485 40.5474C49.0456 40.2629 49.0528 39.9798 49.0699 39.6967C49.363 39.6667 49.6704 39.6967 49.9521 39.5938ZM40.6162 40.5945C41.4082 39.1248 43.9102 39.1162 44.7065 40.5945C44.931 41.0821 44.8838 41.6339 44.8895 42.1572C44.8738 43.0293 44.911 43.9029 44.8724 44.775C44.615 44.7907 44.3591 44.7893 44.1032 44.7678C44.0203 44.6477 43.9402 44.5305 43.8573 44.4133C43.2754 44.7793 42.5906 45.1753 41.8814 44.9337C40.8549 44.7793 40.0657 43.6041 40.5175 42.6176C40.7992 41.8541 41.6341 41.521 42.3861 41.4652C42.9194 41.4252 43.4312 41.6068 43.9588 41.6397C43.9073 41.0206 43.4455 40.4258 42.7764 40.4659C42.1888 40.3672 41.6984 40.7232 41.3124 41.1192C41.0508 40.9877 40.8249 40.7976 40.6162 40.596M41.4411 43.2981C41.4826 43.8156 42.0444 44.0987 42.5162 44.0701C43.2511 44.0358 43.8716 43.3939 43.9088 42.6633C43.5041 42.3002 42.9151 42.2816 42.4019 42.3245C41.9058 42.3488 41.3782 42.7605 41.4425 43.2981M53.9766 40.0784C54.4413 39.7996 54.9117 39.4451 55.4878 39.508C56.4686 39.4151 57.3579 40.29 57.365 41.2565C57.3779 42.4231 57.3707 43.5898 57.3707 44.7564C57.0433 44.7907 56.7145 44.795 56.3871 44.7635C56.3456 43.6055 56.4486 42.4403 56.3342 41.2865C56.277 40.5445 55.362 40.3143 54.7658 40.5431C54.2426 40.769 53.9452 41.3408 53.9452 41.8941C53.9237 42.8477 53.9566 43.8028 53.9395 44.7578C53.6006 44.7936 53.2618 44.7921 52.9244 44.7621C52.9044 43.0693 52.9029 41.3766 52.9244 39.6867C53.2332 39.6581 53.5449 39.651 53.8523 39.7024C53.8823 39.7968 53.9452 39.9855 53.9766 40.0799M59.1521 39.9798C60.1157 39.2335 61.6355 39.3664 62.4461 40.2829C62.9351 40.8833 63.1739 41.6811 63.0595 42.4531C61.767 42.4946 60.4746 42.4474 59.1822 42.4717C59.0663 43.4139 60.0428 44.1874 60.9407 44.0258C61.4739 44.0144 61.7899 43.5497 62.1473 43.2266C62.4547 43.1894 62.7121 43.4225 62.9794 43.5411C62.4604 44.8336 60.7577 45.3554 59.5539 44.7235C57.7682 43.9143 57.6295 41.1164 59.1521 39.9812M59.1736 41.6068C60.11 41.6439 61.0465 41.6439 61.9829 41.6068C61.9315 40.9291 61.2495 40.3815 60.5732 40.463C59.887 40.423 59.3837 41.0134 59.175 41.6068M65.7158 39.5766C66.0776 39.4551 66.4679 39.5166 66.8353 39.5823C66.8667 39.924 66.8725 40.2686 66.8653 40.6131C66.4922 40.5946 66.1104 40.493 65.7416 40.5888C65.2054 40.7718 64.8637 41.338 64.8709 41.8927C64.8494 42.842 64.8823 43.7942 64.8666 44.7449C64.5321 44.7907 64.1932 44.7936 63.8601 44.7578C63.8401 43.0665 63.8401 41.3737 63.8601 39.6838C64.1217 39.6624 64.3862 39.6552 64.6507 39.6624C64.7351 39.7911 64.8237 39.9169 64.9166 40.0413C65.184 39.8854 65.4356 39.701 65.7173 39.5752M46.7124 40.1857C47.0784 39.9798 47.4186 39.661 47.8604 39.6567C48.0935 39.6409 48.3251 39.6567 48.5581 39.6681C48.5753 39.9784 48.5767 40.2915 48.5681 40.6046C48.1221 40.6746 47.5974 40.5674 47.2342 40.8976C46.994 41.1307 46.7638 41.4295 46.7567 41.7812C46.7181 42.812 46.7781 43.8442 46.7353 44.8765C46.4136 44.9036 46.089 44.9065 45.7688 44.8879C45.7416 43.1923 45.7473 41.4924 45.7659 39.7968C46.0447 39.7768 46.3264 39.771 46.6052 39.8182C46.6323 39.9112 46.6838 40.0956 46.7109 40.1871" fill="#606469"/>
<path d="M35.1662 37.6894C36.0497 37.6608 36.9347 37.6608 37.8183 37.6894C38.5088 37.6951 39.1322 38.1212 39.5139 38.6788C39.8284 39.1591 39.8441 39.7696 39.7626 40.3215C39.6912 40.8848 39.2651 41.3208 38.8233 41.6354C38.0241 42.13 37.0605 41.9027 36.1755 41.9585C36.0926 42.8892 36.1698 43.8271 36.1412 44.7607C35.8138 44.7893 35.4864 44.7893 35.1605 44.7607C35.1605 42.4031 35.1476 40.0455 35.1662 37.688M36.1813 38.6745C36.1055 39.4365 36.1255 40.2071 36.1655 40.972C36.7803 40.9763 37.4008 41.0206 38.0113 40.9448C38.8448 40.6603 39.0549 39.4622 38.3844 38.9061C37.7325 38.4872 36.909 38.7288 36.1813 38.673M40.6162 40.5945C41.4082 39.1248 43.9102 39.1162 44.7065 40.5945C44.931 41.0821 44.8838 41.6339 44.8895 42.1572C44.8738 43.0293 44.911 43.9029 44.8724 44.775C44.615 44.7907 44.3591 44.7893 44.1032 44.7678C44.0203 44.6477 43.9402 44.5305 43.8573 44.4133C43.2754 44.7793 42.5906 45.1753 41.8814 44.9337C40.8549 44.7793 40.0657 43.6041 40.5175 42.6176C40.7992 41.8541 41.6341 41.521 42.3861 41.4652C42.9194 41.4252 43.4312 41.6068 43.9588 41.6397C43.9073 41.0206 43.4455 40.4258 42.7764 40.4659C42.1888 40.3672 41.6984 40.7232 41.3124 41.1192C41.0508 40.9877 40.8249 40.7976 40.6162 40.596M41.4411 43.2981C41.4826 43.8156 42.0444 44.0987 42.5162 44.0701C43.2511 44.0358 43.8716 43.3939 43.9088 42.6633C43.5041 42.3002 42.9151 42.2816 42.4019 42.3245C41.9058 42.3488 41.3782 42.7605 41.4425 43.2981M53.9766 40.0784C54.4413 39.7996 54.9117 39.4451 55.4878 39.508C56.4686 39.4151 57.3579 40.29 57.365 41.2565C57.3779 42.4231 57.3707 43.5898 57.3707 44.7564C57.0433 44.7907 56.7145 44.795 56.3871 44.7635C56.3456 43.6055 56.4486 42.4403 56.3342 41.2865C56.277 40.5445 55.362 40.3143 54.7658 40.5431C54.2426 40.769 53.9452 41.3408 53.9452 41.8941C53.9237 42.8477 53.9566 43.8028 53.9395 44.7578C53.6006 44.7936 53.2618 44.7921 52.9244 44.7621C52.9044 43.0693 52.9029 41.3766 52.9244 39.6867C53.2332 39.6581 53.5449 39.651 53.8523 39.7024C53.8823 39.7968 53.9452 39.9855 53.9766 40.0799M59.1521 39.9798C60.1157 39.2335 61.6355 39.3664 62.4461 40.2829C62.9351 40.8833 63.1739 41.6811 63.0595 42.4531C61.767 42.4946 60.4746 42.4474 59.1822 42.4717C59.0663 43.4139 60.0428 44.1874 60.9407 44.0258C61.4739 44.0144 61.7899 43.5497 62.1473 43.2266C62.4547 43.1894 62.7121 43.4225 62.9794 43.5411C62.4604 44.8336 60.7577 45.3554 59.5539 44.7235C57.7682 43.9143 57.6295 41.1164 59.1521 39.9812M59.1736 41.6068C60.11 41.6439 61.0465 41.6439 61.9829 41.6068C61.9315 40.9291 61.2495 40.3815 60.5732 40.463C59.887 40.423 59.3837 41.0134 59.175 41.6068M65.7158 39.5766C66.0776 39.4551 66.4679 39.5166 66.8353 39.5823C66.8667 39.924 66.8725 40.2686 66.8653 40.6131C66.4922 40.5946 66.1104 40.493 65.7416 40.5888C65.2054 40.7718 64.8637 41.338 64.8709 41.8927C64.8494 42.842 64.8823 43.7942 64.8666 44.7449C64.5321 44.7907 64.1932 44.7936 63.8601 44.7578C63.8401 43.0665 63.8401 41.3737 63.8601 39.6838C64.1217 39.6624 64.3862 39.6552 64.6507 39.6624C64.7351 39.7911 64.8237 39.9169 64.9166 40.0413C65.184 39.8854 65.4356 39.701 65.7173 39.5752M49.9521 39.5938C49.9664 39.1548 49.9106 38.7074 50.0107 38.277C50.3281 38.2699 50.6469 38.2713 50.9657 38.2927C50.9943 38.7231 50.9657 39.1534 50.9943 39.5838C51.3246 39.761 51.7592 39.6252 52.1323 39.681C52.1495 39.9826 52.1495 40.2857 52.1381 40.5903C51.7535 40.6074 51.3675 40.616 50.9857 40.6675C50.98 41.5839 50.9757 42.5018 50.9886 43.4196C50.9772 43.657 51.0887 43.9415 51.3446 43.9986C51.6277 44.0258 51.9136 43.9715 52.1981 43.9615C52.2324 44.2717 52.1981 44.5848 52.1195 44.8865C51.6605 44.9136 51.183 44.9766 50.7355 44.8465C50.3781 44.6277 50.0078 44.3117 49.9907 43.86C49.8906 42.802 50.0207 41.7369 49.9249 40.6789C49.6318 40.6317 49.3402 40.5903 49.0485 40.5474C49.0456 40.2629 49.0528 39.9798 49.0699 39.6967C49.363 39.6667 49.6704 39.6967 49.9521 39.5938ZM46.7124 40.1857C47.0784 39.9798 47.4186 39.661 47.8604 39.6567C48.0935 39.6409 48.3251 39.6567 48.5581 39.6681C48.5753 39.9784 48.5767 40.2915 48.5681 40.6046C48.1221 40.6746 47.5974 40.5674 47.2342 40.8976C46.994 41.1307 46.7638 41.4295 46.7567 41.7812C46.7181 42.812 46.7781 43.8442 46.7353 44.8765C46.4136 44.9036 46.089 44.9065 45.7688 44.8879C45.7416 43.1923 45.7473 41.4924 45.7659 39.7968C46.0447 39.7768 46.3264 39.771 46.6052 39.8182C46.6323 39.9112 46.6838 40.0956 46.7109 40.1871L46.7124 40.1857Z" stroke="#5F6368" stroke-width="0.0357423" stroke-miterlimit="10"/>
<path d="M23.2454 4.31924C26.0819 1.39838 30.2123 -0.142832 34.2612 0.0101448C36.6345 0.168841 39.0078 0.786468 41.0365 2.05317C41.8772 2.5793 42.7178 3.1426 43.3855 3.88318C42.7464 4.63234 41.9973 5.27999 41.3196 5.99198C40.5976 6.68681 39.9242 7.43311 39.1808 8.1022C38.017 7.04566 36.5759 6.24646 35.0032 6.0363C33.372 5.84472 31.6492 5.92478 30.1523 6.6625C28.4896 7.41309 27.087 8.70839 26.1663 10.2782C25.8489 10.8086 25.6416 11.3948 25.3785 11.9524C23.7187 10.73 22.1274 9.42181 20.4833 8.17941C21.1295 6.72541 22.1131 5.42868 23.244 4.31781" fill="#EA4335"/>
<path d="M20.4847 8.18042C22.1288 9.42282 23.7201 10.731 25.38 11.9534C25.1326 13.1429 24.7623 14.361 24.9896 15.5862C25.0583 16.2596 25.2599 16.9101 25.3814 17.5749C24.0875 18.5957 22.7736 19.5908 21.4912 20.6259C21.1681 20.8847 20.8149 21.1048 20.4504 21.3021C19.5711 19.525 19.0107 17.5649 18.9535 15.5748C18.9006 14.2709 18.9449 12.9499 19.2237 11.6732C19.5239 10.4722 19.8599 9.25555 20.4861 8.18042" fill="#FBBC04"/>
<path d="M33.7236 12.0636C37.7568 12.0636 41.79 12.0636 45.8231 12.0636C46.3378 12.0665 46.8568 12.025 47.3686 12.1094C48.2593 16.4928 47.29 21.3509 44.3763 24.8093C44.0589 25.1882 43.7529 25.5985 43.314 25.8458C41.7028 24.6621 40.163 23.3868 38.5689 22.1801C39.9657 21.1307 41.0394 19.5566 41.2281 17.7953C38.7118 17.7495 36.1942 17.8124 33.6793 17.7667C33.6093 16.2783 33.6736 14.7843 33.6493 13.2932C33.6636 12.8843 33.595 12.4596 33.7236 12.0636Z" fill="#4284F4"/>
<path d="M21.4913 20.6262C22.7737 19.5896 24.089 18.596 25.3814 17.5752C25.7003 18.1671 25.9004 18.8176 26.2721 19.3809C27.4302 21.2838 29.3274 22.7264 31.4805 23.3083C32.986 23.66 34.5672 23.6142 36.0727 23.2797C36.962 23.0523 37.774 22.6206 38.5718 22.1802C40.1659 23.3869 41.7057 24.6622 43.3169 25.846C42.9295 26.3406 42.4005 26.6909 41.893 27.0498C39.4925 28.7482 36.5202 29.4245 33.6179 29.4974C30.6899 29.4374 27.7533 28.6053 25.3371 26.924C23.2612 25.5128 21.5627 23.5527 20.4504 21.3024C20.815 21.1051 21.1696 20.8849 21.4913 20.6262Z" fill="#34A853"/>
<path d="M1.58707 38.23C2.6236 37.4108 4.1019 37.355 5.30856 37.7954C5.74032 37.9998 6.23214 38.2443 6.43658 38.7061C6.23214 38.9306 6.01768 39.1465 5.78464 39.3409C5.43437 39.0578 5.08553 38.7533 4.6509 38.6103C3.58149 38.2944 2.31049 38.6189 1.65283 39.5582C1.09525 40.2073 1.07238 41.1209 1.18818 41.9272C1.42837 43.1882 2.72224 44.1146 3.99324 44.0017C5.13985 44.0117 6.27217 43.0538 6.26931 41.8714C5.44152 41.81 4.6123 41.8757 3.78308 41.8386C3.6544 41.5784 3.66441 41.2838 3.71874 41.0079C4.88108 40.8907 6.05915 40.9707 7.22863 40.9665C7.35159 42.0044 7.19289 43.1739 6.40656 43.9288C5.12413 45.2956 2.79516 45.3127 1.39692 44.1161C0.51194 43.3612 -0.00131899 42.1803 0.0816031 41.0179C0.140221 39.9242 0.717816 38.8862 1.5885 38.2314M25.543 37.721C25.8732 37.661 26.2107 37.6624 26.5466 37.681C26.591 40.0257 26.5552 42.3718 26.5638 44.718C26.2393 44.8395 25.8875 44.7737 25.5516 44.7623C25.5258 42.4147 25.543 40.0672 25.543 37.721ZM9.88929 39.5754C10.6199 39.4181 11.4291 39.5024 12.0481 39.9514C13.2548 40.7306 13.5765 42.5119 12.823 43.7115C12.377 44.5564 11.3948 44.9939 10.4712 45.001C9.84783 44.9253 9.20161 44.7208 8.75269 44.2647C7.99638 43.547 7.75762 42.3818 8.055 41.3982C8.25801 40.4989 9.02433 39.8227 9.89072 39.5754M10.0122 40.549C9.41463 40.7477 9.01432 41.3525 8.98287 41.9701C8.92139 42.5906 9.04291 43.2968 9.57476 43.6929C10.384 44.412 11.8408 43.9574 12.1053 42.9065C12.2368 42.2432 12.254 41.4197 11.6979 40.935C11.2961 40.4503 10.5856 40.366 10.0137 40.5475M15.6224 39.5911C16.2915 39.441 17.0406 39.461 17.6382 39.827C19.0465 40.5504 19.4296 42.5891 18.5246 43.8458C18.0586 44.5864 17.1764 44.9825 16.3229 45.0039C15.5137 44.9424 14.6616 44.5936 14.2127 43.8845C13.758 43.2883 13.6837 42.4977 13.7609 41.7742C13.8567 40.7534 14.663 39.8899 15.6224 39.5897M15.8525 40.5347C14.5129 40.9464 14.3428 43.0109 15.4565 43.7686C16.0055 44.1447 16.8419 44.1461 17.3437 43.6843C18.1643 43.0452 18.1987 41.707 17.5267 40.9493C17.1235 40.4789 16.4273 40.3688 15.854 40.5333M19.6169 41.3839C19.8828 40.3174 20.9079 39.3981 22.0488 39.511C22.6064 39.471 23.0539 39.8356 23.5057 40.0986C23.55 39.9571 23.5957 39.8155 23.6401 39.6769C23.9374 39.6583 24.2348 39.6569 24.5322 39.674C24.5651 41.3081 24.5365 42.9437 24.5465 44.5793C24.5665 45.3828 24.2305 46.2477 23.53 46.6881C22.9138 47.0841 22.1418 47.0913 21.4369 47.0112C20.6692 46.9111 19.9786 46.3349 19.7499 45.5929C19.9886 45.4128 20.2646 45.1798 20.5862 45.2412C20.8607 45.52 21.0909 45.8617 21.4512 46.0419C22.1017 46.3593 22.9438 46.0933 23.3527 45.51C23.5857 45.1697 23.5672 44.7423 23.5729 44.3477C23.0382 44.6879 22.4506 45.0682 21.7872 44.991C21.1267 44.8852 20.4261 44.6107 20.0515 44.0246C19.4983 43.2783 19.3867 42.2689 19.6183 41.3839M21.4598 40.5661C20.3489 41.0851 20.2059 42.7393 20.9851 43.6028C21.4226 44.0789 22.1918 44.1675 22.7508 43.8659C23.8474 43.1925 23.8717 41.351 22.7937 40.6505C22.3905 40.4275 21.8858 40.4032 21.4584 40.5661M28.125 40.2302C28.5897 39.7469 29.2559 39.4538 29.9336 39.511C30.78 39.471 31.5706 40.0043 31.9966 40.712C32.2897 41.2224 32.3069 41.8328 32.2954 42.4061C31.0216 42.562 29.7234 42.4119 28.441 42.4776C28.3295 43.4455 29.3646 44.2419 30.2838 44.0117C30.8071 43.9588 31.1016 43.4927 31.4162 43.1324C31.6849 43.2439 31.9466 43.3698 32.2082 43.4956C32.0324 44.2419 31.2803 44.7337 30.5698 44.9153C29.8149 45.1469 29.0043 44.8952 28.3652 44.4778C27.6761 43.9774 27.4159 43.0938 27.333 42.2861C27.3887 41.5541 27.576 40.7577 28.1279 40.233M29.2345 40.5862C28.7927 40.742 28.594 41.2124 28.4596 41.6241C29.3874 41.6341 30.3167 41.6413 31.246 41.6184C31.146 41.3167 31.0673 40.9793 30.81 40.7692C30.3796 40.4074 29.7391 40.386 29.2345 40.5876" fill="#606469"/>
<path d="M1.58707 38.23C2.6236 37.4108 4.1019 37.355 5.30856 37.7954C5.74032 37.9998 6.23214 38.2443 6.43658 38.7061C6.23214 38.9306 6.01768 39.1465 5.78464 39.3409C5.43437 39.0578 5.08553 38.7533 4.6509 38.6103C3.58149 38.2944 2.31049 38.6189 1.65283 39.5582C1.09525 40.2073 1.07238 41.1209 1.18818 41.9272C1.42837 43.1882 2.72224 44.1146 3.99324 44.0017C5.13985 44.0117 6.27217 43.0538 6.26931 41.8714C5.44152 41.81 4.6123 41.8757 3.78308 41.8386C3.6544 41.5784 3.66441 41.2838 3.71874 41.0079C4.88108 40.8907 6.05915 40.9707 7.22863 40.9665C7.35159 42.0044 7.19289 43.1739 6.40656 43.9288C5.12413 45.2956 2.79516 45.3127 1.39692 44.1161C0.51194 43.3612 -0.00131899 42.1803 0.0816031 41.0179C0.140221 39.9242 0.717816 38.8862 1.5885 38.2314M9.88929 39.5754C10.6199 39.4181 11.4291 39.5024 12.0481 39.9514C13.2548 40.7306 13.5765 42.5119 12.823 43.7115C12.377 44.5564 11.3948 44.9939 10.4712 45.001C9.84783 44.9253 9.20161 44.7208 8.75269 44.2647C7.99638 43.547 7.75762 42.3818 8.055 41.3982C8.25801 40.4989 9.02433 39.8227 9.89072 39.5754M10.0122 40.549C9.41463 40.7477 9.01432 41.3525 8.98287 41.9701C8.92139 42.5906 9.04291 43.2968 9.57476 43.6929C10.384 44.412 11.8408 43.9574 12.1053 42.9065C12.2368 42.2432 12.254 41.4197 11.6979 40.935C11.2961 40.4503 10.5856 40.366 10.0137 40.5475M15.6224 39.5911C16.2915 39.441 17.0406 39.461 17.6382 39.827C19.0465 40.5504 19.4296 42.5891 18.5246 43.8458C18.0586 44.5864 17.1764 44.9825 16.3229 45.0039C15.5137 44.9424 14.6616 44.5936 14.2127 43.8845C13.758 43.2883 13.6837 42.4977 13.7609 41.7742C13.8567 40.7534 14.663 39.8899 15.6224 39.5897M15.8525 40.5347C14.5129 40.9464 14.3428 43.0109 15.4565 43.7686C16.0055 44.1447 16.8419 44.1461 17.3437 43.6843C18.1643 43.0452 18.1987 41.707 17.5267 40.9493C17.1235 40.4789 16.4273 40.3688 15.854 40.5333M19.6169 41.3839C19.8828 40.3174 20.9079 39.3981 22.0488 39.511C22.6064 39.471 23.0539 39.8356 23.5057 40.0986C23.55 39.9571 23.5957 39.8155 23.6401 39.6769C23.9374 39.6583 24.2348 39.6569 24.5322 39.674C24.5651 41.3081 24.5365 42.9437 24.5465 44.5793C24.5665 45.3828 24.2305 46.2477 23.53 46.6881C22.9138 47.0841 22.1418 47.0913 21.4369 47.0112C20.6692 46.9111 19.9786 46.3349 19.7499 45.5929C19.9886 45.4128 20.2646 45.1798 20.5862 45.2412C20.8607 45.52 21.0909 45.8617 21.4512 46.0419C22.1017 46.3592 22.9438 46.0933 23.3527 45.51C23.5857 45.1697 23.5672 44.7423 23.5729 44.3477C23.0382 44.6879 22.4506 45.0682 21.7872 44.991C21.1267 44.8852 20.4261 44.6107 20.0515 44.0246C19.4983 43.2783 19.3867 42.2689 19.6183 41.3839M21.4598 40.5661C20.3489 41.0851 20.2059 42.7393 20.9851 43.6028C21.4226 44.0789 22.1918 44.1675 22.7508 43.8659C23.8474 43.1925 23.8717 41.351 22.7937 40.6505C22.3905 40.4275 21.8858 40.4032 21.4584 40.5661M28.125 40.2302C28.5897 39.7469 29.2559 39.4538 29.9336 39.511C30.78 39.471 31.5706 40.0043 31.9966 40.712C32.2897 41.2224 32.3069 41.8328 32.2954 42.4061C31.0216 42.562 29.7234 42.4119 28.441 42.4776C28.3295 43.4455 29.3646 44.2419 30.2838 44.0117C30.8071 43.9588 31.1016 43.4927 31.4162 43.1324C31.6849 43.2439 31.9466 43.3698 32.2082 43.4956C32.0324 44.2419 31.2803 44.7337 30.5698 44.9153C29.8149 45.1469 29.0043 44.8952 28.3652 44.4778C27.6761 43.9774 27.4159 43.0938 27.333 42.2861C27.3887 41.5541 27.576 40.7577 28.1279 40.233M29.2345 40.5862C28.7927 40.742 28.594 41.2124 28.4596 41.6241C29.3874 41.6341 30.3167 41.6413 31.246 41.6184C31.146 41.3167 31.0673 40.9793 30.81 40.7692C30.3796 40.4074 29.7391 40.386 29.2345 40.5876M25.543 37.721C25.8732 37.661 26.2107 37.6624 26.5466 37.681C26.591 40.0257 26.5552 42.3718 26.5638 44.718C26.2392 44.8395 25.8875 44.7737 25.5516 44.7623C25.5258 42.4147 25.543 40.0672 25.543 37.721Z" stroke="#5F6368" stroke-width="0.142969" stroke-miterlimit="10"/>
</g>
<defs>
<clipPath id="clip0_598_169">
<rect width="66.8853" height="47.1227" fill="white"/>
</clipPath>
</defs>
</svg>
