<svg width="59" height="18" viewBox="0 0 59 18" fill="none" xmlns="http://www.w3.org/2000/svg">
<g clip-path="url(#clip0_598_156)">
<path d="M33.501 3.49329C33.8158 3.49329 34.1205 3.37143 34.3439 3.15818C34.5673 2.94492 34.6993 2.64028 34.7095 2.33563C34.7095 2.02083 34.5774 1.71618 34.354 1.49277C34.1306 1.26936 33.826 1.13735 33.5112 1.13735C33.1964 1.1475 32.9019 1.26936 32.6785 1.50293C32.4551 1.72633 32.3332 2.03098 32.3434 2.33563C32.3434 2.64028 32.4652 2.93477 32.6886 3.15818C32.9019 3.36127 33.1964 3.48313 33.501 3.49329ZM41.6859 4.61033H44.5902V4.84389C44.4277 4.87435 44.2754 4.92513 44.1332 5.00637C43.8692 5.12823 43.3411 5.72737 42.9248 6.7327C42.2343 8.46919 41.5133 10.5306 40.7516 12.8866L40.4673 13.7802C40.3454 14.1864 40.2337 14.4504 40.183 14.6028C40.1322 14.7652 40.0611 15.0089 39.9392 15.3034C39.8682 15.5268 39.7768 15.7503 39.6651 15.9534C39.5229 16.2174 39.2589 16.7556 39.0456 16.9181C38.7105 17.2024 38.2129 17.5172 37.5935 17.4664C36.385 17.4664 35.4812 16.5728 35.4711 15.5167C35.4711 14.7957 35.9281 14.3184 36.6186 14.3184C37.1162 14.3184 37.5528 14.5824 37.5528 15.141C37.5528 15.5472 37.1466 15.9635 37.1466 16.1768C37.1466 16.7251 37.4614 16.979 38.0809 16.979C38.5785 16.979 38.9847 16.6642 39.2893 16.0346C39.6955 15.3136 39.7361 14.5215 39.3909 13.638L36.842 6.9358C36.253 5.39225 35.8163 4.88451 35.268 4.82358V4.59002H39.2893V4.82358C38.812 4.87435 38.5683 5.15869 38.5683 5.66644C38.5683 6.03201 38.7105 6.60069 38.9745 7.32169L39.4518 8.62151C40.0002 10.033 40.447 11.2618 40.6704 12.0336C41.1883 10.4291 41.6656 9.02771 42.1225 7.79897C42.4577 6.88503 42.6201 6.23511 42.6201 5.84923C42.6201 5.15869 42.2444 4.84389 41.6859 4.84389V4.61033ZM13.7294 13.1709C13.2115 13.0795 12.7749 12.6225 12.7749 11.6578V0L9.85026 0.629604V0.873322C10.3478 0.822547 10.8454 1.25921 10.8454 2.19346V11.6578C10.8454 12.5718 10.3478 13.0998 9.85026 13.1709C9.79948 13.1811 9.75886 13.1811 9.70809 13.1912C9.45422 13.2115 9.20034 13.1608 8.96678 13.0592C8.57074 12.8866 8.24578 12.5819 7.9716 12.1351L6.621 9.99243C6.33666 9.53546 5.91015 9.19019 5.41256 8.99725C4.91497 8.8043 4.36661 8.77384 3.84871 8.91601L5.37194 7.24045C6.51945 5.97108 7.58571 5.16885 8.59105 4.83373V4.60017H5.23993V4.83373C6.1031 5.16885 6.05232 5.91015 5.05714 7.06781L2.92461 9.54561V0L0 0.629604V0.873322C0.49759 0.873322 0.995181 1.36076 0.995181 2.22392V11.6477C0.995181 12.6936 0.507745 13.0998 0 13.1709V13.4045H3.87917V13.1709C3.23941 13.0795 2.92461 12.5921 2.92461 11.6578V9.92134L3.75731 9.0074L5.76799 12.2976C6.24527 13.0897 6.69208 13.4045 7.39277 13.4045H14.1356V13.2217C14.1458 13.2217 13.9528 13.2115 13.7294 13.1709ZM21.7721 12.064V8.12392C21.7315 5.55473 20.6449 4.37676 18.157 4.37676C17.3649 4.36661 16.5931 4.63064 15.9635 5.11807C15.3034 5.61566 14.9886 6.17418 14.9886 6.8241C14.9886 7.47401 15.3441 7.93098 15.9229 7.93098C16.5423 7.93098 16.9892 7.57556 16.9892 7.08812C16.9892 6.72255 16.7454 6.20465 16.7454 5.85938C16.7454 5.22978 17.2227 4.68141 18.0554 4.68141C19.1217 4.68141 19.8833 5.47349 19.8833 7.23029V8.2864L18.9998 8.49966C18.5429 8.59105 18.1468 8.68244 17.8523 8.76368C17.5477 8.85508 17.1618 8.97694 16.7048 9.14957C15.7807 9.50499 15.2933 9.8401 14.8668 10.4697C14.6535 10.7744 14.552 11.1399 14.552 11.5055C14.552 12.9678 15.5776 13.638 17.0095 13.638C18.1468 13.638 19.3451 13.0389 19.8935 11.9117C19.9036 12.2671 19.9849 12.6124 20.1473 12.9373C20.7465 14.1458 22.7368 13.4349 22.7368 13.4349V13.2014C21.8432 13.3334 21.7721 12.3077 21.7721 12.064ZM19.8833 10.8454C19.8833 11.4243 19.6701 11.9015 19.2435 12.2367C18.8373 12.5718 18.4108 12.7444 17.964 12.7444C17.1009 12.7444 16.5322 12.1859 16.5322 11.1399C16.5322 10.6525 16.8064 10.1955 17.0298 9.9315C17.2126 9.74871 17.4157 9.59639 17.6492 9.49484C17.9539 9.33236 18.096 9.25112 18.3093 9.15972L19.1217 8.86523C19.5279 8.70275 19.7716 8.62151 19.8833 8.57074V10.8454ZM59 4.61033H52.115V0H59L57.558 2.30516L59 4.61033ZM44.9964 12.2773C44.1434 11.404 43.6661 10.226 43.6864 8.99725C43.6762 8.39811 43.7879 7.79897 44.0114 7.24045C44.2348 6.68193 44.5699 6.17418 44.9964 5.73752C45.8697 4.82358 46.9258 4.36661 48.1749 4.36661C49.4239 4.36661 50.4597 4.82358 51.333 5.73752C51.7596 6.16403 52.1048 6.67177 52.3282 7.23029C52.5618 7.78881 52.6735 8.38795 52.6633 8.99725C52.6735 9.60654 52.5618 10.2057 52.3282 10.7642C52.0947 11.3227 51.7596 11.8406 51.333 12.2671C50.4597 13.1608 49.4036 13.6279 48.1749 13.6279C46.936 13.638 45.8697 13.1811 44.9964 12.2773ZM49.7692 5.88984C49.4239 5.20947 48.9568 4.81343 48.4186 4.70172C47.3219 4.47831 46.3571 5.60551 45.9916 7.38262C45.8392 8.18485 45.7986 8.99725 45.8799 9.79948C45.9611 10.6119 46.1845 11.3938 46.5501 12.125C46.9055 12.8053 47.3625 13.2014 47.9007 13.3131C48.9974 13.5365 49.9926 12.3687 50.3582 10.5713C50.6628 9.06833 50.5105 7.24045 49.7692 5.88984Z" fill="black"/>
<path d="M34.5267 11.6578V4.61025H28.2916V4.82351C29.1243 4.94536 29.5203 5.57497 29.1446 6.5803C27.1949 11.8405 27.3167 11.607 27.1948 12.0233C27.073 11.6171 26.7887 10.622 26.3317 9.3729C25.8747 8.12385 25.5701 7.3013 25.4482 6.92557C24.9709 5.46326 25.1334 4.92505 25.9052 4.83366V4.6001H21.8635V4.83366C22.4627 4.95552 23.0009 5.64605 23.4375 6.8748L24.057 8.47927C24.7374 10.2056 25.5396 12.592 25.8036 13.4044H27.1441C27.5807 12.1553 29.3071 7.15913 29.5406 6.65139C29.7945 6.07256 30.0788 5.6359 30.3936 5.33125C30.546 5.16877 30.7288 5.03676 30.942 4.95552C31.1451 4.87428 31.3685 4.82351 31.5919 4.83366C31.5919 4.83366 32.5668 4.83366 32.5668 5.76791V11.6679C32.5668 12.6529 32.0895 13.1099 31.5919 13.181V13.4146H35.4508V13.181C34.9532 13.0998 34.5267 12.6428 34.5267 11.6578Z" fill="black"/>
</g>
<defs>
<clipPath id="clip0_598_156">
<rect width="59" height="17.4715" fill="white"/>
</clipPath>
</defs>
</svg>
