<svg width="72" height="72" viewBox="0 0 72 72" fill="none" xmlns="http://www.w3.org/2000/svg">
<path d="M35.83 71.66C55.6184 71.66 71.66 55.6184 71.66 35.83C71.66 16.0416 55.6184 0 35.83 0C16.0416 0 0 16.0416 0 35.83C0 55.6184 16.0416 71.66 35.83 71.66Z" fill="#FF00FF"/>
<path d="M17.7504 30.2964C18.2876 28.5319 17.6064 27.1925 16.059 26.7217L12.0294 25.4943L11.5243 27.1628L15.5402 28.3856C16.2808 28.6142 16.5048 29.2084 16.3059 29.8621C16.107 30.5158 15.5928 30.8747 14.8499 30.6484L10.8386 29.421L10.3335 31.0827L14.3608 32.3101C15.9036 32.7809 17.2179 32.0495 17.7504 30.2964Z" fill="#FFFF00"/>
<path d="M15.0874 20.5027L14.1156 21.912L19.6626 25.7372L20.6345 24.3279L15.0874 20.5027Z" fill="#FFFF00"/>
<path d="M12.21 20.7949C12.4319 20.9444 12.7039 21.0001 12.9667 20.95C13.2295 20.8999 13.462 20.7481 13.6134 20.5275C13.7235 20.3631 13.7826 20.1698 13.7832 19.972C13.7838 19.7741 13.7258 19.5805 13.6167 19.4154C13.5075 19.2504 13.352 19.1213 13.1697 19.0444C12.9873 18.9676 12.7863 18.9463 12.592 18.9833C12.3976 19.0204 12.2185 19.1141 12.0772 19.2526C11.936 19.3911 11.8388 19.5684 11.798 19.762C11.7572 19.9556 11.7745 20.157 11.8478 20.3408C11.9211 20.5246 12.0471 20.6826 12.21 20.7949Z" fill="#FFFF00"/>
<path d="M23.3115 21.4303L20.7858 18.1458C20.6881 18.0153 20.6175 17.8666 20.5782 17.7083C20.5389 17.5501 20.5317 17.3855 20.5571 17.2245C20.5824 17.0634 20.6398 16.909 20.7258 16.7705C20.8118 16.632 20.9247 16.5121 21.0578 16.4179C21.1814 16.316 21.3246 16.2404 21.4785 16.1957C21.6324 16.1511 21.7937 16.1383 21.9527 16.1582C22.1117 16.1781 22.265 16.2302 22.4031 16.3114C22.5412 16.3927 22.6613 16.5012 22.756 16.6305L25.2817 19.9149L26.6531 18.8567L24.004 15.4008C23.8128 15.1383 23.5713 14.9165 23.2936 14.7482C23.0159 14.5799 22.7075 14.4685 22.3864 14.4205C22.0653 14.3724 21.7378 14.3886 21.423 14.4683C21.1082 14.5479 20.8123 14.6893 20.5527 14.8842C20.2866 15.0883 20.0636 15.343 19.8964 15.6337C19.7293 15.9244 19.6214 16.2453 19.579 16.5779L19.2041 16.091L17.8327 17.1424L21.9469 22.4817L23.3115 21.4303Z" fill="#FFFF00"/>
<path d="M26.7739 7.55214L25.1518 8.13887L28.6519 17.8158L30.2741 17.2291L26.7739 7.55214Z" fill="#FFFF00"/>
<path d="M35.1329 16.9253C36.9751 16.8613 38.0219 15.7825 37.9648 14.1642L37.8094 9.95633L36.0723 10.0158L36.2186 14.2122C36.246 14.9871 35.7614 15.3916 35.0757 15.4168C34.39 15.4419 33.8849 15.0694 33.8575 14.2945L33.7112 10.098L31.9741 10.1598L32.1227 14.3677C32.1821 15.9859 33.3021 16.9893 35.1329 16.9253Z" fill="#FFFF00"/>
<path d="M42.8034 7.31017L40.065 17.2315L41.7262 17.69L44.4646 7.7687L42.8034 7.31017Z" fill="#FFFF00"/>
<path d="M46.1932 19.9972C46.5351 20.2591 46.933 20.4383 47.3557 20.5208C47.7784 20.6033 48.2144 20.5868 48.6297 20.4727L48.1726 21.2086L49.5005 22.1343L53.3519 16.6076L51.9256 15.6133L51.4891 16.2396C51.44 15.8312 51.3008 15.4389 51.0814 15.091C50.862 14.7431 50.5679 14.4484 50.2205 14.2282C48.728 13.1883 46.5955 13.6065 45.4778 15.2088C44.3601 16.811 44.7029 18.9573 46.1932 19.9972ZM46.8994 16.203C47.1189 15.8951 47.4245 15.659 47.7778 15.5242C48.1311 15.3895 48.5164 15.3622 48.8851 15.4458C49.2539 15.5295 49.5897 15.7202 49.8504 15.9942C50.111 16.2681 50.2848 16.613 50.35 16.9854C50.4152 17.3579 50.3688 17.7413 50.2167 18.0875C50.0646 18.4337 49.8136 18.7272 49.4951 18.931C49.1767 19.1349 48.8051 19.2401 48.427 19.2334C48.0489 19.2267 47.6813 19.1083 47.3703 18.8933C47.16 18.7498 46.9807 18.5656 46.8428 18.3516C46.7049 18.1377 46.6112 17.8982 46.5673 17.6475C46.5234 17.3967 46.5302 17.1397 46.5872 16.8917C46.6443 16.6436 46.7504 16.4094 46.8994 16.203Z" fill="#FFFF00"/>
<path d="M51.6536 25.172L55.2238 23.0692C55.3657 22.9888 55.5222 22.9376 55.6841 22.9184C55.846 22.8993 56.0101 22.9127 56.1668 22.9579C56.3235 23.003 56.4696 23.0789 56.5965 23.1813C56.7235 23.2836 56.8287 23.4102 56.9061 23.5537C56.9917 23.6891 57.0488 23.8405 57.074 23.9987C57.0992 24.1569 57.0919 24.3186 57.0525 24.4738C57.0132 24.6291 56.9426 24.7747 56.8451 24.9018C56.7476 25.0289 56.6253 25.1349 56.4855 25.2131L52.913 27.3136L53.7953 28.813L57.5506 26.6028C57.8348 26.4457 58.0849 26.2337 58.2863 25.979C58.4877 25.7244 58.6365 25.4322 58.7239 25.1195C58.8113 24.8069 58.8357 24.4799 58.7955 24.1577C58.7554 23.8355 58.6515 23.5246 58.4901 23.2429C58.3206 22.9532 58.0954 22.7 57.8274 22.4979C57.5595 22.2958 57.2541 22.149 56.9289 22.0658L57.4592 21.7549L56.5838 20.2692L50.7782 23.6863L51.6536 25.172Z" fill="#FFFF00"/>
<path d="M65.2556 35.2357H60.9357C61.2351 34.9651 61.472 34.6325 61.6299 34.2611C61.7878 33.8897 61.8629 33.4883 61.85 33.0849C61.85 31.1993 60.2889 29.7159 58.3369 29.7136C56.3849 29.7113 54.8193 31.197 54.8193 33.0826C54.8067 33.5063 54.8902 33.9273 55.0636 34.314C55.237 34.7008 55.4957 35.0433 55.8204 35.3157L54.9518 35.3546V36.9728H59.4294C59.137 43.0374 56.522 48.7568 52.1266 52.9454C47.7312 57.134 41.8924 59.4705 35.8209 59.4705C29.7493 59.4705 23.9105 57.134 19.5151 52.9454C15.1197 48.7568 12.5047 43.0374 12.2123 36.9728H16.8042V35.2495H6.5187V36.9728H10.5575C10.8604 43.4742 13.6563 49.6091 18.3643 54.1029C23.0724 58.5967 29.3307 61.104 35.8391 61.104C42.3476 61.104 48.6059 58.5967 53.314 54.1029C58.022 49.6091 60.8179 43.4742 61.1208 36.9728H65.2624L65.2556 35.2357ZM56.3644 33.3752C56.3548 32.9835 56.4622 32.5978 56.6728 32.2673C56.8833 31.9368 57.1875 31.6765 57.5466 31.5197C57.9057 31.3628 58.3034 31.3164 58.6889 31.3865C59.0745 31.4565 59.4304 31.6398 59.7114 31.913C59.9923 32.1861 60.1855 32.5368 60.2664 32.9202C60.3472 33.3036 60.3121 33.7025 60.1653 34.0658C60.0186 34.4292 59.767 34.7406 59.4426 34.9603C59.1181 35.1801 58.7356 35.2983 58.3438 35.2997C58.0867 35.3061 57.8309 35.2611 57.5915 35.1674C57.352 35.0736 57.1337 34.933 56.9494 34.7537C56.765 34.5744 56.6183 34.3602 56.5178 34.1235C56.4174 33.8867 56.3652 33.6324 56.3644 33.3752Z" fill="#FFFF00"/>
<path d="M63.9688 62.0305C63.7075 62.0305 63.452 62.108 63.2348 62.2532C63.0175 62.3983 62.8482 62.6047 62.7482 62.8461C62.6482 63.0875 62.622 63.3531 62.673 63.6094C62.724 63.8656 62.8498 64.101 63.0346 64.2858C63.2193 64.4706 63.4547 64.5964 63.711 64.6474C63.9673 64.6983 64.2329 64.6722 64.4743 64.5722C64.7157 64.4722 64.9221 64.3028 65.0672 64.0856C65.2124 63.8683 65.2899 63.6129 65.2899 63.3516C65.2902 63.178 65.2562 63.0061 65.1899 62.8457C65.1236 62.6853 65.0263 62.5395 64.9036 62.4168C64.7809 62.2941 64.6351 62.1968 64.4747 62.1305C64.3142 62.0642 64.1423 62.0302 63.9688 62.0305ZM63.9688 64.4716C63.7467 64.4716 63.5296 64.4057 63.345 64.2823C63.1604 64.1589 63.0166 63.9835 62.9317 63.7783C62.8468 63.5731 62.8247 63.3473 62.8682 63.1296C62.9117 62.9118 63.0188 62.7118 63.176 62.555C63.3332 62.3981 63.5334 62.2914 63.7512 62.2484C63.9691 62.2053 64.1948 62.2279 64.3998 62.3132C64.6048 62.3985 64.7799 62.5427 64.903 62.7275C65.026 62.9124 65.0915 63.1296 65.091 63.3516C65.091 63.4989 65.062 63.6447 65.0055 63.7808C64.9491 63.9168 64.8664 64.0404 64.7622 64.1444C64.6579 64.2484 64.5342 64.3309 64.3981 64.387C64.2619 64.4432 64.116 64.4719 63.9688 64.4716Z" fill="#FF00FF"/>
<path d="M64.5219 64.0213H64.2499L63.7425 63.4545V64.0213H63.5276V62.6797H64.0328C64.1292 62.6871 64.2193 62.7307 64.285 62.8017C64.3507 62.8726 64.3871 62.9658 64.3871 63.0625C64.3871 63.1592 64.3507 63.2524 64.285 63.3234C64.2193 63.3943 64.1292 63.4379 64.0328 63.4453H64.0053L64.5219 64.0213ZM64.0236 62.8671H63.7425V63.2579H64.0236C64.0482 63.2577 64.0726 63.2524 64.095 63.2423C64.1175 63.2322 64.1376 63.2176 64.1542 63.1993C64.1707 63.1811 64.1833 63.1596 64.1911 63.1362C64.1989 63.1129 64.2018 63.0882 64.1996 63.0636C64.2018 63.039 64.1989 63.0142 64.1911 62.9907C64.1833 62.9672 64.1708 62.9456 64.1543 62.9272C64.1378 62.9087 64.1177 62.8939 64.0952 62.8835C64.0727 62.8732 64.0484 62.8676 64.0236 62.8671Z" fill="#FF00FF"/>
</svg>
