<svg width="191" height="25" viewBox="0 0 191 25" fill="none" xmlns="http://www.w3.org/2000/svg">
<g clip-path="url(#clip0_179_304)">
<path d="M23.7517 18.7957C27.3705 17.9961 29.7644 14.8121 28.9415 11.0951C28.0999 7.27983 24.8504 5.3161 21.0632 6.15302C17.3742 6.96657 15.0365 10.0618 15.8734 13.8536C16.6823 17.5192 20.1094 19.6045 23.7517 18.8003V18.7957ZM21.2222 7.35463C23.4618 6.85903 24.4623 10.693 24.8083 12.2686C25.1496 13.8209 25.7481 17.1171 23.6067 17.594C21.4186 18.0756 20.4274 14.6578 20.0814 13.0822C19.7494 11.5813 19.0808 7.83154 21.2175 7.35931L21.2222 7.35463Z" fill="#8B507B"/>
<path d="M42.2995 15.9623V8.80873C42.7296 8.22897 43.5853 7.77544 44.2632 7.77544C45.8248 7.77544 46.0025 9.13602 46.0025 10.3984V15.967C46.0025 17.9587 44.67 16.5234 44.67 18.2112V18.5899H51.3981V18.2112C51.3981 16.5234 49.9861 17.9587 49.9861 15.967V9.79527C49.9861 7.34997 48.5507 6.01744 45.9277 6.01744C44.5437 6.01744 43.3562 6.47097 42.2995 7.30321V0.692017L36.9039 0.869687V1.2484C36.9039 2.93627 38.3159 1.50088 38.3159 3.49266V15.967C38.3159 17.9587 36.9039 16.5234 36.9039 18.2112V18.5899H43.632V18.2112C43.632 16.5234 42.2995 17.9587 42.2995 15.967V15.9623Z" fill="#8B507B"/>
<path d="M52.4781 15.3872C52.4781 17.7577 54.4933 18.9407 56.6627 18.9407C58.4535 18.9407 59.5382 18.4123 60.6697 17.0003C61.2494 18.1832 62.0022 18.9407 63.5919 18.9407C64.2979 18.9407 65.7847 18.1832 65.7847 17.5053C65.7847 17.2808 65.5837 17.0751 65.4574 16.8974L65.3312 16.7198C65.1816 16.9208 64.9291 17.0985 64.6766 17.0985C63.821 17.0985 64.022 15.1815 64.022 14.8075V11.3523C64.022 6.0362 58.9304 6.01282 58.2524 6.01282C56.3635 6.01282 53.287 6.64401 53.287 8.80878C53.287 9.81402 54.2455 10.4686 55.1759 10.4686C56.0596 10.4686 56.9152 9.86545 56.9152 8.90697C56.9152 8.60306 56.789 8.3272 56.789 8.02329C56.789 7.41548 57.5184 7.21443 58 7.21443C59.6878 7.21443 60.0151 9.33244 59.9917 10.6182C57.7241 11.0717 52.4828 11.6749 52.4828 15.3826L52.4781 15.3872ZM60.0432 11.8572V13.7461C60.0432 14.9805 59.7907 17.2995 58.0794 17.2995C57.0461 17.2995 56.6394 15.9623 56.6394 15.1348C56.6394 13.1944 58.229 12.0583 60.0432 11.8572Z" fill="#8B507B"/>
<path d="M67.6034 8.98169V15.9623C67.6034 17.954 66.1634 16.5186 66.1634 18.2065V18.5852H73.1954V18.2065C73.1954 16.5186 71.5823 17.954 71.5823 15.9623V13.4702C71.5823 13.0401 72.3631 8.98169 73.6255 8.98169C73.9528 8.98169 74.1258 9.23417 74.3829 9.46327C74.6354 9.71575 74.9347 9.96823 75.5144 9.96823C76.5477 9.96823 77.2537 8.98169 77.2537 7.99983C77.2537 6.8403 76.3467 6.00806 75.1871 6.00806C73.1206 6.00806 72.0358 8.3505 71.3065 9.91212H71.255V6.18105L66.1119 6.35872V6.73744C66.1119 8.4253 67.5988 6.98992 67.5988 8.97702L67.6034 8.98169Z" fill="#8B507B"/>
<path d="M83.1076 18.9359C84.3419 18.9359 85.45 18.431 86.3851 17.6268V18.5853H91.5516V18.1317C91.5516 16.5701 90.1676 17.9026 90.1676 15.9623V0.692017L84.7767 0.869687V1.32321C84.7767 2.88484 86.1887 1.54764 86.1887 3.48798V6.69072C85.2303 6.28862 84.2718 6.01277 83.3133 6.01277C79.5822 6.01277 77.3894 9.28564 77.3894 12.7689C77.3894 16.0698 79.6804 18.9406 83.1076 18.9406V18.9359ZM84.4167 7.4201C85.0713 7.4201 85.7025 7.67258 86.1841 8.09805V16.3644C85.8287 16.8927 84.9731 17.2995 84.3466 17.2995C81.9761 17.2995 81.9247 13.7227 81.9247 12.0348C81.9247 10.347 82.1023 7.42478 84.4167 7.42478V7.4201Z" fill="#8B507B"/>
<path d="M13.026 15.9623V10.0384C13.026 7.62111 11.8898 6.00806 8.86943 6.00806C7.78938 6.00806 6.79349 6.26053 5.89579 6.87303C5.62929 7.05537 5.37213 7.24707 5.13368 7.46215C4.90926 7.66319 4.73626 7.89697 4.54457 8.13075C4.23131 8.51881 3.85726 8.82272 3.37568 8.96767C3.26347 9.00039 3.14658 9.02845 3.02969 9.04715C2.41252 9.15469 1.85614 8.95364 1.40261 8.67311V15.9576C1.40261 17.9494 -0.00939941 16.514 -0.00939941 18.2018V18.5806H6.89636V18.2018C6.89636 16.4625 5.38616 17.8979 5.38616 15.9576V8.67778C5.76488 8.09802 6.74674 7.77073 7.37793 7.77073C8.818 7.77073 9.04242 8.8274 9.04242 9.83731V15.9623C9.04242 17.954 7.70522 16.5186 7.70522 18.2065V18.5852H14.4333V18.2065C14.4333 16.5186 13.0213 17.954 13.0213 15.9623H13.026Z" fill="#8B507B"/>
<path d="M106.808 4.29223C107.691 4.29223 108.295 3.48336 108.295 2.6558C108.295 1.01469 106.682 0.514404 105.298 0.514404C102.628 0.514404 100.912 2.40332 100.912 4.72238V5.25071C100.912 7.29392 99.3503 5.751 99.3503 7.49497V7.87369H100.861V15.9623C100.861 17.9541 99.4251 16.5187 99.4251 18.2066V18.5853H106.457V18.2066C106.457 16.5187 104.844 17.9541 104.844 15.9623V7.87369H107.691V6.36349H104.844V5.73229C104.844 4.37171 104.363 3.41323 104.363 2.4828C104.363 2.13214 104.54 1.57575 104.97 1.57575C105.223 1.57575 105.349 1.7768 105.349 2.0059C105.349 2.25838 105.274 2.50618 105.274 2.76333C105.274 3.64701 105.933 4.30158 106.812 4.30158L106.808 4.29223Z" fill="#8B507B"/>
<path d="M130.288 17.0424C127.586 17.538 126.249 15.1207 125.832 12.8624L125.776 12.5632L133.655 11.1138C132.925 7.43416 130.354 5.419 126.562 6.11566C123.116 6.75153 121.035 9.7953 121.671 13.2412C122.387 17.1312 125.828 19.3942 129.694 18.6835C131.803 18.2954 133.585 17.1219 134.506 15.1581L133.383 14.4942C132.617 15.7613 131.827 16.7525 130.288 17.0377V17.0424ZM126.955 7.27519C128.642 6.9666 129.358 9.19216 129.578 10.534L125.561 11.2728C125.332 9.87946 125.22 7.5978 126.95 7.27519H126.955Z" fill="#8B507B"/>
<path d="M116.72 17.0424C114.017 17.538 112.68 15.1207 112.264 12.8624L112.208 12.5632L120.086 11.1138C119.357 7.43416 116.785 5.419 112.994 6.11566C109.548 6.75153 107.467 9.7953 108.103 13.2412C108.818 17.1312 112.259 19.3942 116.126 18.6835C118.235 18.2954 120.016 17.1219 120.937 15.1581L119.815 14.4942C119.048 15.7613 118.258 16.7525 116.72 17.0377V17.0424ZM113.391 7.27519C115.074 6.9666 115.794 9.19216 116.014 10.534L111.998 11.2728C111.769 9.87946 111.656 7.5978 113.386 7.27519H113.391Z" fill="#8B507B"/>
<path d="M140.56 15.9577V0.687378L135.141 0.865048V1.24377C135.141 2.93163 136.577 1.49624 136.577 3.48802V15.9623C136.577 17.9541 135.141 16.5187 135.141 18.2066V18.5853H141.996V18.2066C141.996 16.5187 140.556 17.9541 140.556 15.9623L140.56 15.9577Z" fill="#8B507B"/>
<path d="M148.649 15.9576V6.44755C150.814 6.17637 153.067 5.60596 154.274 4.40435C154.914 3.7638 155.185 2.98766 155.139 2.10866C155.092 0.963159 154.091 0 152.913 0C151.604 0 150.622 1.05667 150.622 2.31906C150.622 3.50197 151.604 4.53526 152.838 4.53526C152.955 4.53526 153.049 4.48851 153.161 4.46981C150.15 6.3821 143.342 6.00805 143.277 6.00338L143.253 6.35404H143.235V6.73276C143.235 8.42063 144.67 6.98524 144.67 8.97234V15.9529C144.67 17.9447 143.235 16.5093 143.235 18.1972V18.5759H150.061V18.1972C150.061 16.5093 148.649 17.9447 148.649 15.9529V15.9576Z" fill="#8B507B"/>
<path d="M178.067 4.54468C176.959 4.54468 176.127 5.55459 176.127 6.63931C176.127 6.71412 176.15 6.81231 176.15 6.89179C174.818 6.21384 174.009 6.00812 172.826 6.00812C169.932 6.00812 167.309 7.74741 167.309 10.8707C167.309 12.5071 168.118 14.0734 169.577 14.8542L167.463 17.8279C167.211 18.1785 166.832 18.632 166.832 19.0856C166.832 19.843 167.412 19.9926 168.015 19.9926C168.997 19.9926 171.115 19.5391 172.929 19.5391C173.962 19.5391 175.982 19.8898 175.982 21.2784C175.982 22.7652 173.916 23.2187 172.779 23.2187C172.349 23.2187 170.736 23.1673 170.736 22.5408C170.736 22.1854 171.04 22.0358 171.04 21.5542C171.04 20.6706 170.283 20.2217 169.479 20.2217C168.52 20.2217 167.59 20.8015 167.59 21.8348C167.59 24.1772 171.143 24.4297 172.803 24.4297C175.524 24.4297 179.508 23.546 179.508 20.1469C179.508 17.0751 176.183 16.4205 173.836 16.4205C172.452 16.4205 171.064 16.6449 169.778 17.047L169.726 16.9956L171.012 15.3358C171.667 15.5368 172.345 15.5883 173.027 15.5883C175.875 15.5883 178.624 14.1248 178.624 10.8987C178.624 9.71581 178.222 8.95838 177.843 8.43004C177.441 7.90171 177.039 7.57442 177.039 7.27051C177.039 7.06946 177.114 6.93855 177.338 6.93855C177.717 6.93855 177.918 7.54637 178.624 7.54637C179.433 7.54637 179.858 6.93855 179.858 6.18579C179.858 5.20393 179.003 4.54935 178.067 4.54935V4.54468ZM172.976 14.3726C171.414 14.3726 171.288 11.904 171.288 10.7912C171.288 9.67841 171.363 7.2144 172.976 7.2144C174.486 7.2144 174.636 9.93556 174.636 10.9922C174.636 12.0489 174.509 14.3726 172.976 14.3726Z" fill="#8B507B"/>
<path d="M184.118 8.67778C184.118 7.77073 185.202 7.3172 185.955 7.3172C186.259 7.3172 187.091 7.42007 187.091 7.82216C187.091 7.99516 186.914 8.37387 186.914 8.62635C186.914 9.48197 187.797 9.98693 188.573 9.98693C189.457 9.98693 190.313 9.35573 190.313 8.4253C190.313 6.50834 187.615 6.00806 186.156 6.00806C183.608 6.00806 180.588 7.16759 180.588 10.1412C180.588 14.4006 187.493 13.545 187.493 15.9389C187.493 17.2013 186.081 17.6267 185.053 17.6267C184.674 17.6267 183.514 17.5005 183.514 16.9488C183.514 16.874 183.566 16.6963 183.589 16.6168C183.664 16.4158 183.716 16.2662 183.716 16.0651C183.716 15.0318 182.785 14.3773 181.799 14.3773C180.812 14.3773 180.036 15.0552 180.036 16.0651C180.036 18.3608 183.239 18.9406 185.001 18.9406C187.699 18.9406 191 17.5566 191 14.4053C191 9.89342 184.122 11.0249 184.122 8.68713L184.118 8.67778Z" fill="#8B507B"/>
<path d="M164.251 15.9717V10.0478C164.251 7.63051 163.115 6.01746 160.095 6.01746C159.015 6.01746 158.019 6.26993 157.121 6.88243C156.855 7.06477 156.597 7.25647 156.359 7.47155C156.135 7.67259 155.962 7.90637 155.77 8.14015C155.457 8.52821 155.083 8.83212 154.601 8.97707C154.489 9.00979 154.372 9.03785 154.255 9.05655C153.638 9.16409 153.081 8.96304 152.628 8.68251V15.967C152.628 17.9588 151.216 16.5234 151.216 18.2112V18.59H158.122V18.2112C158.122 16.4719 156.611 17.9073 156.611 15.967V8.68718C156.99 8.10742 157.972 7.78013 158.603 7.78013C160.043 7.78013 160.268 8.8368 160.268 9.84671V15.9717C160.268 17.9634 158.931 16.528 158.931 18.2159V18.5946H165.659V18.2159C165.659 16.528 164.247 17.9634 164.247 15.9717H164.251Z" fill="#8B507B"/>
</g>
<defs>
<clipPath id="clip0_179_304">
<rect width="191" height="24.425" fill="white"/>
</clipPath>
</defs>
</svg>
