<svg width="158" height="57" viewBox="0 0 158 57" fill="none" xmlns="http://www.w3.org/2000/svg">
<g clip-path="url(#clip0_575_880)">
<path d="M150.671 41.735C153.258 41.735 155.325 43.8388 155.325 46.4627C155.325 49.0867 153.259 51.2135 150.662 51.2135C148.066 51.2135 145.976 49.1281 145.976 46.4627C145.976 43.7973 148.08 41.735 150.662 41.735H150.671ZM150.662 42.4761C148.572 42.4761 146.883 44.2577 146.883 46.4627C146.883 48.6678 148.577 50.4724 150.676 50.4724C152.78 50.4908 154.465 48.7092 154.465 46.4719C154.465 44.2347 152.78 42.4807 150.676 42.4807H150.667L150.662 42.4761ZM149.774 49.2018H148.94V43.9446C149.373 43.8848 149.797 43.8111 150.432 43.8111C151.228 43.8111 151.753 43.9769 152.066 44.2255C152.388 44.4602 152.55 44.8055 152.55 45.3119C152.55 46.007 152.089 46.4167 151.523 46.587V46.6331C151.983 46.7113 152.301 47.1348 152.402 47.9128C152.531 48.7276 152.665 49.0407 152.743 49.2018H151.859C151.739 49.0407 151.615 48.5527 151.505 47.8576C151.376 47.1947 151.044 46.9507 150.368 46.9507H149.783V49.2018H149.774ZM149.774 46.3016H150.391C151.076 46.3016 151.67 46.0438 151.67 45.3763C151.67 44.9206 151.325 44.4694 150.391 44.4694C150.105 44.4694 149.916 44.4694 149.774 44.5063V46.3016Z" fill="#231F20"/>
<mask id="mask0_575_880" style="mask-type:luminance" maskUnits="userSpaceOnUse" x="105" y="36" width="1" height="1">
<path d="M105.286 36.6667C105.226 36.593 105.157 36.5101 105.157 36.5101C105.157 36.5101 105.189 36.5516 105.286 36.6667Z" fill="white"/>
</mask>
<g mask="url(#mask0_575_880)">
<path d="M105.286 36.5101H105.157V36.6667H105.286V36.5101Z" fill="url(#paint0_linear_575_880)"/>
</g>
<mask id="mask1_575_880" style="mask-type:luminance" maskUnits="userSpaceOnUse" x="119" y="21" width="1" height="1">
<path d="M119.676 21.5074C119.685 21.4522 119.695 21.4061 119.695 21.4061C119.695 21.4061 119.69 21.4337 119.676 21.5074Z" fill="white"/>
</mask>
<g mask="url(#mask1_575_880)">
<path d="M119.695 21.4061H119.676V21.5074H119.695V21.4061Z" fill="url(#paint1_linear_575_880)"/>
</g>
<path d="M146.666 28.8269C145.787 23.4593 141.764 21.6317 139.761 21.4108C139.379 21.3693 139.015 21.4568 138.684 21.6041C137.69 21.0241 136.589 20.6742 135.508 20.6604C134.099 20.642 132.851 21.1668 131.875 22.1289C131.581 21.535 131.194 20.9964 130.715 20.5453C129.758 19.6384 127.203 17.9812 122.687 20.0205C122.544 19.887 122.388 19.7627 122.213 19.6706C121.577 19.3392 120.813 19.3576 120.192 19.7213L118.576 20.665C118.466 20.7294 118.364 20.8077 118.268 20.886C118.268 20.8814 118.258 20.8721 118.254 20.8675C117.793 20.2323 117.186 19.7627 116.445 19.4313C116.868 18.7914 117.117 18.0318 117.117 17.217C117.117 14.9567 115.215 13.1199 112.882 13.1199C110.548 13.1199 108.642 14.9567 108.642 17.217C108.642 18.2666 109.051 19.2241 109.719 19.9515C109.203 20.352 108.881 20.8169 108.692 21.2588C108.384 21.001 108.043 20.7893 107.675 20.642C104.683 19.4359 101.649 22.8516 100.788 23.9242C100.687 24.0531 100.623 24.2005 100.558 24.3432C100.328 23.9795 100.065 23.6434 99.7294 23.3718C99.1356 22.8885 98.109 22.3637 96.6083 22.6215C96.4011 22.6583 96.1986 22.7227 96.0098 22.8194L95.0891 23.289C95.0615 23.1371 95.0247 22.9851 94.9741 22.8286C94.569 21.6041 93.5562 20.8123 91.9634 20.4624C92.1429 20.0067 92.2442 19.5141 92.2442 18.9985C92.2442 17.995 91.8713 17.0743 91.2545 16.3608C92.967 15.9464 94.2513 15.2145 95.103 14.1465C96.4748 12.4294 96.6313 10.1461 95.5633 7.35638C95.5265 7.26431 95.4851 7.17685 95.439 7.08938C95.2733 6.79476 93.7449 4.1892 90.4627 3.48487C87.8019 2.91404 84.9063 3.77029 81.8634 6.03519C80.6251 6.95588 79.5018 8.26327 78.4476 9.97575C75.0273 9.33587 72.1731 8.62234 72.1409 8.61773C72.058 8.59471 71.9706 8.5809 71.8831 8.5717L65.5579 7.81213C64.4992 7.68323 63.5186 8.37375 63.2746 9.40953C63.2378 9.57065 63.2194 9.73177 63.2194 9.88829C63.2194 10.7537 63.7626 11.5547 64.6096 11.854C64.8536 11.9414 69.9865 13.7598 75.971 15.1731C74.6636 18.6487 73.6692 22.5524 72.7762 26.0833C72.7762 26.0833 72.3481 27.7221 71.9844 29.1031C69.2499 29.0847 66.8515 30.0146 64.9687 31.856C63.9191 32.8734 60.7105 35.9853 61.5944 39.3965C62.1514 41.5555 64.1539 43.1207 67.542 44.0414C72.1317 45.2521 75.2759 40.3448 76.9377 36.9935C78.9632 38.2226 81.3156 39.9305 83.935 41.8409C86.9825 44.0598 90.4397 46.5733 94.3664 49.0637C101.373 53.4969 104.83 50.5967 105.99 49.142C108.071 46.541 108.011 42.223 105.87 40.087C105.751 39.9673 105.636 39.8614 105.521 39.7509C105.732 39.7648 105.958 39.7602 106.211 39.7233C108.103 39.4517 111.8 37.1592 114.438 34.4938C114.189 36.1879 114.286 37.3387 114.797 38.1858C115.188 38.8302 115.8 39.2676 116.518 39.4195C116.067 39.6773 115.653 39.9949 115.294 40.3724C112.859 42.9688 112.661 46.3983 114.778 49.3261C117.623 53.2529 124.487 55.725 130.609 52.8662C145.156 46.0761 146.795 35.35 146.795 30.8755C146.795 29.7016 146.685 28.9604 146.662 28.8269M68.5226 37.3894C68.7251 36.9612 69.1118 36.4411 69.6596 35.9899C69.0336 37.1638 68.6285 37.3571 68.5226 37.3894ZM92.3915 28.5093C92.7138 28.6474 93.0682 28.7072 93.4319 28.6796C93.7403 29.2504 94.0304 30.7282 94.2283 31.7501C94.3204 32.2243 94.417 32.7123 94.5229 33.2002C93.4549 32.1506 92.2995 30.6775 91.7562 28.8684C91.9818 28.7901 92.1982 28.6704 92.3915 28.5139M89.7353 9.3681C89.6064 9.70415 89.344 10.1829 88.8238 10.7998C88.6765 10.855 88.276 10.9701 87.3922 11.0069C88.4003 9.97575 89.2335 9.52922 89.7353 9.3727M97.5842 43.5488C95.4022 42.4394 92.7322 40.7315 90.0069 38.3469C87.3231 35.9991 83.4562 32.9793 79.419 31.0458C80.7217 27.4183 81.8128 23.6158 82.6368 20.7248C83.1201 19.04 83.5759 17.4426 83.8889 16.5633C84.1191 16.5909 84.3447 16.6093 84.5702 16.6278C84.0823 17.2999 83.7923 18.1193 83.7923 19.0031C83.7923 20.1678 84.294 21.2174 85.0904 21.9678C84.9892 22.0875 84.8879 22.2118 84.8004 22.3453C83.0511 24.9462 84.8004 28.5047 85.9559 30.8571L86.2689 31.5015C87.5763 34.2498 92.0463 39.8338 94.7301 40.2573C95.5817 40.3908 96.3965 40.1284 96.9582 39.53L96.9812 39.5024C97.1101 39.3596 97.2206 39.2077 97.3172 39.0558C97.5842 39.2676 97.8881 39.4149 98.2195 39.4793C97.6211 40.1791 97.2666 41.0537 97.2666 42.0112C97.2666 42.5545 97.3817 43.0746 97.5796 43.5534M101.806 31.5614C101.796 31.3312 101.787 31.1056 101.778 30.8801C101.737 29.7522 101.7 28.6428 101.575 27.6208C101.847 27.7958 102.155 27.9154 102.487 27.9477C102.933 27.9891 103.366 27.8832 103.739 27.6669C103.555 28.6382 102.915 30.2448 101.806 31.5614ZM109.866 30.1942C110.253 29.1123 110.479 28.0674 110.566 27.096C110.699 27.2387 110.815 27.363 110.907 27.4551C110.994 27.5426 111.105 27.5794 111.201 27.6484C110.865 28.5461 110.4 29.4024 109.871 30.1942M119.409 46.4168C118.654 45.7354 118.35 44.9713 118.35 44.382C118.35 44.2255 118.373 44.0782 118.415 43.9493C118.544 43.5488 118.696 43.3232 118.871 43.2634C119.193 43.1575 119.741 43.268 120.335 43.4797C120.192 43.8848 120.104 44.3176 120.104 44.7687C120.104 45.7861 120.5 46.7068 121.14 47.4111C120.256 47.0843 119.69 46.6699 119.409 46.4168ZM122.457 32.3624C122.065 32.3624 121.683 32.4591 121.315 32.6018C121.725 29.3517 122.659 27.0776 124.1 25.8071C124.34 25.7196 124.726 25.6828 124.906 25.738C124.924 25.7932 124.952 25.9037 124.952 26.1569C124.952 26.9211 124.639 28.7303 122.641 32.3854C122.576 32.3854 122.521 32.3578 122.457 32.3578M130.154 46.3707C129.003 46.8725 127.972 47.2085 127.023 47.4479C127.682 46.739 128.091 45.8045 128.091 44.7687C128.091 43.6547 127.599 42.6419 126.766 41.8869C126.149 40.9939 125.246 40.2803 124.243 39.7463C124.395 39.6312 124.537 39.4885 124.653 39.3182C124.653 39.3182 124.855 39.0282 124.92 38.9407C125.044 38.7934 125.15 38.6369 125.246 38.4712C125.389 38.2686 127.553 35.2349 129.482 32.2657C130.02 35.8656 131.912 38.1259 133.238 38.8395C134.748 39.6543 136.046 40.133 137.114 40.4046C136.023 42.7294 134.476 44.4695 130.149 46.3615M139.287 33.458C138.808 33.5961 138.394 33.5363 137.966 33.2555C137.284 32.8135 136.755 31.9527 136.414 31.0826C137.621 31.6627 139.195 31.5844 140.548 30.7512C140.645 30.6959 140.723 30.6177 140.811 30.5578C140.604 32.1414 139.899 33.2785 139.282 33.458M61.8568 21.1438C61.4701 15.4677 58.5515 11.7021 53.635 10.519C53.3127 10.4545 52.7005 10.2474 51.3102 10.4453C49.4044 10.8918 48.0003 12.5491 48.0003 14.5148C48.0003 16.8349 49.9476 18.7223 52.3368 18.7223C53.4785 18.7223 54.5327 18.2666 55.3199 17.5346C55.6053 17.7464 55.7756 17.972 55.8861 18.1561C56.2636 18.7868 56.4155 19.6614 56.4155 20.665C56.4155 22.9207 55.6513 25.8255 54.993 28.1594C54.8779 25.4204 54.6293 22.9161 52.9767 21.5719C52.3828 21.0885 51.3655 20.5683 49.8694 20.8261C49.6622 20.8629 49.4596 20.9274 49.2709 21.0241L47.319 22.023C46.9922 21.1944 46.4766 20.4302 45.7723 19.7673C45.1278 19.1551 44.2715 18.8604 43.3739 18.9433C41.2379 19.1366 39.263 21.5304 38.4988 22.5754C38.3883 22.4603 38.2778 22.3407 38.1628 22.2394C37.4216 21.6041 36.372 21.6133 35.6032 22.1657C35.1475 21.0517 34.2866 20.0021 33.2094 19.4359C32.1829 18.8973 29.4852 18.0272 26.5758 21.6179C25.6828 22.7181 24.8587 23.9473 24.1544 25.2316C23.1325 22.5754 20.8077 21.535 19.1965 20.8169C18.2758 20.4072 17.4057 20.0205 17.2446 19.5786C17.1572 19.3484 16.9776 18.3909 18.2298 15.7439C19.0906 13.9209 23.5836 11.2923 25.5078 11.854C25.517 11.854 25.517 11.8632 25.5263 11.8678C24.983 11.8217 24.4398 11.8494 23.9196 12.0243C22.9391 12.3511 22.1473 13.0969 21.7698 14.0682C21.3647 15.1132 21.466 16.3147 22.0506 17.3689C23.0956 19.2241 25.3145 20.1586 27.2249 19.5602C27.2525 19.551 27.2618 19.5464 27.2848 19.5417C28.5737 19.4497 30.1343 18.7546 31.3036 16.3285C31.635 15.6564 31.833 14.6713 31.833 13.5572C31.833 12.2084 31.543 10.6709 30.8432 9.24841C29.6694 6.86381 27.6438 5.32165 24.9922 4.78305C21.6639 4.11094 16.8303 7.36559 13.769 10.9287C11.2463 13.8657 9.92512 16.9546 9.92512 19.7535C9.92512 20.7248 10.0862 21.6593 10.4085 22.5386C11.2233 24.7391 14.0222 25.3237 16.0615 25.7518C16.3469 25.8117 16.7106 25.8899 16.9224 25.9452C17.194 26.1707 17.4242 26.8014 17.4242 27.7267C17.4242 28.2469 17.3505 28.8499 17.171 29.5174C16.5127 31.9619 14.4227 34.8621 10.6985 34.9679C9.74558 34.991 8.963 34.5628 8.41058 34.1209C8.45662 34.1209 8.50265 34.1347 8.54868 34.1347C8.82029 34.1347 9.14253 34.0979 9.48779 34.015C10.5512 33.8907 11.4949 33.2601 12.1072 32.1736C12.5721 31.3496 12.8667 30.2172 12.8667 29.0479C12.8667 27.9661 12.6135 26.8566 12.0105 25.9221C11.1635 24.6148 9.77781 23.9519 8.20342 24.0946C5.1053 24.38 2.88643 25.6321 1.7908 27.7083C0.506438 30.1435 0.975991 33.3936 3.19026 37.3756C5.16054 40.911 8.65456 42.5498 12.7701 41.8731C16.4804 41.2609 19.9929 38.8855 22.2118 35.8012C22.3361 36.151 22.488 36.4917 22.6767 36.8093C23.4501 38.1305 25.4296 40.2389 30.033 39.4655C30.2724 39.4287 30.5164 39.3735 30.7604 39.3228C28.1871 40.9709 26.6173 43.3877 26.3595 46.2234C26.1431 48.4745 27.5518 51.1261 29.9502 52.9629C32.0632 54.5833 36.7173 56.8896 44.1058 54.1091C52.5256 50.9051 61.912 33.9414 61.912 22.4511C61.912 22 61.8982 21.5627 61.8706 21.1299M38.3607 36.1694C38.5679 36.5331 38.7842 36.883 39.0144 37.2282C38.1305 37.1684 37.2052 37.2006 36.2661 37.3295C36.9659 36.9751 37.6656 36.5884 38.3607 36.1694ZM29.4392 33.9598C29.2044 33.748 29.0111 33.4948 28.8453 33.214C30.4151 32.1598 32.7215 30.3231 34.3465 27.8372C34.8713 28.3528 35.548 29.8627 36.0774 31.1241C33.1035 33.6329 30.4105 34.816 29.4392 33.9552M36.9566 49.6852C34.0104 49.607 32.1322 48.608 31.9435 47.0106C31.9343 46.9185 31.9297 46.8311 31.9297 46.739C31.9297 45.2429 33.3199 43.4107 35.8288 42.734C36.2661 42.6189 36.7311 42.5268 37.1914 42.4578C36.9106 43.0148 36.7403 43.6271 36.7403 44.2854C36.7403 46.6239 38.7428 48.5251 41.2056 48.5251C41.4911 48.5251 41.7719 48.4929 42.0435 48.4469C40.6118 49.2617 38.9315 49.7451 36.9566 49.699M45.694 45.0956C45.8736 44.4511 45.9794 43.8204 45.9794 43.222C45.9794 42.3243 45.7769 41.4865 45.3902 40.7315C46.3615 40.6624 47.3789 40.3816 48.4331 39.8983C47.8116 41.5647 46.9277 43.4337 45.694 45.0956ZM49.4827 36.3766C49.4596 36.3536 49.4412 36.3306 49.4182 36.3076L48.7507 35.6631C48.3456 35.2718 47.7978 35.06 47.2316 35.0738C46.6653 35.0922 46.1359 35.3362 45.7539 35.7505C45.7262 35.7828 45.7124 35.7874 45.6894 35.8104C45.3119 35.5065 44.6306 34.6411 43.4659 32.2473C45.0495 30.6959 46.2188 29.1077 46.9323 27.561C47.1441 28.2607 47.3328 29.2182 47.4756 29.9456C47.8807 32.0125 48.341 34.305 49.5471 36.0728C49.5287 36.1648 49.5057 36.2661 49.4827 36.372" fill="black"/>
<path d="M146.666 28.0582C145.787 22.6906 141.764 20.863 139.761 20.642C139.379 20.6006 139.015 20.6881 138.684 20.8354C137.69 20.2553 136.589 19.9055 135.508 19.8917C134.099 19.8732 132.851 20.398 131.875 21.3602C131.581 20.7663 131.194 20.2277 130.715 19.7766C129.758 18.8697 127.203 17.2124 122.687 19.2518C122.544 19.1183 122.388 18.994 122.213 18.9019C121.577 18.5705 120.813 18.5889 120.192 18.9526L118.576 19.8963C118.466 19.9607 118.364 20.039 118.268 20.1218C118.268 20.1172 118.258 20.108 118.254 20.1034C117.793 19.4681 117.186 18.9986 116.445 18.6671C116.868 18.0273 117.117 17.2677 117.117 16.4529C117.117 14.1926 115.215 12.3558 112.882 12.3558C110.548 12.3558 108.642 14.1926 108.642 16.4529C108.642 17.5025 109.051 18.46 109.719 19.1873C109.203 19.5878 108.881 20.0574 108.692 20.4947C108.384 20.2369 108.043 20.0252 107.675 19.8778C104.683 18.6717 101.649 22.0875 100.788 23.1601C100.687 23.289 100.623 23.4363 100.558 23.579C100.328 23.2154 100.065 22.8793 99.7294 22.6077C99.1356 22.1243 98.109 21.5995 96.6083 21.8573C96.4011 21.8942 96.1986 21.9586 96.0098 22.0553L95.0891 22.5248C95.0615 22.3729 95.0247 22.221 94.9741 22.0691C94.569 20.8446 93.5562 20.0528 91.9634 19.7029C92.1429 19.2472 92.2442 18.7546 92.2442 18.239C92.2442 17.2355 91.8713 16.3148 91.2545 15.6012C92.967 15.1869 94.2513 14.455 95.103 13.387C96.4748 11.6699 96.6313 9.38656 95.5633 6.59686C95.5265 6.50479 95.4851 6.41272 95.439 6.32986C95.2733 6.03524 93.7449 3.43428 90.4627 2.72535C87.8019 2.15452 84.9063 3.01077 81.8634 5.27567C80.6251 6.19636 79.5018 7.50374 78.4476 9.21623C75.0273 8.57635 72.1731 7.86742 72.1409 7.85821C72.058 7.83519 71.9706 7.82138 71.8831 7.81218L65.5579 7.0526C64.4992 6.92371 63.5186 7.61423 63.2746 8.65001C63.2378 8.81113 63.2194 8.97225 63.2194 9.12877C63.2194 9.99422 63.7626 10.7952 64.6096 11.0944C64.8536 11.1819 69.9865 13.0003 75.971 14.4135C74.6636 17.8892 73.6692 21.7929 72.7762 25.3237C72.7762 25.3237 72.3481 26.9626 71.9844 28.3436C69.2499 28.3252 66.8515 29.2597 64.9687 31.0965C63.9191 32.1138 60.7105 35.2258 61.5944 38.637C62.1514 40.8006 64.1539 42.3612 67.542 43.2818C72.1317 44.4926 75.2759 39.5853 76.9377 36.2339C78.9632 37.4631 81.3156 39.171 83.935 41.0814C86.9825 43.3003 90.4397 45.8138 94.3664 48.3042C101.373 52.7374 104.83 49.8372 105.99 48.3825C108.071 45.7815 108.011 41.4635 105.87 39.3275C105.751 39.2078 105.636 39.1019 105.521 38.9914C105.732 39.0052 105.958 39.0006 106.211 38.9638C108.103 38.6922 111.8 36.3997 114.438 33.7343C114.189 35.4283 114.286 36.5792 114.797 37.4262C115.188 38.0707 115.8 38.5081 116.518 38.66C116.067 38.9224 115.653 39.2354 115.294 39.6175C112.859 42.2092 112.661 45.6434 114.778 48.5712C117.623 52.498 124.487 54.97 130.609 52.1113C145.156 45.3212 146.795 34.5951 146.795 30.1206C146.795 28.9467 146.685 28.2055 146.662 28.072M68.5226 36.6252C68.7251 36.1971 69.1118 35.6769 69.6596 35.2258C69.0336 36.3997 68.6285 36.593 68.5226 36.6252ZM92.3915 27.7452C92.7138 27.8833 93.0682 27.9431 93.4319 27.9155C93.7403 28.4863 94.0304 29.964 94.2283 30.986C94.3204 31.4602 94.417 31.9481 94.5229 32.4361C93.4549 31.3819 92.2995 29.9134 91.7562 28.0996C91.9818 28.0214 92.1982 27.9017 92.3915 27.7452ZM89.7353 8.60397C89.6064 8.94002 89.344 9.41878 88.8238 10.0356C88.6765 10.0909 88.276 10.206 87.3922 10.2428C88.4003 9.21163 89.2335 8.76509 89.7353 8.60397ZM97.5842 42.7847C95.4022 41.6798 92.7322 39.9674 90.0069 37.5828C87.3231 35.2304 83.4562 32.2151 79.419 30.2817C80.7217 26.6541 81.8128 22.8517 82.6368 19.9607C83.1201 18.2758 83.5759 16.6784 83.8889 15.7992C84.1191 15.8222 84.3447 15.8452 84.5702 15.8636C84.0823 16.5357 83.7923 17.3552 83.7923 18.239C83.7923 19.4037 84.294 20.4533 85.0904 21.2036C84.9892 21.3233 84.8879 21.4476 84.8004 21.5811C83.0511 24.1821 84.8004 27.7406 85.9559 30.0929L86.2689 30.7328C87.5763 33.4811 92.0463 39.0651 94.7301 39.4886C95.5817 39.6221 96.3965 39.3597 96.9582 38.7612L96.9812 38.7336C97.1101 38.5909 97.2206 38.439 97.3172 38.2871C97.5842 38.4989 97.8881 38.6462 98.2195 38.7106C97.6211 39.4103 97.2666 40.285 97.2666 41.2425C97.2666 41.7857 97.3817 42.3059 97.5796 42.7847M101.806 30.7973C101.796 30.5671 101.787 30.3415 101.778 30.1159C101.737 28.9881 101.7 27.8833 101.575 26.8567C101.847 27.0316 102.155 27.1513 102.487 27.1881C102.933 27.2296 103.366 27.1237 103.739 26.9027C103.555 27.8741 102.915 29.4807 101.806 30.7973ZM109.866 29.4254C110.253 28.3436 110.479 27.2986 110.566 26.3273C110.699 26.47 110.815 26.5943 110.907 26.6864C110.994 26.7738 111.105 26.8107 111.201 26.8797C110.865 27.7774 110.4 28.629 109.871 29.4254M119.409 45.6526C118.654 44.9713 118.35 44.2071 118.35 43.6179C118.35 43.4614 118.373 43.3141 118.415 43.1852C118.544 42.7893 118.696 42.5591 118.871 42.4993C119.193 42.3934 119.741 42.5085 120.335 42.7156C120.192 43.1207 120.104 43.5535 120.104 44.0046C120.104 45.022 120.5 45.9426 121.14 46.647C120.256 46.3247 119.69 45.9058 119.409 45.6526ZM122.457 31.5983C122.065 31.5983 121.683 31.6949 121.315 31.8376C121.725 28.5876 122.659 26.3135 124.1 25.0429C124.34 24.9555 124.726 24.9186 124.906 24.9739C124.924 25.0291 124.952 25.1396 124.952 25.3928C124.952 26.157 124.639 27.9661 122.641 31.6213C122.576 31.6213 122.521 31.5937 122.457 31.5937M130.154 45.6066C129.003 46.1084 127.972 46.4444 127.023 46.6838C127.682 45.9749 128.091 45.0404 128.091 44.0046C128.091 42.8906 127.599 41.8778 126.766 41.1228C126.149 40.2298 125.246 39.5116 124.243 38.9822C124.395 38.8671 124.537 38.7244 124.653 38.5541C124.653 38.5541 124.855 38.2641 124.92 38.1766C125.044 38.0293 125.15 37.8728 125.246 37.7071C125.389 37.5045 127.553 34.4708 129.482 31.5016C130.02 35.1015 131.912 37.3618 133.238 38.0753C134.748 38.8901 136.046 39.3689 137.114 39.6405C136.023 41.9653 134.476 43.7054 130.149 45.5974M139.287 32.6939C138.808 32.832 138.394 32.7721 137.966 32.4913C137.284 32.0494 136.755 31.1886 136.414 30.3185C137.621 30.8985 139.195 30.8203 140.548 29.987C140.645 29.9318 140.723 29.8535 140.811 29.7937C140.604 31.3773 139.899 32.5143 139.282 32.6939M61.8568 20.3796C61.4701 14.7036 58.5515 10.9379 53.635 9.75484C53.3127 9.69039 52.7005 9.48323 51.3102 9.68118C49.4044 10.1277 48.0003 11.785 48.0003 13.7506C48.0003 16.0708 49.9476 17.9582 52.3368 17.9582C53.4785 17.9582 54.5327 17.5025 55.3199 16.7705C55.6053 16.9823 55.7756 17.2078 55.8861 17.392C56.2636 18.0227 56.4155 18.8973 56.4155 19.8963C56.4155 22.152 55.6513 25.0567 54.993 27.3907C54.8779 24.6516 54.6293 22.1474 52.9767 20.8031C52.3828 20.3198 51.3655 19.7996 49.8694 20.0574C49.6622 20.0942 49.4596 20.1587 49.2709 20.2553L47.319 21.2543C46.9922 20.4257 46.4766 19.6615 45.7723 18.9986C45.1278 18.3863 44.2715 18.0917 43.3739 18.1746C41.2379 18.3679 39.263 20.7617 38.4988 21.8067C38.3883 21.6916 38.2778 21.5719 38.1628 21.4706C37.4216 20.8354 36.372 20.8446 35.6032 21.397C35.1475 20.283 34.2866 19.2334 33.2094 18.6671C32.1829 18.1285 29.4852 17.2585 26.5758 20.8492C25.6828 21.954 24.8587 23.1785 24.1544 24.4629C23.1325 21.8067 20.8077 20.7663 19.1965 20.0482C18.2758 19.6385 17.4057 19.2518 17.2446 18.8098C17.1572 18.5797 16.9776 17.6222 18.2298 14.9752C19.0906 13.1522 23.5836 10.5236 25.5078 11.0852C25.517 11.0852 25.517 11.0944 25.5263 11.099C24.983 11.053 24.4398 11.0806 23.9196 11.2556C22.9391 11.5824 22.1473 12.3282 21.7698 13.2995C21.3647 14.3445 21.466 15.546 22.0506 16.6002C23.0956 18.4554 25.3145 19.3899 27.2249 18.7914C27.2525 18.7822 27.2618 18.7776 27.2848 18.773C28.5737 18.6809 30.1343 17.9858 31.3036 15.5598C31.635 14.8877 31.833 13.9026 31.833 12.7885C31.833 11.4397 31.543 9.90215 30.8432 8.47968C29.6694 6.09508 27.6438 4.55293 24.9922 4.01432C21.6639 3.34222 16.8303 6.59686 13.769 10.1599C11.2463 13.0969 9.92512 16.1859 9.92512 18.9848C9.92512 19.9561 10.0862 20.8906 10.4085 21.7699C11.2233 23.9703 14.0222 24.555 16.0615 24.9831C16.3469 25.0429 16.7106 25.1212 16.9224 25.1764C17.194 25.402 17.4242 26.0327 17.4242 26.958C17.4242 27.4782 17.3505 28.0812 17.171 28.7487C16.5127 31.1932 14.4227 34.0887 10.6985 34.1992C9.74558 34.2222 8.963 33.7941 8.41058 33.3522C8.45662 33.3522 8.50265 33.366 8.54868 33.366C8.82029 33.366 9.14253 33.3292 9.48779 33.2417C10.5512 33.1174 11.4949 32.4867 12.1072 31.4003C12.5721 30.5763 12.8667 29.4438 12.8667 28.2746C12.8667 27.1927 12.6135 26.0787 12.0105 25.1488C11.1635 23.8414 9.77781 23.1785 8.20342 23.3258C5.1053 23.6113 2.88643 24.8634 1.7908 26.9396C0.506438 29.3748 0.975991 32.6248 3.19026 36.6068C5.16054 40.1423 8.65456 41.7811 12.7701 41.1044C16.4804 40.4921 19.9929 38.1214 22.2118 35.0324C22.3361 35.3869 22.488 35.723 22.6767 36.0452C23.4501 37.3664 25.4296 39.4702 30.033 38.7014C30.2724 38.6646 30.5164 38.6093 30.7604 38.5587C28.1871 40.2067 26.6173 42.6236 26.3595 45.4593C26.1431 47.7104 27.5518 50.362 29.9502 52.1988C32.0632 53.8192 36.7173 56.1255 44.1058 53.345C52.5256 50.141 61.912 33.1772 61.912 21.6824C61.912 21.2313 61.8982 20.7939 61.8706 20.3612M38.3607 35.4007C38.5679 35.7644 38.7842 36.1143 39.0144 36.4595C38.1305 36.3997 37.2052 36.4319 36.2661 36.5608C36.9659 36.2063 37.6656 35.8196 38.3607 35.4007ZM29.4392 33.1911C29.2044 32.9793 29.0111 32.7261 28.8453 32.4453C30.4151 31.3911 32.7215 29.5543 34.3465 27.0685C34.8713 27.584 35.548 29.094 36.0774 30.3553C33.1035 32.8642 30.4105 34.0427 29.4392 33.1865M36.9566 48.9211C34.0104 48.8428 32.1322 47.8439 31.9435 46.2465C31.9343 46.1544 31.9297 46.0669 31.9297 45.9749C31.9297 44.4787 33.3199 42.6466 35.8288 41.9699C36.2661 41.8548 36.7311 41.7627 37.1914 41.6937C36.9106 42.2507 36.7403 42.8629 36.7403 43.5166C36.7403 45.8552 38.7428 47.7564 41.2056 47.7564C41.4911 47.7564 41.7719 47.7242 42.0435 47.6782C40.6118 48.493 38.9315 48.9763 36.9566 48.9303M45.694 44.3268C45.8736 43.6824 45.9794 43.0517 45.9794 42.4486C45.9794 41.5509 45.7769 40.7131 45.3902 39.9581C46.3615 39.8891 47.3789 39.6083 48.4331 39.1249C47.8116 40.7914 46.9277 42.6604 45.694 44.3222M49.4827 35.6125C49.4596 35.5895 49.4412 35.5618 49.4182 35.5434L48.7507 34.8989C48.3456 34.5076 47.7978 34.2959 47.2316 34.3097C46.6653 34.3281 46.1359 34.5721 45.7539 34.991C45.7262 35.0186 45.7124 35.0278 45.6894 35.0509C45.3119 34.747 44.6306 33.8816 43.4659 31.4878C45.0495 29.9364 46.2188 28.3482 46.9323 26.8015C47.1441 27.5012 47.3328 28.4587 47.4756 29.186C47.8807 31.253 48.341 33.5455 49.5471 35.3133C49.5287 35.4053 49.5057 35.5066 49.4827 35.6125Z" fill="black"/>
<mask id="mask2_575_880" style="mask-type:luminance" maskUnits="userSpaceOnUse" x="2" y="3" width="144" height="51">
<path d="M140.838 25.3375C140.87 25.3881 140.889 25.4388 140.912 25.5262C140.893 25.4618 140.861 25.402 140.838 25.3375ZM140.958 25.3927C140.958 25.3927 140.87 25.3237 140.815 25.2777C140.663 24.8449 140.456 24.426 140.198 24.0347C141.653 25.1994 142.192 27.2065 142.192 28.9052C142.192 29.0617 142.187 29.2136 142.178 29.3655C142.044 31.6719 141.009 33.5593 139.655 33.9552C138.804 34.1992 137.993 34.0795 137.248 33.5961C135.825 32.6708 134.95 30.6913 134.748 29.2412C134.384 26.6725 135.323 25.2915 136.354 25.0981C136.442 25.0797 136.76 25.0429 137.004 25.2086C136.428 25.6413 136.018 26.2168 135.88 26.8474C135.848 27.004 135.83 27.1605 135.83 27.3124C135.83 27.7221 135.949 28.1134 136.18 28.4494C136.898 29.5082 138.518 29.6924 139.858 28.8684C140.58 28.4356 141.091 27.7635 141.257 27.0316C141.386 26.4561 141.28 25.8899 140.972 25.4296C140.949 25.3973 140.953 25.3973 140.958 25.402M131.452 24.6286C130.886 26.4193 130.655 28.0397 130.655 29.4714C130.655 33.6514 132.612 36.2431 133.864 36.9198C136.147 38.1535 137.887 38.531 138.969 38.6323C137.717 41.8639 136.345 44.3268 130.678 46.808C125.633 49.0177 121.089 48.9487 118.521 46.6239C117.296 45.5145 116.758 44.0045 117.153 42.7754C117.42 41.9422 117.844 41.445 118.452 41.2425C119.57 40.8742 121.154 41.5325 122.222 42.1217C121.725 42.6051 121.416 43.2634 121.416 43.9953C121.416 45.4592 122.613 46.6469 124.082 46.6469C125.55 46.6469 126.77 45.4592 126.77 43.9953C126.77 43.2081 126.397 42.49 125.767 41.9744C124.883 40.5796 122.806 39.4471 120.634 39.1939C118.792 38.9822 117.236 39.4425 116.251 40.4921C114.244 42.6327 114.088 45.3533 115.841 47.7748C118.378 51.278 124.533 53.4692 130.052 50.8959C143.941 44.4142 145.483 34.305 145.483 30.1389C145.483 29.0617 145.382 28.385 145.359 28.2607C144.42 22.5248 139.655 21.9494 139.609 21.9448C139.236 21.9033 138.896 22.1427 138.79 22.4972C137.8 21.7146 136.617 21.2174 135.48 21.2036C135.461 21.2036 135.448 21.2036 135.429 21.2036C133.574 21.2036 132.124 22.4465 131.443 24.6194M122.061 21.0471C122.042 20.932 122.029 20.8123 122.019 20.6972C121.996 20.4302 121.84 20.1954 121.605 20.0757C121.37 19.9515 121.085 19.9607 120.855 20.0942L119.239 21.0379C119.045 21.153 118.912 21.3417 118.871 21.5581C118.622 22.8286 118.102 24.647 117.549 26.5758C115.998 32.0079 115.11 35.4007 115.92 36.7357C116.122 37.0671 116.421 37.2835 116.785 37.3617C118.35 37.6794 119.326 37.7899 119.662 36.6574L119.685 36.5838C119.75 36.3858 119.75 36.2201 119.754 35.6631C119.773 33.4856 119.833 26.8659 123.354 23.9288C123.617 23.7263 125.071 23.3258 125.794 23.9703C125.974 24.1314 126.259 24.5227 126.259 25.4158C126.259 26.7001 125.642 29.0295 123.285 33.145C123.027 33.0023 122.747 32.9148 122.452 32.9148C121.246 32.9148 120.067 34.2682 120.067 35.6446C120.067 37.0993 121.324 38.1121 122.452 38.1121C122.595 38.1121 122.719 38.0799 122.839 38.0477C123.133 38.1075 123.433 38.0108 123.607 37.7576C123.607 37.7576 123.819 37.4538 123.847 37.417C123.971 37.2835 124.077 37.1316 124.165 36.9612C125.72 34.7838 129.044 29.9732 130.526 27.2756C131.01 26.3963 131.245 25.402 131.245 24.426C131.245 23.0082 130.747 21.6363 129.804 20.7386C129.228 20.1954 128.243 19.5786 126.715 19.5786C125.513 19.5786 123.98 19.9561 122.056 21.0471M112.237 22.488C112.237 22.2578 112.283 22.1059 112.343 22.0322C112.361 22.0092 112.407 21.9448 112.541 21.9816C112.702 22.0184 112.909 22.1933 112.969 22.5478C113.047 23.022 113.084 23.4915 113.084 23.9519C113.084 24.2327 113.052 24.5043 113.024 24.7759C112.416 23.6849 112.237 22.9345 112.237 22.4926M112.822 19.4957C111.206 19.6246 110.207 20.1816 109.857 21.1437C109.769 21.3831 109.728 21.6363 109.728 21.8895C109.728 23.5652 111.441 25.3697 111.832 25.761C112.103 26.0326 112.541 26.0648 112.849 25.8301C112.858 25.8255 112.858 25.8163 112.868 25.8071C111.629 31.6903 105.014 36.0728 104.936 36.128C104.752 36.2477 104.627 36.4364 104.591 36.6528C104.586 36.6942 104.581 36.7357 104.581 36.7771C104.581 36.952 104.641 37.1224 104.752 37.2605C104.945 37.4998 105.318 37.7622 106.027 37.661C108.37 37.3295 114.516 32.8319 115.864 29.5589L116.173 28.8223C117.167 26.4792 118.673 22.9345 117.19 20.886C116.509 19.9422 115.321 19.4681 113.646 19.4681C113.383 19.4681 113.107 19.4773 112.822 19.5049M85.1088 18.239C85.1088 19.7213 86.3149 20.9366 87.8294 21.0287C86.9593 21.2634 86.3149 21.687 85.8959 22.313C84.5701 24.2833 86.1169 27.4275 87.1389 29.5082L87.4611 30.1665C88.8836 33.1542 93.0635 37.8911 94.9371 38.1904C95.508 38.2824 95.8532 38.02 96.0051 37.8589C96.0051 37.8589 96.0098 37.8543 96.0144 37.8497C96.7739 37.0165 96.4609 35.9209 96.4241 35.7966C96.3688 35.617 96.2445 35.4605 96.0834 35.3638C95.775 35.1797 88.5936 30.7512 90.3981 23.7723C90.481 23.4639 90.7434 23.2844 90.9644 23.2521C91.0242 23.2429 91.1715 23.2291 91.2314 23.3212C91.3603 23.5237 91.3603 24.2787 90.4211 25.7012C90.2094 26.0234 90.2692 26.4515 90.5592 26.7093C90.8493 26.9625 91.282 26.9671 91.5766 26.7093C91.7193 26.585 92.0416 26.295 92.396 25.9037C92.4006 25.9728 92.4144 26.0464 92.4375 26.1155C92.571 26.4838 92.953 26.6909 93.3351 26.6081C93.7633 26.5114 93.975 26.6081 94.0993 26.6863C94.8221 27.1559 95.1765 28.9696 95.5172 30.7236C95.9729 33.0483 96.4839 35.6769 98.0813 37.2144C98.224 37.3479 98.4081 37.4262 98.6015 37.4308L101.12 37.4768C101.437 37.4814 101.727 37.2973 101.847 37.0073C101.87 36.9566 101.87 36.9014 101.879 36.8508C107.362 33.458 109.291 28.7487 109.291 25.4296C109.291 25.2316 109.286 25.0429 109.272 24.8541C109.139 22.9713 108.361 21.5673 107.187 21.0931C104.982 20.2046 102.33 23.3396 101.819 23.9795C101.644 24.2004 101.603 24.4951 101.709 24.7575L101.971 25.3927C102.082 25.6597 102.326 25.8439 102.616 25.8669C102.901 25.8945 103.177 25.761 103.338 25.5216C103.914 24.6424 104.383 24.403 104.554 24.4628C104.766 24.5319 105.129 25.1211 105.129 26.2398C105.129 26.3319 105.129 26.4285 105.12 26.5252C105.046 28.0075 103.651 31.7869 100.673 33.4074C100.549 32.4038 100.507 31.2622 100.466 30.1527C100.369 27.3722 100.273 24.7437 98.9007 23.625C98.3437 23.1693 97.6486 23.0128 96.8338 23.1509C96.7555 23.1647 96.6819 23.1877 96.6128 23.2245L93.1004 25.0153C93.6252 24.2419 94.0118 23.3212 93.731 22.4788C93.4088 21.5074 92.3592 20.955 90.6007 20.8307C90.0667 20.7939 89.5787 20.7939 89.1276 20.8215C90.1864 20.4026 90.9367 19.399 90.9367 18.2344C90.9367 16.6922 89.6247 15.4355 88.0135 15.4355C86.4023 15.4355 85.1041 16.6922 85.1041 18.2344M109.963 16.4574C109.963 17.9996 111.275 19.2563 112.886 19.2563C114.497 19.2563 115.805 17.9996 115.805 16.4574C115.805 14.9153 114.497 13.6769 112.886 13.6769C111.275 13.6769 109.963 14.9245 109.963 16.4574ZM29.1583 24.8772C29.6278 24.426 30.3736 23.9058 31.239 23.9611C31.4232 23.9749 31.5061 23.9979 31.5613 24.0163C31.5153 24.7298 29.522 26.9717 27.1328 29.0249C27.3952 27.4229 28.1317 25.8623 29.1583 24.8818M52.194 10.878C52.1526 10.878 52.1434 10.878 52.1664 10.878C52.0789 10.878 51.8165 10.9149 51.7889 10.9333C50.3756 11.1773 49.3122 12.3419 49.3122 13.7506C49.3122 15.3434 50.6657 16.6416 52.3321 16.6416C53.4415 16.6416 54.4221 16.0385 54.9423 15.1454C55.8676 15.4539 56.5581 15.9649 57.0092 16.7198C57.5202 17.5761 57.7228 18.6855 57.7228 19.9284C57.7228 22.6077 56.7883 25.8945 56.0379 28.5185L55.5453 30.2816C55.0574 32.1092 54.2978 32.6248 54.1229 32.6064C54.1229 32.6064 54.0952 32.5557 54.0722 32.5189C53.819 31.3312 53.7638 29.8167 53.7085 28.3436C53.6073 25.5677 53.5106 22.9437 52.1434 21.8297C51.5863 21.3785 50.8958 21.222 50.0856 21.3601C50.0074 21.3739 49.9337 21.3969 49.8647 21.4338L46.4075 23.2015C46.343 21.9586 45.8274 20.8721 44.8653 19.9607C44.4924 19.6062 44.0137 19.4405 43.4889 19.4911C41.7856 19.6476 39.9028 22.1151 39.5391 22.6077C39.378 22.8286 39.3457 23.114 39.4516 23.3672L39.7232 24.0117C39.8337 24.2741 40.0823 24.4582 40.3677 24.4813C40.6531 24.5089 40.9293 24.3708 41.0859 24.1314C41.5416 23.4317 42.048 23.1002 42.384 23.2936C42.5958 23.4179 42.7753 23.7401 42.7753 24.1682C42.7753 24.4168 42.7155 24.6976 42.5682 24.9968C42.2045 25.7242 41.3989 26.8106 40.4276 27.92C39.3365 25.4526 38.3606 23.3764 37.3064 22.4788C36.998 22.2164 36.5376 22.2348 36.2522 22.5202L34.3694 24.4214C34.2267 24.5687 34.1438 24.7621 34.1438 24.9646C34.1438 25.0153 34.1484 25.0705 34.1576 25.1211C34.2083 25.3743 34.3832 25.5861 34.6272 25.6828C35.7735 26.1477 36.708 28.4264 37.6148 30.6315C37.6148 30.6315 37.6425 30.7005 37.6517 30.7236C35.7366 32.4452 30.9628 36.2891 28.569 34.1761C27.9246 33.5961 27.4734 32.8319 27.211 31.9251C28.9327 30.8939 33.3014 27.9062 34.5812 23.5237C34.6226 23.3856 34.641 23.2291 34.641 23.0634C34.641 22.0046 33.8308 20.4947 32.5925 19.8364C31.6764 19.353 29.8074 18.9479 27.5931 21.6824C24.274 25.784 21.8158 31.9803 23.8045 35.3915C24.5364 36.6482 26.1752 38.02 29.8074 37.4124C32.6017 36.9566 35.8609 35.5434 38.8624 33.5225C39.8705 35.6216 41.1963 37.6748 43.2633 38.4021C44.741 38.9223 46.4443 38.6967 48.3179 37.73C48.5389 37.6149 48.6908 37.4032 48.7276 37.1546C48.7644 36.906 48.6816 36.6574 48.502 36.4871L47.8345 35.8426C47.6826 35.6953 47.4801 35.617 47.2729 35.6262C47.0658 35.6308 46.8678 35.7229 46.7251 35.8748C46.1174 36.5423 45.7307 36.4825 45.6065 36.4595C44.2853 36.2477 42.6694 32.9286 41.8638 31.1747C44.2438 29.0249 45.763 26.8198 46.2463 24.8173C46.3568 24.8403 46.4719 24.8449 46.587 24.8173C47.0105 24.7206 47.2223 24.8173 47.342 24.8956C48.0601 25.3605 48.4146 27.1743 48.7598 28.9282C49.1741 31.0458 49.6529 33.4212 50.9465 34.9864C50.5045 37.3249 47.5445 50.4954 36.9105 50.233C33.2508 50.1363 30.8984 48.7001 30.6222 46.3983C30.3736 44.336 31.9894 41.6338 35.4696 40.69C37.5734 40.1284 39.1018 40.1699 40.0823 40.7775C38.8946 41.1964 38.0384 42.2598 38.0384 43.512C38.0384 45.1232 39.4516 46.4352 41.1871 46.4352C42.4715 46.4352 43.5579 45.7032 44.0459 44.6352C44.1794 44.5385 44.2945 44.4096 44.3451 44.2531C44.5431 43.6363 44.6397 43.0424 44.6397 42.4808C44.6397 41.2931 44.207 40.2481 43.36 39.4425C41.3851 37.5689 37.3018 37.2052 33.6421 38.5817C30.1112 39.9121 27.9246 42.467 27.6437 45.5927C27.4688 47.3835 28.7071 49.6254 30.7235 51.1721C32.6201 52.6268 36.823 54.6846 43.6178 52.1342C51.4805 49.142 60.5677 32.5557 60.5677 21.687C60.5677 21.2726 60.5539 20.8675 60.5263 20.4716C60.1764 15.3204 57.6629 12.0565 53.2574 11.0207C53.2252 11.0161 52.6682 10.9057 52.6037 10.8964C52.5024 10.8826 52.4012 10.8826 52.3183 10.8826C52.2585 10.8826 52.2078 10.8826 52.1756 10.8826M14.7587 11.0299C11.6835 14.6114 10.5465 18.3679 11.6329 21.3325C12.1945 22.847 14.4825 23.3258 16.3238 23.7125C16.8026 23.8138 17.401 23.938 17.553 24.0163C18.6854 24.716 19.0537 26.8152 18.4368 29.1031C17.6588 31.9849 15.1776 35.3961 10.7306 35.5296C9.24832 35.5664 7.7614 34.8206 6.65657 33.4902C5.61619 32.2335 5.08218 30.6177 5.32617 29.4668C5.55634 28.3942 6.14558 27.5426 6.75784 27.3952C7.01564 27.3354 7.27343 27.4137 7.51742 27.5564C6.61514 27.92 5.98446 28.7441 5.98446 29.7016C5.98446 31.0274 7.10771 32.0678 8.53938 32.0678C8.72813 32.0678 8.94909 32.0447 9.17466 31.9895C9.8882 31.9665 10.5143 31.543 10.9516 30.7742C11.3153 30.1343 11.5362 29.2274 11.5362 28.3021C11.5362 27.4459 11.3475 26.5712 10.8964 25.8807C10.3163 24.9876 9.40023 24.5503 8.31842 24.6516C6.48164 24.8219 4.05561 25.4664 2.94618 27.5702C1.88278 29.5865 2.34773 32.4176 4.33182 35.9853C6.01669 39.0098 9.00894 40.4092 12.549 39.8246C17.599 38.9914 22.2439 34.5905 23.1231 29.7983C24.2326 23.7539 21.0102 22.313 18.6578 21.2634C17.4287 20.7156 16.3653 20.2415 16.0062 19.2793C15.6333 18.2712 15.9694 16.683 17.0328 14.4227C18.0685 12.2268 23.1139 9.02284 25.8714 9.83305C27.0085 10.1645 27.5793 11.2371 27.5793 13.0186C27.5793 13.1567 27.5517 13.3317 27.5471 13.479C26.7231 12.5583 25.4341 12.1348 24.3431 12.5123C23.7124 12.724 23.229 13.1752 22.9896 13.7874C22.7272 14.4641 22.8009 15.2605 23.1968 15.9741C23.9288 17.2676 25.5216 17.9582 26.8243 17.5484C26.8796 17.53 26.8888 17.53 26.9394 17.5024C26.9394 17.5024 26.9578 17.4886 26.9624 17.4886C28.2698 17.4932 29.301 16.6784 30.1112 15.0027C30.7143 13.7736 30.7097 11.2187 29.6555 9.07808C28.9649 7.67863 27.5517 5.89248 24.7205 5.32165C24.5042 5.28022 24.2786 5.25721 24.0438 5.25721C21.3186 5.25721 17.3136 8.05611 14.7541 11.0345M67.1875 37.7438C66.9619 37.4676 66.9941 36.8692 67.2703 36.2109C67.8734 34.7838 69.526 33.1634 71.7357 32.9792C71.8232 32.97 71.9198 32.9792 72.0165 32.9885C71.2754 35.1613 70.1981 37.6195 68.7757 37.9188C68.4903 37.9786 68.2279 38.0062 68.0069 38.0062C67.6156 38.0062 67.3302 37.9188 67.1875 37.7438ZM84.7359 11.4719C87.056 8.01468 89.2749 7.13542 90.283 7.20447C90.6973 7.23209 90.9736 7.39781 91.0933 7.69244C91.1393 7.81213 91.1715 7.95944 91.1715 8.13437C91.1715 8.77425 90.8032 9.7732 89.7306 11.0069C89.6247 11.1266 89.0769 11.5639 86.7798 11.5639C86.2136 11.5639 85.5369 11.5363 84.7313 11.4719M82.6551 6.32981C81.38 7.27812 80.2245 8.71901 79.1243 10.6709C75.2712 9.98496 71.8646 9.13792 71.8278 9.12872C71.7955 9.11951 71.7633 9.11491 71.7311 9.1103L65.4059 8.34613C65.0146 8.30009 64.651 8.55328 64.5589 8.93537C64.5451 8.99522 64.5405 9.05506 64.5405 9.1149C64.5405 9.43715 64.743 9.73177 65.0561 9.84225C65.1205 9.86527 71.2385 12.0289 77.7846 13.4606C76.2241 17.1572 75.11 21.443 74.0512 25.6321C74.0512 25.6321 73.2226 28.7993 72.9786 29.7246C70.1521 29.4484 67.7583 30.1942 65.8893 32.0217C63.3942 34.4431 62.4045 36.4963 62.8694 38.2962C63.3022 39.9673 64.987 41.2102 67.8872 41.9974C70.8656 42.7846 73.6323 40.2665 76.3392 34.3649C78.7007 35.64 81.5042 37.6702 84.7083 40.0041C87.7419 42.2092 91.1761 44.7089 95.0706 47.1809C101.179 51.0432 104.024 48.7277 104.963 47.5492C106.625 45.4684 106.616 41.9192 104.94 40.2481C103.596 38.8855 102.404 38.2134 101.396 38.2548C100.94 38.2732 100.553 38.4666 100.227 38.7612C99.2322 39.2169 98.5831 40.1699 98.5831 41.2379C98.5831 42.78 99.8905 44.0368 101.492 44.0368C101.925 44.0368 102.34 43.9355 102.726 43.7606C102.989 44.3222 103.104 44.7549 103.104 45.0495C103.104 45.2429 103.058 45.3764 102.97 45.4454C101.888 46.3385 95.8118 44.4096 89.1322 38.5678C86.2688 36.0544 82.029 32.7813 77.7478 30.9813C79.2255 27.0684 80.4547 22.778 81.3661 19.5924C82.0152 17.3275 82.5262 15.5367 82.8577 14.791L83.0188 14.4687C83.0188 14.4687 83.0556 14.3997 83.0694 14.3721C88.856 15.1362 92.4789 14.5516 94.0763 12.5537C95.1351 11.2279 95.2226 9.3773 94.3341 7.05255C94.3203 7.02033 94.3065 6.9835 94.2881 6.95128C94.2328 6.85461 92.9484 4.5897 90.1864 3.99586C89.749 3.90379 89.2979 3.85315 88.8422 3.85315C86.9271 3.85315 84.851 4.67717 82.6505 6.316" fill="white"/>
</mask>
<g mask="url(#mask2_575_880)">
<path d="M145.488 3.86694H1.88281V54.6799H145.488V3.86694Z" fill="url(#paint2_linear_575_880)"/>
</g>
<mask id="mask3_575_880" style="mask-type:luminance" maskUnits="userSpaceOnUse" x="3" y="6" width="27" height="34">
<path d="M12.3604 21.0654C12.9542 22.6674 17.2124 22.9068 17.9444 23.3487C21.4752 25.54 18.971 36.0589 10.7538 36.3029C6.83164 36.3949 3.98209 32.0539 4.57134 29.3056C5.04549 27.0867 6.92831 25.3052 8.98606 27.8325C9.12416 27.989 9.22083 28.1455 9.28528 28.279C9.05971 28.187 8.81112 28.1271 8.54412 28.1271C7.55438 28.1271 6.76258 28.8361 6.76258 29.6969C6.76258 30.5578 7.55898 31.2897 8.54412 31.2897C8.72826 31.2897 8.9078 31.2851 9.07813 31.2207C10.1231 31.2575 10.7676 29.7844 10.7676 28.3159C10.7676 26.7921 10.0679 25.2638 8.39221 25.4203C4.71865 25.761 0.745861 27.9338 5.01327 35.6078C9.28528 43.2725 20.9551 37.3341 22.3683 29.6555C24.4215 18.4461 11.053 25.3098 16.3378 14.0958C18.1331 10.2979 29.5727 4.47455 28.2515 14.5469C28.2515 14.5469 27.9891 15.0901 27.8188 15.0901C27.6485 15.0901 27.3769 14.5469 27.3769 14.5469C27.3585 14.5285 27.3355 14.4871 27.317 14.4364C26.7738 13.4605 25.5539 12.9173 24.6056 13.2441C23.6619 13.5618 23.3396 14.6206 23.8829 15.6011C24.4399 16.5863 25.646 17.111 26.6035 16.8118C26.6587 16.7842 26.7232 16.752 26.783 16.7059C27.6807 16.7796 28.5968 16.3791 29.4254 14.6666C30.2402 13.0002 29.8351 7.14456 24.578 6.08116C24.4123 6.04893 24.2327 6.03052 24.0486 6.03052C19.7397 6.03052 10.0126 14.639 12.3696 21.07" fill="white"/>
</mask>
<g mask="url(#mask3_575_880)">
<path d="M30.2354 4.46997H0.745605V43.2725H30.2354V4.46997Z" fill="url(#paint3_linear_575_880)"/>
</g>
<mask id="mask4_575_880" style="mask-type:luminance" maskUnits="userSpaceOnUse" x="28" y="11" width="32" height="42">
<path d="M52.2032 11.6513C51.0247 11.7066 50.0856 12.6181 50.0856 13.7505C50.0856 14.883 51.0937 15.8681 52.3321 15.8681C53.4001 15.8681 54.2977 15.1592 54.5095 14.2109C61.2305 15.6563 57.7549 25.0428 56.291 30.4841C55.4946 33.4487 53.8328 34.0057 53.331 32.7674C52.4333 28.7164 53.8236 21.5073 50.2145 22.1242L46.4166 24.0669C50.1546 23.2106 48.7229 31.6304 51.775 34.7745C51.6461 35.5755 48.9347 51.3055 36.8966 51.0063C27.211 50.7485 28.279 41.8362 35.2716 39.9442C39.9902 38.6829 41.1963 40.515 41.6014 41.2286L41.5784 41.3805C41.4495 41.3667 41.3298 41.3575 41.1963 41.3575C39.8843 41.3575 38.8209 42.3196 38.8209 43.5119C38.8209 44.7042 39.8889 45.6617 41.1963 45.6617C42.3333 45.6617 43.2724 44.9482 43.5164 43.9814L43.6177 44.0183C46.1726 36.0175 29.2181 36.9151 28.4217 45.6617C28.1271 48.7046 33.2599 55.1955 43.3507 51.4068C53.8788 47.4018 68.5731 15.3617 53.0548 11.7618C52.8845 11.7112 52.7095 11.6743 52.5162 11.6559C52.4794 11.6513 52.4333 11.6467 52.3827 11.6467C52.286 11.6467 52.1939 11.6559 52.1939 11.6559" fill="white"/>
</mask>
<g mask="url(#mask4_575_880)">
<path d="M68.5777 11.6421H27.2156V55.1908H68.5777V11.6421Z" fill="url(#paint4_linear_575_880)"/>
</g>
<mask id="mask5_575_880" style="mask-type:luminance" maskUnits="userSpaceOnUse" x="105" y="20" width="13" height="17">
<path d="M105.35 36.7678C105.35 36.7678 105.35 36.7678 105.35 36.7632C105.35 36.7632 105.35 36.7632 105.35 36.7678ZM105.346 36.7586C105.346 36.7586 105.346 36.754 105.341 36.7494C105.341 36.7494 105.346 36.754 105.346 36.7586ZM105.336 36.7494C105.208 36.5837 105.157 36.5193 105.148 36.5101C105.162 36.5239 105.29 36.6896 105.336 36.7494ZM112.886 20.269C107.836 20.6787 112.38 25.2086 112.38 25.2086C109.82 20.6926 113.379 20.3381 113.729 22.4143C115.077 30.4703 105.355 36.7724 105.355 36.7724C106.165 37.7852 113.678 32.8319 115.151 29.2596C116.32 26.4055 119.437 20.2368 113.664 20.2368C113.42 20.2368 113.162 20.246 112.886 20.269Z" fill="white"/>
</mask>
<g mask="url(#mask5_575_880)">
<path d="M119.437 20.2322H105.148V37.7806H119.437V20.2322Z" fill="url(#paint5_linear_575_880)"/>
</g>
<mask id="mask6_575_880" style="mask-type:luminance" maskUnits="userSpaceOnUse" x="116" y="20" width="15" height="18">
<path d="M119.635 21.7054C119.635 21.7054 119.635 21.687 119.644 21.6593C119.644 21.6732 119.639 21.6916 119.635 21.7054ZM119.644 21.6593C119.644 21.6593 119.644 21.6501 119.644 21.6455C119.644 21.6455 119.644 21.6547 119.644 21.6593ZM119.649 21.6455C119.649 21.6455 119.649 21.6271 119.653 21.6179C119.653 21.6271 119.653 21.6363 119.649 21.6455ZM119.653 21.6179C119.653 21.6179 119.653 21.6133 119.653 21.6087C119.653 21.6087 119.653 21.6133 119.653 21.6179ZM119.653 21.6087C119.653 21.6087 119.653 21.5903 119.658 21.5811C119.658 21.5903 119.658 21.5995 119.653 21.6087ZM119.658 21.5811C119.676 21.4936 119.695 21.3969 119.695 21.3969C119.695 21.3969 119.685 21.443 119.658 21.5811ZM121.785 22.1105C121.38 22.3683 121.251 20.7617 121.251 20.7617L119.635 21.7054C118.788 26.0234 114.981 36.1925 116.946 36.6022C118.963 37.0119 118.82 36.7265 118.963 36.326C119.092 35.9117 118.429 27.0362 122.862 23.3396C123.852 22.5248 131.337 21.153 123.534 34.2774L123 37.2835C123 37.2835 127.976 30.3185 129.855 26.9027C131.254 24.3754 130.37 20.3566 126.724 20.3566C125.431 20.3566 123.792 20.8583 121.785 22.1151" fill="white"/>
</mask>
<g mask="url(#mask6_575_880)">
<path d="M131.337 20.3566H114.981V37.2881H131.337V20.3566Z" fill="url(#paint6_linear_575_880)"/>
</g>
<mask id="mask7_575_880" style="mask-type:luminance" maskUnits="userSpaceOnUse" x="110" y="14" width="6" height="5">
<path d="M110.736 16.4574C110.736 17.5761 111.703 18.483 112.886 18.483C114.069 18.483 115.031 17.5715 115.031 16.4574C115.031 15.3434 114.074 14.4503 112.886 14.4503C111.698 14.4503 110.736 15.3434 110.736 16.4574Z" fill="white"/>
</mask>
<g mask="url(#mask7_575_880)">
<path d="M115.031 14.4503H110.736V18.483H115.031V14.4503Z" fill="url(#paint7_linear_575_880)"/>
</g>
<mask id="mask8_575_880" style="mask-type:luminance" maskUnits="userSpaceOnUse" x="115" y="21" width="30" height="31">
<path d="M132.188 24.8633C130.061 31.6074 132.971 35.5664 134.232 36.2431C137.952 38.2502 140.088 37.8773 140.088 37.8773C138.596 41.8501 137.478 44.6812 130.991 47.5216C120.532 52.0974 115.224 46.2556 116.421 42.5452C117.899 37.9648 123.552 42.048 123.552 42.048L125.306 42.6695C124.229 40.3862 118.967 38.7243 116.822 41.0353C111.712 46.4766 121.467 54.0631 129.73 50.21C145.175 43.001 145.023 30.9675 144.604 28.4034C143.748 23.1831 139.535 22.7273 139.535 22.7273C144.456 24.8173 143.655 33.5869 139.881 34.7009C136.548 35.6584 134.361 31.9849 133.988 29.3563C133.242 24.0715 137.505 23.2751 138.007 25.4111L140.336 26.2398C140.042 24.0807 137.653 21.9954 135.466 21.9954C134.117 21.9954 132.842 22.7918 132.193 24.8633" fill="white"/>
</mask>
<g mask="url(#mask8_575_880)">
<path d="M145.179 21.9907H111.717V54.063H145.179V21.9907Z" fill="url(#paint8_linear_575_880)"/>
</g>
<mask id="mask9_575_880" style="mask-type:luminance" maskUnits="userSpaceOnUse" x="63" y="4" width="43" height="45">
<path d="M71.6713 32.2105C72.1132 32.1736 72.5781 32.2013 73.0661 32.2841C71.9705 35.7781 70.7322 38.2962 68.9368 38.6783C68.5916 38.752 68.2831 38.7842 68.0115 38.7842C64.3057 38.7842 66.9573 32.6064 71.6759 32.2105M83.3871 12.1117C88.6028 3.19945 95.0108 6.12725 90.3107 11.5179C89.7951 12.1117 88.5015 12.3373 86.8259 12.3373C85.7947 12.3373 84.6162 12.2498 83.3871 12.1117ZM83.1201 6.95127C81.6884 8.02387 80.5007 9.62127 79.4879 11.5409C75.354 10.8228 71.6436 9.88367 71.6436 9.88367L65.3185 9.1195C65.3185 9.1195 71.9337 11.4765 78.825 12.8943C76.4405 18.1285 75.0916 25.1395 73.5771 30.5394C70.9577 30.1343 68.4534 30.6085 66.4325 32.5787C64.3794 34.572 60.3468 39.1525 68.0944 41.2517C71.1833 42.0803 73.8395 38.2962 76.0031 33.3107C80.7171 35.6262 87.033 41.1688 95.4896 46.5272C105.092 52.6038 106.938 43.3278 104.397 40.7959C102.731 39.1249 101.304 38.554 100.59 39.4103C99.8629 39.7371 99.3611 40.4368 99.3611 41.2424C99.3611 42.3703 100.319 43.268 101.497 43.268C102.1 43.268 102.643 43.0332 103.035 42.6603C106.883 49.2018 97.2251 46.6791 88.6304 39.1571C86.1353 36.9704 81.5043 33.2094 76.7811 31.4187C79.4419 24.6009 81.2741 16.4528 82.158 14.4825C82.3053 14.1649 82.448 13.8611 82.5999 13.5664C89.8503 14.5976 96.1018 13.8657 93.616 7.34716C93.616 7.34716 92.1152 4.64954 88.856 4.64954C87.3368 4.64954 85.431 5.23418 83.1155 6.96047" fill="white"/>
</mask>
<g mask="url(#mask9_575_880)">
<path d="M106.938 3.19946H60.3467V52.6084H106.938V3.19946Z" fill="url(#paint9_linear_575_880)"/>
</g>
<mask id="mask10_575_880" style="mask-type:luminance" maskUnits="userSpaceOnUse" x="86" y="21" width="10" height="17">
<path d="M88.1609 29.8397C89.7122 33.099 94.5873 38.241 95.4436 37.3341C95.9269 36.8047 95.6875 36.036 95.6875 36.036C95.6875 36.036 87.6729 31.2253 89.6524 23.5882C90.1588 21.71 93.7817 22.0092 91.0749 26.1385C91.0749 26.1385 95.8671 21.9954 90.5547 21.6179C90.2647 21.5995 89.9885 21.5857 89.7307 21.5857C83.6265 21.5857 86.9226 27.2341 88.1655 29.8443" fill="white"/>
</mask>
<g mask="url(#mask10_575_880)">
<path d="M95.9223 21.5811H83.6218V38.241H95.9223V21.5811Z" fill="url(#paint10_linear_575_880)"/>
</g>
<mask id="mask11_575_880" style="mask-type:luminance" maskUnits="userSpaceOnUse" x="93" y="21" width="16" height="16">
<path d="M102.427 24.4673L102.689 25.1026C104.439 22.4326 106.031 23.8827 105.893 26.5711C105.801 28.477 103.955 33.1725 100.079 34.5627C99.1907 30.4979 100.586 23.3027 96.9627 23.9195L93.1648 25.8576C96.9534 24.9967 95.4435 33.6052 98.6153 36.6619L101.133 36.708C101.074 36.6481 101.004 36.5837 100.954 36.5146C109.779 31.414 109.567 22.893 106.897 21.8158C106.727 21.7467 106.542 21.7145 106.358 21.7145C104.618 21.7145 102.422 24.4627 102.422 24.4627" fill="white"/>
</mask>
<g mask="url(#mask11_575_880)">
<path d="M109.779 21.7192H93.1648V36.7127H109.779V21.7192Z" fill="url(#paint11_linear_575_880)"/>
</g>
<mask id="mask12_575_880" style="mask-type:luminance" maskUnits="userSpaceOnUse" x="23" y="20" width="23" height="17">
<path d="M31.2898 23.1877C35.1889 23.4501 26.9809 30.1665 26.9809 30.1665L26.1707 30.3783C26.1155 26.7968 28.606 23.0174 31.2898 23.1877ZM40.1653 23.068L40.4369 23.7125C42.1816 21.0333 44.336 23.1877 43.2588 25.3467C41.6706 28.5369 32.2289 38.4344 28.0582 34.7608C27.073 33.8861 26.516 32.7675 26.2904 31.5706C27.0822 31.1379 32.4775 28.0259 33.8401 23.312C34.1854 22.1565 31.7363 17.8062 28.1963 22.1749C22.9483 28.6612 21.3923 38.0431 29.6786 36.6528C38.0108 35.2626 49.5885 25.4664 44.336 20.5269C44.138 20.3381 43.9125 20.2599 43.6639 20.2599C42.2138 20.2599 40.1607 23.068 40.1607 23.068" fill="white"/>
</mask>
<g mask="url(#mask12_575_880)">
<path d="M49.5885 17.8063H21.3923V38.4344H49.5885V17.8063Z" fill="url(#paint12_linear_575_880)"/>
</g>
<mask id="mask13_575_880" style="mask-type:luminance" maskUnits="userSpaceOnUse" x="34" y="23" width="14" height="15">
<path d="M34.9172 24.9692C38.9591 26.6173 39.088 41.6061 47.968 37.0395L47.3005 36.395C43.1298 40.9709 39.7647 25.5999 36.8001 23.068L34.9172 24.9692Z" fill="white"/>
</mask>
<g mask="url(#mask13_575_880)">
<path d="M47.968 23.068H34.9172V41.6061H47.968V23.068Z" fill="url(#paint13_linear_575_880)"/>
</g>
<mask id="mask14_575_880" style="mask-type:luminance" maskUnits="userSpaceOnUse" x="120" y="33" width="4" height="5">
<path d="M120.845 35.6446C120.845 36.6527 121.725 37.3387 122.457 37.3387C123.189 37.3387 123.787 36.5238 123.787 35.5157C123.787 34.5075 123.198 33.6881 122.457 33.6881C121.716 33.6881 120.845 34.6364 120.845 35.6446Z" fill="white"/>
</mask>
<g mask="url(#mask14_575_880)">
<path d="M123.787 33.6881H120.845V37.3341H123.787V33.6881Z" fill="url(#paint14_linear_575_880)"/>
</g>
<mask id="mask15_575_880" style="mask-type:luminance" maskUnits="userSpaceOnUse" x="85" y="16" width="6" height="5">
<path d="M85.8823 18.2389C85.8823 19.3437 86.8398 20.2644 88.0137 20.2644C89.1876 20.2644 90.1635 19.3391 90.1635 18.2389C90.1635 17.1387 89.206 16.2134 88.0137 16.2134C86.8214 16.2134 85.8823 17.1064 85.8823 18.2389Z" fill="white"/>
</mask>
<g mask="url(#mask15_575_880)">
<path d="M90.1635 16.2134H85.8823V20.2644H90.1635V16.2134Z" fill="url(#paint15_linear_575_880)"/>
</g>
<mask id="mask16_575_880" style="mask-type:luminance" maskUnits="userSpaceOnUse" x="136" y="25" width="5" height="4">
<path d="M137.69 25.6643C136.714 26.2444 136.322 27.2986 136.815 28.0029C137.298 28.7118 138.477 28.8039 139.453 28.2054C140.419 27.63 140.815 26.5712 140.332 25.8623C140.056 25.471 139.568 25.2684 139.025 25.2684C138.592 25.2684 138.122 25.3973 137.69 25.6643Z" fill="white"/>
</mask>
<g mask="url(#mask16_575_880)">
<path d="M140.815 25.2684H136.322V28.8085H140.815V25.2684Z" fill="url(#paint16_linear_575_880)"/>
</g>
<mask id="mask17_575_880" style="mask-type:luminance" maskUnits="userSpaceOnUse" x="122" y="42" width="5" height="4">
<path d="M122.194 44.0044C122.194 45.0402 123.037 45.8827 124.086 45.8827C125.136 45.8827 126.001 45.0402 126.001 44.0044C126.001 42.9687 125.136 42.1124 124.086 42.1124C123.037 42.1124 122.194 42.9549 122.194 44.0044Z" fill="white"/>
</mask>
<g mask="url(#mask17_575_880)">
<path d="M126.006 42.1124H122.194V45.8873H126.006V42.1124Z" fill="url(#paint17_linear_575_880)"/>
</g>
<mask id="mask18_575_880" style="mask-type:luminance" maskUnits="userSpaceOnUse" x="112" y="21" width="4" height="11">
<path d="M114.792 22.2531C115.354 25.6182 114.198 28.6611 112.532 31.1378C113.277 30.369 113.853 29.591 114.152 28.8729L114.465 28.1179C115.197 26.3916 116.56 23.1738 115.694 21.9677C115.441 21.6178 114.976 21.4429 114.456 21.3646C114.608 21.6454 114.728 21.9355 114.787 22.2577" fill="white"/>
</mask>
<g mask="url(#mask18_575_880)">
<path d="M116.564 21.3555H112.532V31.1332H116.564V21.3555Z" fill="url(#paint18_linear_575_880)"/>
</g>
<mask id="mask19_575_880" style="mask-type:luminance" maskUnits="userSpaceOnUse" x="119" y="22" width="3" height="4">
<path d="M119.685 25.8761C120.15 24.8771 120.744 23.9564 121.504 23.1554C121.379 23.1416 121.269 23.1416 121.158 23.0956C121.02 23.0219 120.776 22.8976 120.565 22.4741C120.353 23.4547 120.04 24.6193 119.685 25.8761Z" fill="white"/>
</mask>
<g mask="url(#mask19_575_880)">
<path d="M121.499 22.4741H119.685V25.8761H121.499V22.4741Z" fill="url(#paint19_linear_575_880)"/>
</g>
<mask id="mask20_575_880" style="mask-type:luminance" maskUnits="userSpaceOnUse" x="121" y="34" width="2" height="3">
<path d="M121.923 35.6446C121.923 36.0313 122.245 36.2385 122.415 36.2707L122.466 36.2155C122.507 36.174 122.54 36.128 122.577 36.0359L122.613 35.9761L122.664 35.9024C122.738 35.8103 122.825 35.6722 122.894 35.5802L122.563 34.9495C122.512 34.8574 122.461 34.8114 122.434 34.7792C122.25 34.8528 121.918 35.2487 121.918 35.6446" fill="white"/>
</mask>
<g mask="url(#mask20_575_880)">
<path d="M122.899 34.7745H121.923V36.2661H122.899V34.7745Z" fill="url(#paint20_linear_575_880)"/>
</g>
<mask id="mask21_575_880" style="mask-type:luminance" maskUnits="userSpaceOnUse" x="117" y="31" width="2" height="5">
<path d="M117.466 35.6078C117.637 35.6446 117.789 35.6677 117.908 35.6953V35.6262C117.908 34.7332 117.936 33.0989 118.18 31.2714C117.706 33.1358 117.351 34.8851 117.466 35.6078Z" fill="white"/>
</mask>
<g mask="url(#mask21_575_880)">
<path d="M118.185 31.2714H117.356V35.6907H118.185V31.2714Z" fill="url(#paint21_linear_575_880)"/>
</g>
<mask id="mask22_575_880" style="mask-type:luminance" maskUnits="userSpaceOnUse" x="124" y="21" width="6" height="8">
<path d="M124.865 21.7928C125.619 21.8296 126.374 22.0414 126.982 22.5616C128.372 23.7401 128.483 25.8577 127.364 28.9604C127.967 28.0029 128.515 27.1144 128.916 26.3871C129.703 24.9462 129.532 23.0311 128.543 22.092C128.087 21.6593 127.47 21.4521 126.724 21.4521C126.167 21.4521 125.546 21.5672 124.865 21.7928Z" fill="white"/>
</mask>
<g mask="url(#mask22_575_880)">
<path d="M129.703 21.4521H124.865V28.9604H129.703V21.4521Z" fill="url(#paint22_linear_575_880)"/>
</g>
<mask id="mask23_575_880" style="mask-type:luminance" maskUnits="userSpaceOnUse" x="86" y="17" width="4" height="3">
<path d="M86.9502 18.2389C86.9502 18.7545 87.4336 19.1872 88.0182 19.1872C88.6028 19.1872 89.0954 18.7545 89.0954 18.2389C89.0954 17.7233 88.612 17.286 88.0182 17.286C87.4243 17.286 86.9502 17.7095 86.9502 18.2389Z" fill="white"/>
</mask>
<g mask="url(#mask23_575_880)">
<path d="M89.0954 17.2908H86.9502V19.192H89.0954V17.2908Z" fill="url(#paint23_linear_575_880)"/>
</g>
<mask id="mask24_575_880" style="mask-type:luminance" maskUnits="userSpaceOnUse" x="111" y="15" width="3" height="3">
<path d="M111.813 16.4574C111.813 16.9868 112.288 17.4149 112.886 17.4149C113.485 17.4149 113.954 16.9868 113.954 16.4574C113.954 15.928 113.471 15.5183 112.886 15.5183C112.301 15.5183 111.813 15.9418 111.813 16.4574Z" fill="white"/>
</mask>
<g mask="url(#mask24_575_880)">
<path d="M113.949 15.5228H111.813V17.4148H113.949V15.5228Z" fill="url(#paint24_linear_575_880)"/>
</g>
<mask id="mask25_575_880" style="mask-type:luminance" maskUnits="userSpaceOnUse" x="13" y="7" width="14" height="15">
<path d="M16.1491 12.2452C13.5343 15.2973 12.5169 18.377 13.3686 20.7018C13.4975 21.0654 14.6161 21.4015 15.5644 21.6547C15.0074 21.2082 14.5424 20.6742 14.2616 19.91C13.7 18.4046 14.0453 16.4067 15.3573 13.6309C16.6969 10.7859 22.6491 6.97886 26.3825 8.05146C26.4516 8.07908 26.5206 8.1021 26.5943 8.12512C25.9682 7.64175 25.2225 7.29649 24.357 7.13537C24.2511 7.11696 24.1407 7.10315 24.0164 7.10315C22.3131 7.10315 18.8697 9.06422 16.1537 12.2452" fill="white"/>
</mask>
<g mask="url(#mask25_575_880)">
<path d="M26.5943 6.9834H12.5215V21.6592H26.5943V6.9834Z" fill="url(#paint25_linear_575_880)"/>
</g>
<mask id="mask26_575_880" style="mask-type:luminance" maskUnits="userSpaceOnUse" x="6" y="23" width="16" height="16">
<path d="M20.2369 29.5772C19.2886 33.0851 16.2549 37.2098 10.7768 37.3755C9.26689 37.4077 7.76616 36.8783 6.49561 35.8978C8.16206 38.1028 10.4914 38.287 12.2499 37.9969C16.4989 37.288 20.5684 33.4671 21.3049 29.4575C21.8896 26.2857 21.176 24.9047 19.9055 23.984C20.6605 25.4065 20.8124 27.3906 20.2369 29.5772Z" fill="white"/>
</mask>
<g mask="url(#mask26_575_880)">
<path d="M21.885 23.984H6.49561V38.2824H21.885V23.984Z" fill="url(#paint26_linear_575_880)"/>
</g>
<mask id="mask27_575_880" style="mask-type:luminance" maskUnits="userSpaceOnUse" x="7" y="29" width="3" height="2">
<path d="M7.83521 29.697C7.83521 29.9548 8.12062 30.2264 8.53953 30.2264C8.627 30.2264 8.70986 30.2034 8.78812 30.1896C8.78812 30.1896 8.91241 30.1481 8.97226 30.1481H9.11036C9.22545 30.1021 9.37276 29.8581 9.49245 29.5128L8.88019 29.2551C8.77431 29.2274 8.66383 29.2136 8.54414 29.2136C8.12522 29.2136 7.83981 29.4714 7.83981 29.697" fill="white"/>
</mask>
<g mask="url(#mask27_575_880)">
<path d="M9.48785 29.2181H7.83521V30.2309H9.48785V29.2181Z" fill="url(#paint27_linear_575_880)"/>
</g>
<mask id="mask28_575_880" style="mask-type:luminance" maskUnits="userSpaceOnUse" x="43" y="21" width="2" height="3">
<path d="M43.0883 21.581C43.1574 21.6271 43.2264 21.6547 43.3001 21.6961C44.0044 22.0874 44.428 22.8055 44.5661 23.6342C44.5661 23.6111 44.5753 23.5789 44.5753 23.5605C44.5937 22.6997 44.276 21.9769 43.6177 21.337C43.4981 21.3554 43.3047 21.4337 43.0837 21.581" fill="white"/>
</mask>
<g mask="url(#mask28_575_880)">
<path d="M44.5986 21.337H43.0886V23.6342H44.5986V21.337Z" fill="url(#paint28_linear_575_880)"/>
</g>
<mask id="mask29_575_880" style="mask-type:luminance" maskUnits="userSpaceOnUse" x="36" y="24" width="2" height="3">
<path d="M36.5701 24.8402C36.9429 25.2085 37.2744 25.6643 37.5874 26.1936C37.2928 25.6044 37.0028 25.0888 36.7312 24.6515L36.5701 24.8402Z" fill="white"/>
</mask>
<g mask="url(#mask29_575_880)">
<path d="M37.5874 24.6515H36.5701V26.1936H37.5874V24.6515Z" fill="url(#paint29_linear_575_880)"/>
</g>
<mask id="mask30_575_880" style="mask-type:luminance" maskUnits="userSpaceOnUse" x="39" y="30" width="3" height="5">
<path d="M39.866 31.253L40.1653 31.9389C40.4783 32.6524 40.8328 33.389 41.2379 34.0611C40.8235 33.2831 40.4 32.4038 39.9581 31.4325L39.8798 31.2391L39.8706 31.253H39.866ZM39.866 31.2576L39.8522 31.2207C39.8522 31.2207 39.8062 31.1195 39.7555 30.9906L39.866 31.2576ZM39.7141 30.8893C39.7279 30.9215 39.7417 30.9583 39.7555 30.9906L39.7141 30.8893Z" fill="white"/>
</mask>
<g mask="url(#mask30_575_880)">
<path d="M41.2333 30.8893H39.7141V34.0565H41.2333V30.8893Z" fill="url(#paint30_linear_575_880)"/>
</g>
<mask id="mask31_575_880" style="mask-type:luminance" maskUnits="userSpaceOnUse" x="24" y="30" width="4" height="6">
<path d="M25.3972 34.4661C25.7977 35.1429 26.5159 35.5157 27.4642 35.6446C27.4319 35.6078 27.3813 35.5802 27.3537 35.5526C26.2535 34.5812 25.5583 33.26 25.2775 31.7271L25.1072 30.7742C24.8218 32.2841 24.8954 33.5869 25.4018 34.4661" fill="white"/>
</mask>
<g mask="url(#mask31_575_880)">
<path d="M27.4598 30.7742H24.8174V35.6446H27.4598V30.7742Z" fill="url(#paint31_linear_575_880)"/>
</g>
<mask id="mask32_575_880" style="mask-type:luminance" maskUnits="userSpaceOnUse" x="29" y="21" width="4" height="2">
<path d="M29.2551 22.58C29.941 22.2485 30.6454 22.0782 31.3589 22.1196C31.9159 22.1518 32.3026 22.3038 32.6064 22.4833C32.4131 22.0874 32.0817 21.5902 31.5983 21.4015C31.474 21.3555 31.3497 21.337 31.2254 21.337C30.5073 21.337 29.7615 22.0137 29.2551 22.58Z" fill="white"/>
</mask>
<g mask="url(#mask32_575_880)">
<path d="M32.611 21.337H29.2551V22.5754H32.611V21.337Z" fill="url(#paint32_linear_575_880)"/>
</g>
<mask id="mask33_575_880" style="mask-type:luminance" maskUnits="userSpaceOnUse" x="132" y="23" width="12" height="18">
<path d="M133.206 25.1809C131.18 31.6488 134.122 34.9587 134.748 35.3039C138.007 37.0624 139.904 36.8185 139.904 36.8185L141.759 36.5008L141.096 38.2686C140.792 39.0465 140.507 39.7969 140.198 40.5196C142.348 37.4215 143.172 34.4016 143.476 32.1644C142.832 33.9597 141.662 35.2809 140.18 35.7136C138.799 36.1233 137.441 35.9162 136.23 35.1566C134.32 33.9183 133.178 31.4324 132.916 29.5174C132.391 25.7195 134.163 23.6249 136.032 23.2751C136.166 23.2521 136.281 23.2521 136.414 23.2521C136.115 23.1416 135.797 23.0679 135.507 23.0587C135.494 23.0587 135.48 23.0587 135.471 23.0587C134.412 23.0587 133.661 23.7769 133.21 25.1809" fill="white"/>
</mask>
<g mask="url(#mask33_575_880)">
<path d="M143.476 23.0587H131.18V40.5196H143.476V23.0587Z" fill="url(#paint33_linear_575_880)"/>
</g>
<mask id="mask34_575_880" style="mask-type:luminance" maskUnits="userSpaceOnUse" x="123" y="42" width="2" height="3">
<path d="M124.008 43.2081C123.575 43.2679 123.262 43.5948 123.262 44.0045C123.262 44.4142 123.635 44.7963 124.091 44.7963C124.547 44.7963 124.919 44.4326 124.919 44.0045C124.919 43.6776 124.708 43.4843 124.574 43.3738L124.395 43.2495L124.284 43.0378C124.224 42.9365 124.151 42.8444 124.072 42.757L124.013 43.2127L124.008 43.2081Z" fill="white"/>
</mask>
<g mask="url(#mask34_575_880)">
<path d="M124.915 42.757H123.262V44.7963H124.915V42.757Z" fill="url(#paint34_linear_575_880)"/>
</g>
<mask id="mask35_575_880" style="mask-type:luminance" maskUnits="userSpaceOnUse" x="64" y="5" width="25" height="36">
<path d="M83.7645 7.82129C82.563 8.71897 81.4766 10.1092 80.45 12.0335L80.1186 12.6918L79.8148 13.3408C78.1253 17.0282 76.9744 21.6087 75.865 26.0372C75.4323 27.7175 75.0364 29.3241 74.6128 30.8294L74.4333 31.4509H74.4517L74.0788 32.6155C73.0707 35.8334 71.6896 39.2031 69.1531 39.7233C67.2289 40.133 66.2484 39.5069 65.7604 38.9177C65.0745 38.0937 65.0008 36.8277 65.567 35.4927C65.7051 35.1613 65.9123 34.8068 66.1333 34.4661C64.6924 36.151 64.499 37.2282 64.6602 37.8313C64.9088 38.798 66.1931 39.6266 68.3752 40.2205C70.9347 40.9018 73.3929 36.6067 75.018 32.8917L75.4 31.9987L75.7729 31.0227C77.3427 27.0269 78.6547 22.4465 79.603 19.109C80.2981 16.6737 80.7907 14.9106 81.1958 14.0452C81.3293 13.7552 81.4582 13.4559 81.6515 13.0738L81.693 12.9956L81.6423 12.9864L82.4756 11.5639C84.4412 8.20799 86.568 6.47248 88.3496 5.73132C86.9593 5.89705 85.4402 6.58757 83.7691 7.8259" fill="white"/>
</mask>
<g mask="url(#mask35_575_880)">
<path d="M88.3498 5.72668H64.4993V40.8971H88.3498V5.72668Z" fill="url(#paint35_linear_575_880)"/>
</g>
<mask id="mask36_575_880" style="mask-type:luminance" maskUnits="userSpaceOnUse" x="77" y="32" width="12" height="9">
<path d="M77.4258 32.855C79.8472 34.19 82.6277 36.1971 85.7719 38.485C86.6879 39.1571 87.6455 39.8568 88.6214 40.552C88.4004 40.354 88.1611 40.1561 87.9263 39.9765C84.1652 36.6666 80.5653 34.2314 77.4258 32.855Z" fill="white"/>
</mask>
<g mask="url(#mask36_575_880)">
<path d="M88.6214 32.855H77.4258V40.552H88.6214V32.855Z" fill="url(#paint36_linear_575_880)"/>
</g>
<mask id="mask37_575_880" style="mask-type:luminance" maskUnits="userSpaceOnUse" x="90" y="8" width="4" height="5">
<path d="M91.1302 12.2359C91.0703 12.2958 90.9966 12.3602 90.9092 12.4247C91.8667 12.1393 92.3823 11.7434 92.6401 11.3981C93.1142 10.8227 93.2109 9.94802 92.9531 8.83398C92.7644 9.88818 92.1383 11.0667 91.1302 12.2359Z" fill="white"/>
</mask>
<g mask="url(#mask37_575_880)">
<path d="M93.2155 8.83398H90.9092V12.4247H93.2155V8.83398Z" fill="url(#paint37_linear_575_880)"/>
</g>
<mask id="mask38_575_880" style="mask-type:luminance" maskUnits="userSpaceOnUse" x="81" y="12" width="10" height="2">
<path d="M81.6885 12.991L83.2721 13.1751C88.4187 13.746 90.1404 13.1291 90.9092 12.4202C89.4775 12.8897 87.0101 13.1015 82.7657 12.4938L81.9877 12.3879L81.6885 12.991Z" fill="white"/>
</mask>
<g mask="url(#mask38_575_880)">
<path d="M90.9092 12.3925H81.6885V13.7505H90.9092V12.3925Z" fill="url(#paint38_linear_575_880)"/>
</g>
<mask id="mask39_575_880" style="mask-type:luminance" maskUnits="userSpaceOnUse" x="66" y="31" width="9" height="4">
<path d="M71.5838 31.1332C69.1348 31.3403 67.2013 32.8549 66.1333 34.4615C66.4325 34.1254 66.7686 33.7433 67.1783 33.352C68.7941 31.773 70.8242 31.1976 73.416 31.6027L74.3551 31.7408L74.4379 31.4508L73.241 31.2298C72.7899 31.1516 72.3848 31.1147 72.0211 31.1147C71.8738 31.1147 71.7265 31.1193 71.5884 31.1332" fill="white"/>
</mask>
<g mask="url(#mask39_575_880)">
<path d="M74.4333 31.1196H66.1333V34.4663H74.4333V31.1196Z" fill="url(#paint39_linear_575_880)"/>
</g>
<mask id="mask40_575_880" style="mask-type:luminance" maskUnits="userSpaceOnUse" x="87" y="22" width="2" height="7">
<path d="M87.4336 23.3488C86.7891 24.2925 87.7789 26.5666 88.5016 28.1041C88.2024 26.6448 88.1702 25.0428 88.6121 23.3073C88.6719 23.1048 88.764 22.9022 88.8653 22.7273C88.1609 22.8194 87.6454 23.0127 87.4336 23.3488Z" fill="white"/>
</mask>
<g mask="url(#mask40_575_880)">
<path d="M88.8652 22.7319H86.7891V28.1088H88.8652V22.7319Z" fill="url(#paint40_linear_575_880)"/>
</g>
<mask id="mask41_575_880" style="mask-type:luminance" maskUnits="userSpaceOnUse" x="105" y="22" width="3" height="10">
<path d="M105.686 23.0034C106.566 23.6387 107.058 24.9461 106.971 26.6448C106.911 27.7818 106.368 29.6094 105.286 31.3725C106.971 29.08 107.551 26.746 107.431 24.9875C107.344 23.7262 106.888 22.9758 106.506 22.8239C106.455 22.8055 106.4 22.7963 106.34 22.7963C106.165 22.7963 105.944 22.8745 105.691 23.008" fill="white"/>
</mask>
<g mask="url(#mask41_575_880)">
<path d="M107.555 22.7917H105.291V31.368H107.555V22.7917Z" fill="url(#paint41_linear_575_880)"/>
</g>
<mask id="mask42_575_880" style="mask-type:luminance" maskUnits="userSpaceOnUse" x="95" y="24" width="5" height="12">
<path d="M97.2665 24.9692L95.7566 25.738C96.622 26.7922 96.9627 28.4724 97.3264 30.3645C97.6993 32.2841 98.1228 34.3833 99.1079 35.6078H99.2092L99.0389 34.793C98.7304 33.4166 98.6798 31.7869 98.6153 30.2079C98.5417 28.1916 98.445 25.6689 97.7269 25.0613C97.6854 25.0244 97.5934 24.9646 97.3954 24.9646C97.3586 24.9646 97.3126 24.9646 97.2665 24.9738" fill="white"/>
</mask>
<g mask="url(#mask42_575_880)">
<path d="M99.2092 24.96H95.7566V35.6032H99.2092V24.96Z" fill="url(#paint42_linear_575_880)"/>
</g>
<mask id="mask43_575_880" style="mask-type:luminance" maskUnits="userSpaceOnUse" x="39" y="41" width="4" height="4">
<path d="M42.5037 42.6189L41.4265 42.4347C41.339 42.4347 41.2746 42.4347 41.2055 42.4347C40.4874 42.4347 39.8936 42.9043 39.8936 43.5119C39.8936 44.1196 40.4874 44.5983 41.2055 44.5983C41.8224 44.5983 42.3564 44.2209 42.4853 43.7329L42.7569 42.5912L42.7845 42.6189C42.8075 42.2506 42.7569 41.9099 42.6464 41.6245L42.5037 42.6189Z" fill="white"/>
</mask>
<g mask="url(#mask43_575_880)">
<path d="M42.8075 41.6245H39.8936V44.5983H42.8075V41.6245Z" fill="url(#paint43_linear_575_880)"/>
</g>
<mask id="mask44_575_880" style="mask-type:luminance" maskUnits="userSpaceOnUse" x="51" y="12" width="3" height="3">
<path d="M52.2677 12.724C51.6555 12.7562 51.1721 13.2074 51.1721 13.7506C51.1721 14.326 51.6923 14.7956 52.3414 14.7956C52.8846 14.7956 53.368 14.4503 53.4785 13.9808L53.6902 13.0739C53.3772 12.968 53.0687 12.8621 52.7327 12.7885C52.6498 12.7608 52.5486 12.747 52.3874 12.7102L52.2677 12.724Z" fill="white"/>
</mask>
<g mask="url(#mask44_575_880)">
<path d="M53.6902 12.7102H51.1721V14.7956H53.6902V12.7102Z" fill="url(#paint44_linear_575_880)"/>
</g>
<mask id="mask45_575_880" style="mask-type:luminance" maskUnits="userSpaceOnUse" x="47" y="23" width="10" height="24">
<path d="M50.5323 23.1693L49.0086 23.9427C49.874 24.983 50.2055 26.6771 50.5784 28.5783C50.9697 30.5901 51.4162 32.8734 52.544 34.0196L52.9169 34.4247L52.8387 34.9587C52.7696 35.3961 51.6187 42.0895 47.6091 46.9738C50.8131 43.6961 53.9941 38.6323 56.1439 33.3107C55.6007 34.0012 54.9563 34.3971 54.2519 34.4432C53.4141 34.503 52.6775 34.0104 52.3369 33.1772L52.3093 33.0851L52.2862 33.0069C51.9824 31.6258 51.9226 29.9916 51.8627 28.4172C51.7891 26.3917 51.7016 23.8506 50.9835 23.2706C50.942 23.2383 50.8454 23.1647 50.6336 23.1647C50.6014 23.1647 50.5646 23.1647 50.5277 23.1693" fill="white"/>
</mask>
<g mask="url(#mask45_575_880)">
<path d="M56.1486 23.1647H47.6138V46.9738H56.1486V23.1647Z" fill="url(#paint45_linear_575_880)"/>
</g>
<mask id="mask46_575_880" style="mask-type:luminance" maskUnits="userSpaceOnUse" x="137" y="26" width="3" height="2">
<path d="M138.537 26.4745C138.495 26.4837 138.454 26.4975 138.417 26.5113C138.357 26.539 138.279 26.5574 138.256 26.5712C137.901 26.7968 137.731 27.0592 137.68 27.2525C137.671 27.3262 137.671 27.3722 137.699 27.4136C137.8 27.5517 138.343 27.63 138.886 27.2985C139.241 27.0868 139.411 26.8152 139.453 26.6172C139.462 26.5712 139.453 26.5436 139.434 26.516L139.416 26.4791L139.255 26.2812L139.222 26.2075L138.537 26.4699V26.4745Z" fill="white"/>
</mask>
<g mask="url(#mask46_575_880)">
<path d="M139.466 26.2075H137.671V27.63H139.466V26.2075Z" fill="url(#paint46_linear_575_880)"/>
</g>
<mask id="mask47_575_880" style="mask-type:luminance" maskUnits="userSpaceOnUse" x="95" y="45" width="7" height="3">
<path d="M95.7107 45.3856C95.835 45.473 95.9455 45.5513 96.0652 45.6112C98.2702 47.0014 100.135 47.6183 101.548 47.4525C99.9275 47.2868 97.8789 46.5272 95.7107 45.381V45.3856Z" fill="white"/>
</mask>
<g mask="url(#mask47_575_880)">
<path d="M101.553 45.3855H95.7153V47.6182H101.553V45.3855Z" fill="url(#paint47_linear_575_880)"/>
</g>
<mask id="mask48_575_880" style="mask-type:luminance" maskUnits="userSpaceOnUse" x="100" y="40" width="4" height="3">
<path d="M101.428 40.0962V40.11L101.258 40.308L101.037 40.4138C100.664 40.5796 100.434 40.8972 100.434 41.2471C100.434 41.7672 100.917 42.1862 101.502 42.1862C101.806 42.1862 102.086 42.0941 102.284 41.8823L103.131 41.0813C102.165 40.2297 101.612 40.0962 101.451 40.0962C101.442 40.0962 101.433 40.0962 101.428 40.0962Z" fill="white"/>
</mask>
<g mask="url(#mask48_575_880)">
<path d="M103.131 40.0962H100.429V42.1862H103.131V40.0962Z" fill="url(#paint48_linear_575_880)"/>
</g>
<mask id="mask49_575_880" style="mask-type:luminance" maskUnits="userSpaceOnUse" x="24" y="14" width="3" height="2">
<path d="M24.9416 14.2523C24.7805 14.2937 24.7391 14.4042 24.7068 14.4641C24.647 14.616 24.6884 14.8415 24.8081 15.0671C25.135 15.6379 25.8393 15.9234 26.2536 15.7714C26.2628 15.7714 26.4515 15.7714 26.5989 15.5505C26.6863 15.3986 26.2076 14.2017 25.2777 14.2017C25.1718 14.2017 25.0613 14.2155 24.9462 14.2523" fill="white"/>
</mask>
<g mask="url(#mask49_575_880)">
<path d="M26.6817 14.2017H24.647V15.9234H26.6817V14.2017Z" fill="url(#paint49_linear_575_880)"/>
</g>
</g>
<defs>
<linearGradient id="paint0_linear_575_880" x1="8.68122" y1="36.2092" x2="142.929" y2="36.2092" gradientUnits="userSpaceOnUse">
<stop stop-color="#F2C968"/>
<stop offset="0.3" stop-color="#D0A151"/>
<stop offset="0.46" stop-color="#BD8A44"/>
<stop offset="0.56" stop-color="#FFE29C"/>
<stop offset="1" stop-color="#F2C85D"/>
</linearGradient>
<linearGradient id="paint1_linear_575_880" x1="119.641" y1="21.1413" x2="119.641" y2="21.1413" gradientUnits="userSpaceOnUse">
<stop stop-color="#F2C968"/>
<stop offset="0.3" stop-color="#D0A151"/>
<stop offset="0.46" stop-color="#BD8A44"/>
<stop offset="0.56" stop-color="#FFE29C"/>
<stop offset="1" stop-color="#F2C85D"/>
</linearGradient>
<linearGradient id="paint2_linear_575_880" x1="72.8623" y1="-6.35942" x2="72.8623" y2="65.1461" gradientUnits="userSpaceOnUse">
<stop stop-color="#F2C968"/>
<stop offset="0.3" stop-color="#D0A151"/>
<stop offset="0.46" stop-color="#BD8A44"/>
<stop offset="0.56" stop-color="#FFE29C"/>
<stop offset="1" stop-color="#F2C85D"/>
</linearGradient>
<linearGradient id="paint3_linear_575_880" x1="15.1995" y1="45.9366" x2="15.1995" y2="6.52634" gradientUnits="userSpaceOnUse">
<stop stop-color="#F2C968"/>
<stop offset="0.3" stop-color="#D0A151"/>
<stop offset="0.46" stop-color="#BD8A44"/>
<stop offset="0.56" stop-color="#FFE29C"/>
<stop offset="1" stop-color="#F2C85D"/>
</linearGradient>
<linearGradient id="paint4_linear_575_880" x1="47.9101" y1="45.9365" x2="47.9101" y2="6.52626" gradientUnits="userSpaceOnUse">
<stop stop-color="#F2C968"/>
<stop offset="0.3" stop-color="#D0A151"/>
<stop offset="0.46" stop-color="#BD8A44"/>
<stop offset="0.56" stop-color="#FFE29C"/>
<stop offset="1" stop-color="#F2C85D"/>
</linearGradient>
<linearGradient id="paint5_linear_575_880" x1="112.149" y1="45.9365" x2="112.149" y2="6.52629" gradientUnits="userSpaceOnUse">
<stop stop-color="#F2C968"/>
<stop offset="0.3" stop-color="#D0A151"/>
<stop offset="0.46" stop-color="#BD8A44"/>
<stop offset="0.56" stop-color="#FFE29C"/>
<stop offset="1" stop-color="#F2C85D"/>
</linearGradient>
<linearGradient id="paint6_linear_575_880" x1="123.184" y1="46.3307" x2="123.184" y2="6.52639" gradientUnits="userSpaceOnUse">
<stop stop-color="#F2C968"/>
<stop offset="0.3" stop-color="#D0A151"/>
<stop offset="0.46" stop-color="#BD8A44"/>
<stop offset="0.56" stop-color="#FFE29C"/>
<stop offset="1" stop-color="#F2C85D"/>
</linearGradient>
<linearGradient id="paint7_linear_575_880" x1="112.937" y1="46.3307" x2="112.937" y2="6.52638" gradientUnits="userSpaceOnUse">
<stop stop-color="#F2C968"/>
<stop offset="0.3" stop-color="#D0A151"/>
<stop offset="0.46" stop-color="#BD8A44"/>
<stop offset="0.56" stop-color="#FFE29C"/>
<stop offset="1" stop-color="#F2C85D"/>
</linearGradient>
<linearGradient id="paint8_linear_575_880" x1="128.307" y1="45.9365" x2="128.307" y2="6.52631" gradientUnits="userSpaceOnUse">
<stop stop-color="#F2C968"/>
<stop offset="0.3" stop-color="#D0A151"/>
<stop offset="0.46" stop-color="#BD8A44"/>
<stop offset="0.56" stop-color="#FFE29C"/>
<stop offset="1" stop-color="#F2C85D"/>
</linearGradient>
<linearGradient id="paint9_linear_575_880" x1="83.3793" y1="45.9366" x2="83.3793" y2="6.52638" gradientUnits="userSpaceOnUse">
<stop stop-color="#F2C968"/>
<stop offset="0.3" stop-color="#D0A151"/>
<stop offset="0.46" stop-color="#BD8A44"/>
<stop offset="0.56" stop-color="#FFE29C"/>
<stop offset="1" stop-color="#F2C85D"/>
</linearGradient>
<linearGradient id="paint10_linear_575_880" x1="89.685" y1="45.9366" x2="89.685" y2="6.52635" gradientUnits="userSpaceOnUse">
<stop stop-color="#F2C968"/>
<stop offset="0.3" stop-color="#D0A151"/>
<stop offset="0.46" stop-color="#BD8A44"/>
<stop offset="0.56" stop-color="#FFE29C"/>
<stop offset="1" stop-color="#F2C85D"/>
</linearGradient>
<linearGradient id="paint11_linear_575_880" x1="101.508" y1="45.9367" x2="101.508" y2="6.92054" gradientUnits="userSpaceOnUse">
<stop stop-color="#F2C968"/>
<stop offset="0.3" stop-color="#D0A151"/>
<stop offset="0.46" stop-color="#BD8A44"/>
<stop offset="0.56" stop-color="#FFE29C"/>
<stop offset="1" stop-color="#F2C85D"/>
</linearGradient>
<linearGradient id="paint12_linear_575_880" x1="35.2989" y1="45.9366" x2="35.2989" y2="6.52641" gradientUnits="userSpaceOnUse">
<stop stop-color="#F2C968"/>
<stop offset="0.3" stop-color="#D0A151"/>
<stop offset="0.46" stop-color="#BD8A44"/>
<stop offset="0.56" stop-color="#FFE29C"/>
<stop offset="1" stop-color="#F2C85D"/>
</linearGradient>
<linearGradient id="paint13_linear_575_880" x1="41.2104" y1="45.9366" x2="41.2104" y2="6.92048" gradientUnits="userSpaceOnUse">
<stop stop-color="#F2C968"/>
<stop offset="0.3" stop-color="#D0A151"/>
<stop offset="0.46" stop-color="#BD8A44"/>
<stop offset="0.56" stop-color="#FFE29C"/>
<stop offset="1" stop-color="#F2C85D"/>
</linearGradient>
<linearGradient id="paint14_linear_575_880" x1="122.001" y1="45.9365" x2="122.001" y2="6.92042" gradientUnits="userSpaceOnUse">
<stop stop-color="#F2C968"/>
<stop offset="0.3" stop-color="#D0A151"/>
<stop offset="0.46" stop-color="#BD8A44"/>
<stop offset="0.56" stop-color="#FFE29C"/>
<stop offset="1" stop-color="#F2C85D"/>
</linearGradient>
<linearGradient id="paint15_linear_575_880" x1="87.7146" y1="45.9365" x2="87.7146" y2="6.92042" gradientUnits="userSpaceOnUse">
<stop stop-color="#F2C968"/>
<stop offset="0.3" stop-color="#D0A151"/>
<stop offset="0.46" stop-color="#BD8A44"/>
<stop offset="0.56" stop-color="#FFE29C"/>
<stop offset="1" stop-color="#F2C85D"/>
</linearGradient>
<linearGradient id="paint16_linear_575_880" x1="138.554" y1="45.9366" x2="138.554" y2="6.52636" gradientUnits="userSpaceOnUse">
<stop stop-color="#F2C968"/>
<stop offset="0.3" stop-color="#D0A151"/>
<stop offset="0.46" stop-color="#BD8A44"/>
<stop offset="0.56" stop-color="#FFE29C"/>
<stop offset="1" stop-color="#F2C85D"/>
</linearGradient>
<linearGradient id="paint17_linear_575_880" x1="123.972" y1="45.9365" x2="123.972" y2="6.5263" gradientUnits="userSpaceOnUse">
<stop stop-color="#F2C968"/>
<stop offset="0.3" stop-color="#D0A151"/>
<stop offset="0.46" stop-color="#BD8A44"/>
<stop offset="0.56" stop-color="#FFE29C"/>
<stop offset="1" stop-color="#F2C85D"/>
</linearGradient>
<linearGradient id="paint18_linear_575_880" x1="5.94657" y1="26.6205" x2="142.927" y2="26.6205" gradientUnits="userSpaceOnUse">
<stop stop-color="#F2C968"/>
<stop offset="0.3" stop-color="#D0A151"/>
<stop offset="0.46" stop-color="#BD8A44"/>
<stop offset="0.56" stop-color="#FFE29C"/>
<stop offset="1" stop-color="#F2C85D"/>
</linearGradient>
<linearGradient id="paint19_linear_575_880" x1="5.94641" y1="23.8809" x2="142.927" y2="23.8809" gradientUnits="userSpaceOnUse">
<stop stop-color="#F2C968"/>
<stop offset="0.3" stop-color="#D0A151"/>
<stop offset="0.46" stop-color="#BD8A44"/>
<stop offset="0.56" stop-color="#FFE29C"/>
<stop offset="1" stop-color="#F2C85D"/>
</linearGradient>
<linearGradient id="paint20_linear_575_880" x1="10.0562" y1="34.8394" x2="142.927" y2="34.8394" gradientUnits="userSpaceOnUse">
<stop stop-color="#F2C968"/>
<stop offset="0.3" stop-color="#D0A151"/>
<stop offset="0.46" stop-color="#BD8A44"/>
<stop offset="0.56" stop-color="#FFE29C"/>
<stop offset="1" stop-color="#F2C85D"/>
</linearGradient>
<linearGradient id="paint21_linear_575_880" x1="11.4246" y1="33.4696" x2="141.558" y2="33.4696" gradientUnits="userSpaceOnUse">
<stop stop-color="#F2C968"/>
<stop offset="0.3" stop-color="#D0A151"/>
<stop offset="0.46" stop-color="#BD8A44"/>
<stop offset="0.56" stop-color="#FFE29C"/>
<stop offset="1" stop-color="#F2C85D"/>
</linearGradient>
<linearGradient id="paint22_linear_575_880" x1="7.31648" y1="25.2507" x2="142.927" y2="25.2507" gradientUnits="userSpaceOnUse">
<stop stop-color="#F2C968"/>
<stop offset="0.3" stop-color="#D0A151"/>
<stop offset="0.46" stop-color="#BD8A44"/>
<stop offset="0.56" stop-color="#FFE29C"/>
<stop offset="1" stop-color="#F2C85D"/>
</linearGradient>
<linearGradient id="paint23_linear_575_880" x1="5.94679" y1="18.4019" x2="142.927" y2="18.4019" gradientUnits="userSpaceOnUse">
<stop stop-color="#F2C968"/>
<stop offset="0.3" stop-color="#D0A151"/>
<stop offset="0.46" stop-color="#BD8A44"/>
<stop offset="0.56" stop-color="#FFE29C"/>
<stop offset="1" stop-color="#F2C85D"/>
</linearGradient>
<linearGradient id="paint24_linear_575_880" x1="5.94658" y1="17.0318" x2="142.927" y2="17.0318" gradientUnits="userSpaceOnUse">
<stop stop-color="#F2C968"/>
<stop offset="0.3" stop-color="#D0A151"/>
<stop offset="0.46" stop-color="#BD8A44"/>
<stop offset="0.56" stop-color="#FFE29C"/>
<stop offset="1" stop-color="#F2C85D"/>
</linearGradient>
<linearGradient id="paint25_linear_575_880" x1="5.94664" y1="14.2922" x2="144.297" y2="14.2922" gradientUnits="userSpaceOnUse">
<stop stop-color="#F2C968"/>
<stop offset="0.3" stop-color="#D0A151"/>
<stop offset="0.46" stop-color="#BD8A44"/>
<stop offset="0.56" stop-color="#FFE29C"/>
<stop offset="1" stop-color="#F2C85D"/>
</linearGradient>
<linearGradient id="paint26_linear_575_880" x1="5.94669" y1="30.7299" x2="142.927" y2="30.7299" gradientUnits="userSpaceOnUse">
<stop stop-color="#F2C968"/>
<stop offset="0.3" stop-color="#D0A151"/>
<stop offset="0.46" stop-color="#BD8A44"/>
<stop offset="0.56" stop-color="#FFE29C"/>
<stop offset="1" stop-color="#F2C85D"/>
</linearGradient>
<linearGradient id="paint27_linear_575_880" x1="5.94668" y1="29.3601" x2="147.037" y2="29.3601" gradientUnits="userSpaceOnUse">
<stop stop-color="#F2C968"/>
<stop offset="0.3" stop-color="#D0A151"/>
<stop offset="0.46" stop-color="#BD8A44"/>
<stop offset="0.56" stop-color="#FFE29C"/>
<stop offset="1" stop-color="#F2C85D"/>
</linearGradient>
<linearGradient id="paint28_linear_575_880" x1="5.9468" y1="22.5111" x2="145.667" y2="22.5111" gradientUnits="userSpaceOnUse">
<stop stop-color="#F2C968"/>
<stop offset="0.3" stop-color="#D0A151"/>
<stop offset="0.46" stop-color="#BD8A44"/>
<stop offset="0.56" stop-color="#FFE29C"/>
<stop offset="1" stop-color="#F2C85D"/>
</linearGradient>
<linearGradient id="paint29_linear_575_880" x1="7.31656" y1="25.2507" x2="137.448" y2="25.2507" gradientUnits="userSpaceOnUse">
<stop stop-color="#F2C968"/>
<stop offset="0.3" stop-color="#D0A151"/>
<stop offset="0.46" stop-color="#BD8A44"/>
<stop offset="0.56" stop-color="#FFE29C"/>
<stop offset="1" stop-color="#F2C85D"/>
</linearGradient>
<linearGradient id="paint30_linear_575_880" x1="7.3164" y1="32.0998" x2="142.927" y2="32.0998" gradientUnits="userSpaceOnUse">
<stop stop-color="#F2C968"/>
<stop offset="0.3" stop-color="#D0A151"/>
<stop offset="0.46" stop-color="#BD8A44"/>
<stop offset="0.56" stop-color="#FFE29C"/>
<stop offset="1" stop-color="#F2C85D"/>
</linearGradient>
<linearGradient id="paint31_linear_575_880" x1="5.94668" y1="33.4696" x2="144.297" y2="33.4696" gradientUnits="userSpaceOnUse">
<stop stop-color="#F2C968"/>
<stop offset="0.3" stop-color="#D0A151"/>
<stop offset="0.46" stop-color="#BD8A44"/>
<stop offset="0.56" stop-color="#FFE29C"/>
<stop offset="1" stop-color="#F2C85D"/>
</linearGradient>
<linearGradient id="paint32_linear_575_880" x1="5.94671" y1="22.5111" x2="144.297" y2="22.5111" gradientUnits="userSpaceOnUse">
<stop stop-color="#F2C968"/>
<stop offset="0.3" stop-color="#D0A151"/>
<stop offset="0.46" stop-color="#BD8A44"/>
<stop offset="0.56" stop-color="#FFE29C"/>
<stop offset="1" stop-color="#F2C85D"/>
</linearGradient>
<linearGradient id="paint33_linear_575_880" x1="5.9464" y1="32.0997" x2="142.927" y2="32.0997" gradientUnits="userSpaceOnUse">
<stop stop-color="#F2C968"/>
<stop offset="0.3" stop-color="#D0A151"/>
<stop offset="0.46" stop-color="#BD8A44"/>
<stop offset="0.56" stop-color="#FFE29C"/>
<stop offset="1" stop-color="#F2C85D"/>
</linearGradient>
<linearGradient id="paint34_linear_575_880" x1="3.20701" y1="43.0582" x2="144.297" y2="43.0582" gradientUnits="userSpaceOnUse">
<stop stop-color="#F2C968"/>
<stop offset="0.3" stop-color="#D0A151"/>
<stop offset="0.46" stop-color="#BD8A44"/>
<stop offset="0.56" stop-color="#FFE29C"/>
<stop offset="1" stop-color="#F2C85D"/>
</linearGradient>
<linearGradient id="paint35_linear_575_880" x1="5.94674" y1="23.8809" x2="142.927" y2="23.8809" gradientUnits="userSpaceOnUse">
<stop stop-color="#F2C968"/>
<stop offset="0.3" stop-color="#D0A151"/>
<stop offset="0.46" stop-color="#BD8A44"/>
<stop offset="0.56" stop-color="#FFE29C"/>
<stop offset="1" stop-color="#F2C85D"/>
</linearGradient>
<linearGradient id="paint36_linear_575_880" x1="7.31656" y1="36.2092" x2="142.927" y2="36.2092" gradientUnits="userSpaceOnUse">
<stop stop-color="#F2C968"/>
<stop offset="0.3" stop-color="#D0A151"/>
<stop offset="0.46" stop-color="#BD8A44"/>
<stop offset="0.56" stop-color="#FFE29C"/>
<stop offset="1" stop-color="#F2C85D"/>
</linearGradient>
<linearGradient id="paint37_linear_575_880" x1="5.94643" y1="10.1828" x2="144.297" y2="10.1828" gradientUnits="userSpaceOnUse">
<stop stop-color="#F2C968"/>
<stop offset="0.3" stop-color="#D0A151"/>
<stop offset="0.46" stop-color="#BD8A44"/>
<stop offset="0.56" stop-color="#FFE29C"/>
<stop offset="1" stop-color="#F2C85D"/>
</linearGradient>
<linearGradient id="paint38_linear_575_880" x1="5.94662" y1="12.9224" x2="142.927" y2="12.9224" gradientUnits="userSpaceOnUse">
<stop stop-color="#F2C968"/>
<stop offset="0.3" stop-color="#D0A151"/>
<stop offset="0.46" stop-color="#BD8A44"/>
<stop offset="0.56" stop-color="#FFE29C"/>
<stop offset="1" stop-color="#F2C85D"/>
</linearGradient>
<linearGradient id="paint39_linear_575_880" x1="7.31635" y1="32.1" x2="142.927" y2="32.1" gradientUnits="userSpaceOnUse">
<stop stop-color="#F2C968"/>
<stop offset="0.3" stop-color="#D0A151"/>
<stop offset="0.46" stop-color="#BD8A44"/>
<stop offset="0.56" stop-color="#FFE29C"/>
<stop offset="1" stop-color="#F2C85D"/>
</linearGradient>
<linearGradient id="paint40_linear_575_880" x1="5.94668" y1="25.2508" x2="142.927" y2="25.2508" gradientUnits="userSpaceOnUse">
<stop stop-color="#F2C968"/>
<stop offset="0.3" stop-color="#D0A151"/>
<stop offset="0.46" stop-color="#BD8A44"/>
<stop offset="0.56" stop-color="#FFE29C"/>
<stop offset="1" stop-color="#F2C85D"/>
</linearGradient>
<linearGradient id="paint41_linear_575_880" x1="7.31657" y1="26.6205" x2="142.927" y2="26.6205" gradientUnits="userSpaceOnUse">
<stop stop-color="#F2C968"/>
<stop offset="0.3" stop-color="#D0A151"/>
<stop offset="0.46" stop-color="#BD8A44"/>
<stop offset="0.56" stop-color="#FFE29C"/>
<stop offset="1" stop-color="#F2C85D"/>
</linearGradient>
<linearGradient id="paint42_linear_575_880" x1="7.31636" y1="30.7299" x2="142.927" y2="30.7299" gradientUnits="userSpaceOnUse">
<stop stop-color="#F2C968"/>
<stop offset="0.3" stop-color="#D0A151"/>
<stop offset="0.46" stop-color="#BD8A44"/>
<stop offset="0.56" stop-color="#FFE29C"/>
<stop offset="1" stop-color="#F2C85D"/>
</linearGradient>
<linearGradient id="paint43_linear_575_880" x1="7.31636" y1="43.0582" x2="142.927" y2="43.0582" gradientUnits="userSpaceOnUse">
<stop stop-color="#F2C968"/>
<stop offset="0.3" stop-color="#D0A151"/>
<stop offset="0.46" stop-color="#BD8A44"/>
<stop offset="0.56" stop-color="#FFE29C"/>
<stop offset="1" stop-color="#F2C85D"/>
</linearGradient>
<linearGradient id="paint44_linear_575_880" x1="5.94666" y1="14.2923" x2="144.297" y2="14.2923" gradientUnits="userSpaceOnUse">
<stop stop-color="#F2C968"/>
<stop offset="0.3" stop-color="#D0A151"/>
<stop offset="0.46" stop-color="#BD8A44"/>
<stop offset="0.56" stop-color="#FFE29C"/>
<stop offset="1" stop-color="#F2C85D"/>
</linearGradient>
<linearGradient id="paint45_linear_575_880" x1="5.94673" y1="34.8394" x2="142.927" y2="34.8394" gradientUnits="userSpaceOnUse">
<stop stop-color="#F2C968"/>
<stop offset="0.3" stop-color="#D0A151"/>
<stop offset="0.46" stop-color="#BD8A44"/>
<stop offset="0.56" stop-color="#FFE29C"/>
<stop offset="1" stop-color="#F2C85D"/>
</linearGradient>
<linearGradient id="paint46_linear_575_880" x1="7.31661" y1="26.6205" x2="142.927" y2="26.6205" gradientUnits="userSpaceOnUse">
<stop stop-color="#F2C968"/>
<stop offset="0.3" stop-color="#D0A151"/>
<stop offset="0.46" stop-color="#BD8A44"/>
<stop offset="0.56" stop-color="#FFE29C"/>
<stop offset="1" stop-color="#F2C85D"/>
</linearGradient>
<linearGradient id="paint47_linear_575_880" x1="5.94667" y1="45.7978" x2="142.927" y2="45.7978" gradientUnits="userSpaceOnUse">
<stop stop-color="#F2C968"/>
<stop offset="0.3" stop-color="#D0A151"/>
<stop offset="0.46" stop-color="#BD8A44"/>
<stop offset="0.56" stop-color="#FFE29C"/>
<stop offset="1" stop-color="#F2C85D"/>
</linearGradient>
<linearGradient id="paint48_linear_575_880" x1="7.31654" y1="41.6884" x2="142.927" y2="41.6884" gradientUnits="userSpaceOnUse">
<stop stop-color="#F2C968"/>
<stop offset="0.3" stop-color="#D0A151"/>
<stop offset="0.46" stop-color="#BD8A44"/>
<stop offset="0.56" stop-color="#FFE29C"/>
<stop offset="1" stop-color="#F2C85D"/>
</linearGradient>
<linearGradient id="paint49_linear_575_880" x1="7.31642" y1="15.6621" x2="141.557" y2="15.6621" gradientUnits="userSpaceOnUse">
<stop stop-color="#F2C968"/>
<stop offset="0.3" stop-color="#D0A151"/>
<stop offset="0.46" stop-color="#BD8A44"/>
<stop offset="0.56" stop-color="#FFE29C"/>
<stop offset="1" stop-color="#F2C85D"/>
</linearGradient>
<clipPath id="clip0_575_880">
<rect width="158" height="56.8988" fill="white"/>
</clipPath>
</defs>
</svg>
