<svg width="209" height="35" viewBox="0 0 209 35" fill="none" xmlns="http://www.w3.org/2000/svg">
<g clip-path="url(#clip0_363_62)">
<path d="M133.854 13.6058C131.925 13.6058 130.119 14.8226 128.824 16.7938H128.763L129.213 13.904H127.98C127.795 15.212 127.524 16.9459 127.166 18.8136L124.269 34.0232H125.564L126.723 27.8603H126.784C127.683 28.3002 128.679 28.5094 129.681 28.4687C134.291 28.4687 137.638 23.0541 137.638 18.2296C137.62 15.8995 136.584 13.6058 133.854 13.6058ZM129.786 27.3553C128.787 27.396 127.803 27.114 126.981 26.5523L127.918 21.6426C128.732 17.3292 131.413 14.7374 133.465 14.7374C135.518 14.7374 136.27 16.6417 136.27 18.3391C136.27 21.9894 133.613 27.3553 129.804 27.3553H129.786ZM138.982 24.1735C138.982 26.7287 140.307 28.5173 142.507 28.5173C144.406 28.5173 146.249 27.5318 147.907 24.3803H147.962C147.757 25.6507 147.637 26.9332 147.605 28.2192H148.868C148.842 26.0421 149.049 23.8682 149.485 21.7339L151.019 14.056C150.074 13.7646 149.088 13.6229 148.098 13.6363C142.507 13.6058 138.982 19.2577 138.982 24.1735ZM148.505 20.2129C147.814 23.9058 145.158 27.3857 142.809 27.3857C140.849 27.3857 140.307 25.7188 140.344 23.8449C140.375 19.349 143.629 14.7679 147.79 14.7679C148.381 14.7389 148.973 14.8089 149.54 14.9747L148.505 20.2129ZM155.648 17.031H155.593C155.772 15.7778 155.895 14.8287 155.981 13.904H154.804C154.654 15.472 154.424 17.0314 154.114 18.5763L152.264 28.1888H153.559L154.946 20.9247C155.562 17.8037 157.658 14.9747 159.556 14.9747C159.717 14.9636 159.879 14.9738 160.037 15.0051L160.308 13.6363C160.16 13.6363 159.95 13.6058 159.766 13.6058C157.96 13.6058 156.523 15.1268 155.648 17.031ZM164.32 27.3249C163.414 27.3249 163.026 26.82 163.026 25.9865C163.044 25.1556 163.143 24.3285 163.322 23.5164L164.924 14.999H168.327L168.567 13.8979H165.165L165.781 10.7769L164.339 11.3366L163.852 13.8979H161.744L161.534 14.999H163.612L161.984 23.5164C161.775 24.3735 161.664 25.251 161.652 26.1325C161.612 26.6987 161.801 27.2574 162.175 27.6878C162.55 28.1181 163.082 28.3855 163.655 28.4322C163.782 28.4443 163.91 28.4443 164.037 28.4322C164.517 28.4274 164.994 28.3578 165.455 28.2253L165.356 27.2154C165.019 27.3057 164.669 27.3427 164.32 27.3249ZM176.752 13.6058C174.762 13.6058 172.956 14.7374 171.686 16.8181H171.624L172.05 13.904H170.817C170.7 15.0051 170.515 16.4044 170.2 18.1018L168.271 28.1888H169.566L170.983 20.6023C171.6 17.1466 174.361 14.7679 176.29 14.7679C178.065 14.7679 178.669 15.8386 178.669 17.3292C178.661 18.0274 178.591 18.7237 178.46 19.4098L176.771 28.1888H178.065L179.729 19.4098C179.891 18.6859 179.981 17.9484 180.001 17.2075C179.976 14.5002 178.17 13.6058 176.752 13.6058ZM189.141 13.6058C185.012 13.6058 182.084 18.99 182.084 23.0966C182.084 25.8344 183.261 28.4565 186.639 28.4565C188.033 28.4813 189.404 28.1096 190.59 27.3857L190.195 26.3697C189.192 26.9918 188.033 27.3228 186.848 27.3249C186.117 27.3461 185.401 27.1146 184.823 26.6703C184.246 26.2261 183.844 25.5969 183.686 24.8914C183.427 23.7181 183.385 22.5081 183.563 21.3202C188.297 21.3202 192.519 20.3346 192.519 16.7086C192.519 15.1268 191.52 13.6058 189.141 13.6058ZM191.163 16.7938C191.163 19.6167 187.545 20.2433 183.767 20.2129C184.673 17.1162 186.663 14.7374 188.895 14.7374C190.251 14.7374 191.157 15.4492 191.157 16.7634L191.163 16.7938ZM201.018 15.0051L201.29 13.6363C201.136 13.6363 200.926 13.6058 200.747 13.6058C198.935 13.6058 197.493 15.1268 196.618 17.031H196.556C196.735 15.7778 196.858 14.8287 196.95 13.904H195.755C195.631 15.1572 195.422 16.7634 195.058 18.5763L193.209 28.1888H194.522L195.909 20.9247C196.525 17.8037 198.621 14.9747 200.525 14.9747C200.69 14.9634 200.856 14.9736 201.018 15.0051ZM206.473 14.7374C207.2 14.757 207.908 14.967 208.526 15.3458L209.006 14.2446C208.29 13.8185 207.463 13.6071 206.627 13.6363C204.063 13.6363 202.22 15.4614 202.22 17.682C202.258 18.4105 202.482 19.1177 202.872 19.7371C203.263 20.3565 203.806 20.8678 204.452 21.2228C205.808 22.0867 206.412 22.9506 206.412 24.3803C206.408 25.1721 206.087 25.9303 205.519 26.489C204.951 27.0477 204.181 27.3614 203.379 27.3614H203.219C202.311 27.3554 201.427 27.0751 200.686 26.5583L200.174 27.6291C201.035 28.2053 202.055 28.5069 203.096 28.493C205.598 28.493 207.737 26.9173 207.737 24.0275C207.707 23.2786 207.487 22.549 207.099 21.9051C206.71 21.2612 206.165 20.7234 205.512 20.3407C204.334 19.5376 203.552 18.7893 203.552 17.4508C203.552 17.0937 203.625 16.7402 203.764 16.4106C203.903 16.081 204.107 15.7816 204.363 15.5297C204.619 15.2777 204.924 15.078 205.258 14.9421C205.593 14.8062 205.951 14.7366 206.313 14.7374H206.473Z" fill="black"/>
<path d="M26.8724 6.88317C26.8605 6.81174 26.8251 6.74618 26.7716 6.69667C26.7181 6.64716 26.6495 6.61648 26.5765 6.6094L24.0495 6.56073C24.0495 6.56073 22.0401 4.63823 21.8429 4.43746C21.7385 4.36989 21.6199 4.32658 21.496 4.31077C21.3722 4.29496 21.2463 4.30708 21.1279 4.34621L20.1171 4.65648C19.9861 4.25236 19.8168 3.86127 19.6117 3.48838C18.8906 2.13169 17.8427 1.41988 16.5792 1.41988H16.3203L16.1971 1.29212C15.9326 1.00565 15.6066 0.781069 15.243 0.634769C14.8794 0.488468 14.4873 0.424135 14.0953 0.446463C12.4619 0.48905 10.8286 1.66323 9.50957 3.72565C8.58544 5.15997 7.95708 6.76015 7.66049 8.43455L4.48624 9.43838C3.53705 9.73041 3.50623 9.76083 3.38296 10.6552C3.25352 11.3244 0.788086 30.2573 0.788086 30.2573L21.584 33.7677L30.5706 31.5836L26.8724 6.88317ZM19.0508 4.97284L17.4298 5.46563C17.4366 4.46553 17.2698 3.47167 16.9367 2.52714C18.2002 2.74616 18.7858 4.14544 19.0693 4.96067L19.0508 4.97284ZM16.3943 5.78808L12.918 6.84667C13.2298 5.60719 13.8314 4.45704 14.6747 3.48838C15.0017 3.12708 15.403 2.83878 15.8519 2.64273C16.253 3.64237 16.4377 4.71376 16.3943 5.78808ZM14.1631 1.52939C14.5106 1.51264 14.8549 1.60185 15.1493 1.78491C14.666 2.02813 14.2299 2.35352 13.8611 2.74616C12.7508 4.01309 12.0058 5.55114 11.7038 7.19953L8.85623 8.09994C9.41711 5.50214 11.6175 1.60848 14.1446 1.52939H14.1631Z" fill="#95BF46"/>
<path d="M26.6012 6.60951L24.0741 6.56084C24.0741 6.56084 22.0648 4.63834 21.8676 4.43758C21.7893 4.36622 21.6899 4.32145 21.584 4.30981V33.7739L30.5706 31.5898L26.8724 6.88328C26.8619 6.81539 26.83 6.75247 26.7814 6.70336C26.7327 6.65426 26.6697 6.62143 26.6012 6.60951Z" fill="#5F8E3E"/>
<path d="M16.5915 11.1844L15.5437 15.0477C14.7362 14.7176 13.8648 14.568 12.9919 14.6096C10.9641 14.7374 10.9395 16.0028 10.9641 16.3192C11.0689 18.047 15.6793 18.4242 15.9381 22.47C16.1415 25.6579 14.2247 27.8359 11.4634 28.0063C10.5343 28.0863 9.59862 27.9745 8.71574 27.6781C7.83286 27.3817 7.02217 26.9071 6.33527 26.2845L7.03792 23.3399C7.03792 23.3399 8.88699 24.7027 10.3416 24.6115C10.6849 24.6035 11.0113 24.4624 11.25 24.2188C11.4888 23.9751 11.6208 23.6485 11.6175 23.3095V23.2365C11.4695 20.9855 7.72207 21.1193 7.48169 17.4143C7.28446 14.3054 9.36159 11.1358 13.9411 10.8498C14.839 10.7492 15.7482 10.864 16.5915 11.1844Z" fill="white"/>
<path d="M42.8115 19.434C41.7636 18.8743 41.2274 18.3998 41.2274 17.7549C41.2274 16.9275 41.9732 16.3982 43.1381 16.3982C44.0219 16.4157 44.8934 16.6059 45.7022 16.9579L46.6575 14.0681C46.6575 14.0681 45.7823 13.3928 43.1998 13.3928C39.6002 13.3928 37.1101 15.4248 37.1101 18.2599C37.1101 19.8782 38.2751 21.1132 39.8221 22.0014C41.0548 22.7072 41.5233 23.2182 41.5233 23.9422C41.5233 24.6661 40.9069 25.3293 39.7358 25.3293C38.5606 25.2791 37.4104 24.9781 36.3643 24.4471L35.3474 27.3309C36.5831 28.0251 37.9878 28.3722 39.4092 28.3347C43.1073 28.3347 45.7638 26.5096 45.7638 23.2973C45.7823 21.606 44.4202 20.3466 42.8115 19.434ZM57.5548 13.3624C56.7076 13.3667 55.8727 13.5626 55.1142 13.9348C54.3556 14.3071 53.6935 14.8459 53.1786 15.51H53.117L54.7195 7.34545H50.6022L46.5959 28.0914H50.7132L52.0938 20.9976C52.6301 18.3207 54.0354 16.6659 55.3482 16.6659C56.2727 16.6659 56.6302 17.2743 56.6302 18.1686C56.629 18.7812 56.5691 19.3923 56.4515 19.9938L54.8983 28.1218H59.0155L60.6304 19.7261C60.8086 18.8523 60.9077 17.9646 60.9263 17.0735C60.9263 14.7495 59.7059 13.3624 57.5548 13.3624ZM70.2394 13.3624C65.3086 13.3624 62.0049 17.7792 62.0049 22.7011C62.0049 25.8525 63.9711 28.3895 67.6754 28.3895C72.5385 28.3895 75.8237 24.0882 75.8237 19.0508C75.8237 16.1305 74.0917 13.3624 70.2394 13.3624ZM68.2116 25.2563C66.8063 25.2563 66.2084 24.0821 66.2084 22.6098C66.2084 20.2797 67.4412 16.4773 69.6724 16.4773C71.1332 16.4773 71.6139 17.6941 71.6139 18.9108C71.6139 21.4356 70.3874 25.2563 68.2116 25.2563ZM86.3572 13.3624C83.5774 13.3624 81.9996 15.7959 81.9996 15.7959H81.9379L82.1783 13.6179H78.5356C78.3569 15.0902 78.0302 17.329 77.7035 19.0082L74.8375 33.9075H78.9548L80.0889 27.9028H80.1813C80.9255 28.2859 81.7589 28.4685 82.5974 28.4321C87.4359 28.4321 90.6101 23.565 90.6101 18.5884C90.5978 15.8081 89.3712 13.3624 86.3572 13.3624ZM82.4187 25.3232C81.7962 25.3279 81.1926 25.112 80.7175 24.7148L81.4017 20.9185C81.8825 18.3815 83.2508 16.7024 84.6561 16.7024C85.8888 16.7024 86.3018 17.8522 86.3018 18.9413C86.3018 21.606 84.7177 25.3232 82.4187 25.3232ZM96.4778 7.52796C96.1686 7.52716 95.8623 7.58648 95.5763 7.70254C95.2904 7.81859 95.0304 7.98911 94.8112 8.20435C94.5919 8.41959 94.4178 8.67534 94.2988 8.957C94.1797 9.23866 94.118 9.54071 94.1172 9.84591V9.8885C94.0762 10.3835 94.2353 10.8745 94.5598 11.2541C94.8844 11.6337 95.3479 11.8711 95.8492 11.9144H96.1204C96.4264 11.9258 96.7316 11.8775 97.0187 11.7724C97.3058 11.6672 97.5691 11.5072 97.7935 11.3016C98.0179 11.0959 98.1991 10.8486 98.3265 10.5737C98.454 10.2989 98.5254 10.002 98.5365 9.6999V9.57213C98.5634 9.06087 98.3839 8.55992 98.0373 8.17905C97.6907 7.79817 97.2053 7.56842 96.6874 7.54013L96.4778 7.52796ZM90.7149 28.0914H94.8383L97.6428 13.6848H93.4947L90.7149 28.0914ZM108.121 13.6544H105.255L105.403 12.9791C105.643 11.592 106.475 10.357 107.868 10.357C108.314 10.3558 108.757 10.4256 109.181 10.5638L109.988 7.38195C109.277 7.10764 108.514 6.98731 107.751 7.02909C106.285 6.98548 104.853 7.46745 103.72 8.38579C102.412 9.60022 101.567 11.2223 101.329 12.9791L101.211 13.6544H99.3008L98.6844 16.6963H100.595L98.4194 28.067H102.537L104.712 16.7389H107.554L108.121 13.6544ZM118.026 13.697C118.026 13.697 115.456 20.1033 114.328 23.5954H114.266C114.186 22.4699 113.255 13.697 113.255 13.697H108.941L111.406 26.9293C111.439 27.0417 111.449 27.1597 111.434 27.2759C111.419 27.3921 111.38 27.504 111.32 27.6046C110.778 28.5782 110.012 29.4119 109.082 30.0382C108.365 30.529 107.581 30.9162 106.753 31.188L107.887 34.6315C109.395 34.2366 110.78 33.4777 111.918 32.4231C113.767 30.6831 115.529 28.0062 117.317 24.3498L122.328 13.697H118.026Z" fill="black"/>
</g>
<defs>
<clipPath id="clip0_363_62">
<rect width="208.218" height="34.1851" fill="white" transform="translate(0.788086 0.446533)"/>
</clipPath>
</defs>
</svg>
