<svg width="134" height="23" viewBox="0 0 134 23" fill="none" xmlns="http://www.w3.org/2000/svg">
<g clip-path="url(#clip0_155_148)">
<g clip-path="url(#clip1_155_148)">
<path d="M85.6351 9.15948C84.3936 9.15948 83.2314 9.94253 82.3984 11.2111H82.3587L82.6483 9.35133H81.8549C81.7359 10.1931 81.5614 11.309 81.3313 12.511L79.467 22.2992H80.3L81.0458 18.333H81.0854C81.6636 18.6161 82.3048 18.7508 82.9497 18.7245C85.9167 18.7245 88.0706 15.2399 88.0706 12.1351C88.0587 10.6355 87.3923 9.15948 85.6351 9.15948ZM83.0172 18.008C82.3746 18.0342 81.741 17.8527 81.2124 17.4912L81.8153 14.3316C82.3389 11.5556 84.0643 9.88772 85.3852 9.88772C86.7061 9.88772 87.19 11.1132 87.19 12.2056C87.19 14.5547 85.4804 18.008 83.0291 18.008H83.0172ZM88.9353 15.9603C88.9353 17.6048 89.7882 18.7558 91.2042 18.7558C92.426 18.7558 93.612 18.1216 94.679 16.0935H94.7147C94.5825 16.911 94.5056 17.7364 94.4846 18.564H95.2978C95.2809 17.1629 95.4138 15.7639 95.6944 14.3903L96.6821 9.44921C96.0738 9.26164 95.4392 9.17045 94.802 9.17905C91.2042 9.15948 88.9353 12.7968 88.9353 15.9603ZM95.0638 13.4115C94.6195 15.7881 92.9099 18.0276 91.3986 18.0276C90.1372 18.0276 89.7882 16.9548 89.812 15.7489C89.8318 12.8555 91.9262 9.9073 94.6036 9.9073C94.984 9.88869 95.3649 9.9337 95.7301 10.0404L95.0638 13.4115ZM99.6611 11.3638H99.6254C99.7404 10.5572 99.8197 9.94645 99.8752 9.35133H99.1176C99.0213 10.3604 98.873 11.364 98.6734 12.3583L97.4834 18.5444H98.3164L99.2089 13.8696C99.6055 11.861 100.954 10.0404 102.176 10.0404C102.279 10.0333 102.383 10.0399 102.485 10.06L102.66 9.17905C102.565 9.17905 102.43 9.15948 102.311 9.15948C101.149 9.15948 100.224 10.1383 99.6611 11.3638ZM105.242 17.9885C104.659 17.9885 104.409 17.6635 104.409 17.1271C104.421 16.5924 104.484 16.0601 104.599 15.5375L105.631 10.0561H107.82L107.975 9.34741H105.785L106.182 7.33887L105.254 7.69907L104.941 9.34741H103.584L103.449 10.0561H104.786L103.739 15.5375C103.604 16.0891 103.532 16.6537 103.525 17.2211C103.499 17.5855 103.62 17.945 103.862 18.222C104.103 18.4989 104.445 18.671 104.814 18.701C104.895 18.7089 104.978 18.7089 105.06 18.701C105.368 18.698 105.675 18.6532 105.972 18.5679L105.908 17.918C105.692 17.9761 105.467 17.9999 105.242 17.9885ZM113.243 9.15948C111.962 9.15948 110.799 9.88772 109.982 11.2267H109.943L110.216 9.35133H109.423C109.348 10.06 109.229 10.9605 109.026 12.0529L107.785 18.5444H108.618L109.53 13.6621C109.927 11.4382 111.704 9.9073 112.945 9.9073C114.088 9.9073 114.476 10.5964 114.476 11.5556C114.471 12.005 114.426 12.4531 114.341 12.8947L113.255 18.5444H114.088L115.159 12.8947C115.262 12.4288 115.321 11.9542 115.333 11.4773C115.317 9.73502 114.155 9.15948 113.243 9.15948ZM121.216 9.15948C118.558 9.15948 116.674 12.6245 116.674 15.2673C116.674 17.0292 117.431 18.7167 119.605 18.7167C120.502 18.7327 121.385 18.4935 122.148 18.0276L121.894 17.3737C121.249 17.7741 120.502 17.9871 119.74 17.9885C119.269 18.0021 118.808 17.8531 118.437 17.5672C118.065 17.2813 117.807 16.8764 117.705 16.4223C117.538 15.6673 117.511 14.8886 117.626 14.1241C120.672 14.1241 123.389 13.4898 123.389 11.1563C123.389 10.1383 122.747 9.15948 121.216 9.15948ZM122.517 11.2111C122.517 13.0278 120.188 13.4311 117.757 13.4115C118.34 11.4186 119.621 9.88772 121.057 9.88772C121.93 9.88772 122.513 10.3458 122.513 11.1915L122.517 11.2111ZM128.859 10.06L129.034 9.17905C128.935 9.17905 128.8 9.15948 128.685 9.15948C127.519 9.15948 126.59 10.1383 126.027 11.3638H125.987C126.102 10.5572 126.182 9.94645 126.241 9.35133H125.472C125.392 10.1579 125.258 11.1915 125.024 12.3583L123.834 18.5444H124.678L125.571 13.8696C125.968 11.861 127.316 10.0404 128.542 10.0404C128.648 10.0331 128.755 10.0397 128.859 10.06ZM132.37 9.88772C132.837 9.9003 133.293 10.0354 133.691 10.2792L134 9.57058C133.539 9.29632 133.007 9.16029 132.469 9.17905C130.819 9.17905 129.633 10.3536 129.633 11.7827C129.657 12.2516 129.801 12.7067 130.052 13.1053C130.303 13.5039 130.653 13.8329 131.069 14.0614C131.941 14.6174 132.33 15.1734 132.33 16.0935C132.328 16.603 132.121 17.0909 131.756 17.4505C131.39 17.8101 130.895 18.0119 130.378 18.0119H130.275C129.691 18.0081 129.122 17.8277 128.645 17.4951L128.316 18.1842C128.87 18.5551 129.526 18.7491 130.196 18.7402C131.806 18.7402 133.183 17.7261 133.183 15.8664C133.163 15.3844 133.022 14.9149 132.772 14.5005C132.522 14.0861 132.171 13.74 131.751 13.4937C130.993 12.9769 130.49 12.4953 130.49 11.6339C130.49 11.4041 130.536 11.1766 130.626 10.9645C130.716 10.7523 130.847 10.5597 131.012 10.3976C131.177 10.2354 131.372 10.1069 131.588 10.0194C131.803 9.93196 132.034 9.8872 132.267 9.88772H132.37Z" fill="black"/>
<path d="M16.7867 4.83315C16.7791 4.78718 16.7562 4.74498 16.7218 4.71312C16.6874 4.68126 16.6433 4.66152 16.5963 4.65696L14.97 4.62564C14.97 4.62564 13.6769 3.3884 13.5499 3.2592C13.4827 3.21571 13.4064 3.18784 13.3267 3.17766C13.247 3.16749 13.166 3.17529 13.0898 3.20047L12.4393 3.40015C12.3549 3.14007 12.246 2.88839 12.114 2.64841C11.6499 1.77531 10.9756 1.31722 10.1625 1.31722H9.99586L9.91652 1.235C9.74631 1.05064 9.53655 0.906109 9.30254 0.811956C9.06854 0.717804 8.81619 0.676402 8.56391 0.690771C7.51276 0.718178 6.46161 1.47383 5.61275 2.80111C5.01802 3.72417 4.61364 4.75398 4.42277 5.83154L2.37997 6.47757C1.76911 6.6655 1.74927 6.68508 1.66994 7.26062C1.58664 7.69131 0 19.8757 0 19.8757L13.3833 22.1348L19.1667 20.7292L16.7867 4.83315ZM11.7531 3.60374L10.7098 3.92088C10.7142 3.27726 10.6069 2.63766 10.3925 2.0298C11.2057 2.17075 11.5825 3.07127 11.765 3.59591L11.7531 3.60374ZM10.0435 4.12839L7.80629 4.80965C8.00695 4.01198 8.39412 3.2718 8.93677 2.64841C9.14723 2.4159 9.40552 2.23036 9.69439 2.10419C9.9525 2.74751 10.0714 3.43701 10.0435 4.12839ZM8.60754 1.38769C8.83118 1.37691 9.05276 1.43433 9.2422 1.55213C8.93118 1.70866 8.65055 1.91807 8.41318 2.17075C7.69869 2.98609 7.21921 3.97591 7.02487 5.03674L5.19229 5.6162C5.55325 3.94438 6.96933 1.43859 8.59564 1.38769H8.60754Z" fill="#95BF46"/>
<path d="M16.6121 4.65698L14.9858 4.62566C14.9858 4.62566 13.6927 3.38843 13.5658 3.25922C13.5154 3.2133 13.4515 3.18449 13.3833 3.177V22.1387L19.1666 20.7332L16.7867 4.83317C16.7799 4.78948 16.7594 4.74899 16.7281 4.71738C16.6968 4.68578 16.6562 4.66466 16.6121 4.65698Z" fill="#5F8E3E"/>
<path d="M10.1704 7.60113L9.49606 10.0873C8.97644 9.87495 8.41564 9.77868 7.85388 9.80544C6.54887 9.88766 6.533 10.702 6.54887 10.9056C6.6163 12.0176 9.58333 12.2603 9.74992 14.864C9.88082 16.9156 8.64721 18.3173 6.87017 18.4269C6.27229 18.4784 5.67009 18.4065 5.10191 18.2157C4.53373 18.025 4.01201 17.7195 3.56995 17.3189L4.02214 15.4239C4.02214 15.4239 5.21212 16.3009 6.14824 16.2422C6.36919 16.237 6.57921 16.1463 6.73287 15.9895C6.88653 15.8327 6.97148 15.6224 6.96933 15.4043V15.3573C6.87413 13.9087 4.46243 13.9948 4.30774 11.6104C4.1808 9.60967 5.51755 7.56981 8.46474 7.38579C9.04256 7.32106 9.62767 7.39493 10.1704 7.60113Z" fill="white"/>
<path d="M27.0443 12.9104C26.37 12.5501 26.0249 12.2448 26.0249 11.8297C26.0249 11.2973 26.5048 10.9566 27.2545 10.9566C27.8233 10.9679 28.3841 11.0903 28.9046 11.3168L29.5195 9.45707C29.5195 9.45707 28.9562 9.02247 27.2942 9.02247C24.9777 9.02247 23.3752 10.3302 23.3752 12.1547C23.3752 13.1962 24.1249 13.991 25.1205 14.5626C25.9138 15.0168 26.2153 15.3457 26.2153 15.8116C26.2153 16.2775 25.8186 16.7043 25.0649 16.7043C24.3086 16.672 23.5684 16.4783 22.8952 16.1366L22.2407 17.9924C23.036 18.4392 23.94 18.6626 24.8547 18.6384C27.2347 18.6384 28.9443 17.4638 28.9443 15.3966C28.9562 14.3081 28.0796 13.4976 27.0443 12.9104ZM36.5324 9.0029C35.9872 9.00571 35.4499 9.13174 34.9618 9.37132C34.4736 9.61089 34.0475 9.95765 33.7161 10.385H33.6765L34.7078 5.13068H32.0581L29.4798 18.4818H32.1295L33.018 13.9166C33.3631 12.1939 34.2675 11.1289 35.1124 11.1289C35.7074 11.1289 35.9374 11.5204 35.9374 12.096C35.9366 12.4902 35.8981 12.8835 35.8224 13.2706L34.8228 18.5014H37.4725L38.5118 13.0983C38.6265 12.536 38.6902 11.9647 38.7022 11.3912C38.7022 9.89558 37.9168 9.0029 36.5324 9.0029ZM44.6957 9.0029C41.5224 9.0029 39.3963 11.8454 39.3963 15.0129C39.3963 17.041 40.6617 18.6737 43.0456 18.6737C46.1752 18.6737 48.2894 15.9055 48.2894 12.6637C48.2894 10.7844 47.1748 9.0029 44.6957 9.0029ZM43.3907 16.6573C42.4863 16.6573 42.1015 15.9016 42.1015 14.9541C42.1015 13.4546 42.8949 11.0075 44.3308 11.0075C45.2709 11.0075 45.5803 11.7906 45.5803 12.5736C45.5803 14.1985 44.7909 16.6573 43.3907 16.6573ZM55.0684 9.0029C53.2794 9.0029 52.264 10.569 52.264 10.569H52.2243L52.379 9.16734H50.0348C49.9197 10.1148 49.7095 11.5557 49.4993 12.6363L47.6548 22.2248H50.3045L51.0343 18.3604H51.0938C51.5728 18.607 52.1091 18.7245 52.6487 18.7011C55.7625 18.7011 57.8053 15.5688 57.8053 12.3661C57.7974 10.5768 57.0081 9.0029 55.0684 9.0029ZM52.5337 16.7004C52.1331 16.7034 51.7446 16.5645 51.4389 16.3088L51.8792 13.8657C52.1886 12.233 53.0692 11.1524 53.9736 11.1524C54.7669 11.1524 55.0327 11.8924 55.0327 12.5932C55.0327 14.3081 54.0133 16.7004 52.5337 16.7004ZM61.5816 5.24814C61.3826 5.24762 61.1854 5.2858 61.0014 5.36049C60.8174 5.43517 60.65 5.54491 60.5089 5.68343C60.3679 5.82195 60.2558 5.98654 60.1792 6.1678C60.1026 6.34906 60.0629 6.54345 60.0623 6.73986V6.76727C60.036 7.08585 60.1384 7.40179 60.3472 7.64608C60.5561 7.89037 60.8544 8.04316 61.177 8.07106H61.3515C61.5484 8.07839 61.7449 8.04733 61.9297 7.97966C62.1144 7.91198 62.2839 7.80901 62.4283 7.67665C62.5727 7.54429 62.6892 7.38512 62.7713 7.20825C62.8533 7.03139 62.8992 6.84029 62.9064 6.64589V6.56367C62.9237 6.23464 62.8082 5.91226 62.5851 5.66714C62.3621 5.42203 62.0497 5.27417 61.7164 5.25597L61.5816 5.24814ZM57.8728 18.4818H60.5264L62.3312 9.21041H59.6617L57.8728 18.4818ZM69.0745 9.19083H67.23L67.3252 8.75623C67.4799 7.86355 68.0154 7.06875 68.9118 7.06875C69.1989 7.06799 69.4842 7.11294 69.7567 7.20186L70.2764 5.15417C69.8184 4.97764 69.3274 4.9002 68.8365 4.92708C67.8933 4.89902 66.9717 5.20919 66.2423 5.80019C65.4005 6.58174 64.857 7.62562 64.7033 8.75623L64.6279 9.19083H63.3983L63.0016 11.1485H64.2312L62.831 18.4661H65.4807L66.8809 11.1759H68.7095L69.0745 9.19083ZM75.4488 9.21824C75.4488 9.21824 73.7948 13.341 73.0689 15.5884H73.0292C72.9776 14.8641 72.3787 9.21824 72.3787 9.21824H69.602L71.1887 17.734C71.2102 17.8063 71.2164 17.8822 71.2068 17.957C71.1973 18.0318 71.1722 18.1038 71.1331 18.1686C70.7846 18.7951 70.2913 19.3317 69.6933 19.7347C69.2317 20.0506 68.7268 20.2997 68.1939 20.4747L68.9237 22.6907C69.8945 22.4366 70.7859 21.9482 71.5179 21.2695C72.7079 20.1497 73.8423 18.427 74.9927 16.0739L78.2175 9.21824H75.4488Z" fill="black"/>
</g>
</g>
<defs>
<clipPath id="clip0_155_148">
<rect width="134" height="22" fill="white" transform="translate(0 0.690674)"/>
</clipPath>
<clipPath id="clip1_155_148">
<rect width="134" height="22" fill="white" transform="translate(0 0.690674)"/>
</clipPath>
</defs>
</svg>
